<?xml version="1.0" encoding="UTF-8" ?>
<!DOCTYPE svg PUBLIC "-//W3C//DTD SVG 1.1//EN" "http://www.w3.org/Graphics/SVG/1.1/DTD/svg11.dtd">
<svg width="828pt" height="238pt" viewBox="0 0 828 238" version="1.1" xmlns="http://www.w3.org/2000/svg">
<g id="#0070c0ff">
<path fill="#0070c0" opacity="1.00" d=" M 328.37 46.19 C 339.60 41.51 352.07 41.19 364.03 42.16 C 374.95 43.21 386.35 46.72 393.81 55.22 C 403.29 64.93 404.62 81.03 397.42 92.43 C 393.16 100.45 385.61 105.79 378.28 110.75 C 381.52 113.88 384.86 116.90 388.36 119.75 C 389.64 116.47 390.38 111.09 394.98 111.25 C 404.41 112.79 413.68 115.32 423.05 117.25 C 425.86 117.63 428.86 119.87 428.23 123.04 C 426.65 130.65 423.54 137.87 419.89 144.71 C 424.89 148.22 429.92 151.70 435.21 154.77 C 437.39 155.88 438.84 158.34 438.15 160.80 C 437.18 163.12 435.31 164.87 433.72 166.75 C 428.36 172.75 423.19 178.92 417.82 184.90 C 416.35 186.74 413.67 187.53 411.55 186.35 C 404.90 182.99 398.79 178.68 392.43 174.83 C 375.68 185.29 355.28 187.75 335.92 186.71 C 321.84 185.86 306.89 181.78 297.25 170.84 C 290.26 163.45 286.29 153.17 286.98 142.98 C 287.39 131.18 293.87 120.18 302.97 112.91 C 306.94 109.58 311.49 107.05 316.05 104.64 C 309.43 95.99 305.35 84.98 306.84 74.01 C 308.04 61.62 317.00 50.82 328.37 46.19 M 330.25 56.28 C 323.13 59.93 317.58 66.90 316.76 75.00 C 315.47 83.86 319.19 92.61 324.66 99.41 C 326.41 101.95 329.49 104.39 328.68 107.84 C 328.15 110.41 325.48 111.44 323.38 112.42 C 315.63 115.66 308.17 120.26 303.03 127.03 C 298.69 132.69 296.40 139.91 296.97 147.05 C 297.93 162.03 311.69 173.02 325.78 175.28 C 336.96 177.53 348.52 177.36 359.79 175.82 C 368.23 174.68 376.59 172.31 384.03 168.08 C 386.40 166.81 388.56 165.15 391.07 164.14 C 393.24 163.42 395.22 164.87 397.02 165.88 C 402.22 169.11 407.38 172.39 412.57 175.64 C 417.09 170.81 421.28 165.69 425.67 160.74 C 420.44 157.16 415.07 153.76 410.02 149.94 C 407.72 148.13 408.06 144.80 409.55 142.60 C 412.62 137.40 415.23 131.93 417.04 126.16 C 410.78 124.74 404.50 123.38 398.24 121.96 C 396.77 125.18 395.79 128.74 393.51 131.50 C 390.86 133.91 387.11 132.24 384.99 129.98 C 378.66 124.71 372.45 119.27 366.70 113.37 C 364.66 111.44 365.03 107.80 367.28 106.20 C 374.75 100.50 383.93 96.21 388.67 87.67 C 393.31 80.37 393.30 70.17 387.73 63.37 C 381.97 55.75 372.16 52.90 363.05 52.10 C 352.04 51.28 340.38 51.37 330.25 56.28 Z" />
<path fill="#0070c0" opacity="1.00" d=" M 351.47 61.72 C 356.54 60.81 362.12 61.54 366.44 64.49 C 371.95 67.71 374.16 75.08 372.01 80.97 C 369.61 87.64 363.90 92.43 358.06 96.09 C 355.75 97.66 352.37 99.27 349.98 96.91 C 344.88 91.56 339.50 85.49 338.47 77.89 C 337.66 70.13 344.14 63.20 351.47 61.72 M 348.32 77.00 C 349.14 80.81 351.90 83.79 354.18 86.82 C 357.57 84.18 361.53 81.42 362.76 77.07 C 363.66 73.69 359.99 71.46 357.07 71.38 C 353.35 70.63 348.48 72.77 348.32 77.00 Z" />
<path fill="#0070c0" opacity="1.00" d=" M 338.35 120.40 C 340.66 119.25 343.10 120.69 344.72 122.31 C 353.53 130.52 362.34 138.76 371.86 146.15 C 374.96 147.90 376.13 152.71 372.87 154.92 C 363.47 161.38 351.48 165.50 340.09 162.59 C 330.27 160.10 321.58 150.53 323.02 139.97 C 323.91 131.11 331.13 124.67 338.35 120.40 M 332.79 142.04 C 332.95 147.59 337.93 151.94 343.10 153.05 C 349.16 154.55 355.39 152.76 360.94 150.29 C 353.72 144.19 346.70 137.85 339.78 131.40 C 336.50 134.12 332.75 137.39 332.79 142.04 Z" />
</g>
<g id="#ffff00ff">
<path fill="#ffff00" opacity="1.00" d=" M 330.25 56.28 C 340.38 51.37 352.04 51.28 363.05 52.10 C 372.16 52.90 381.97 55.75 387.73 63.37 C 393.30 70.17 393.31 80.37 388.67 87.67 C 383.93 96.21 374.75 100.50 367.28 106.20 C 365.03 107.80 364.66 111.44 366.70 113.37 C 372.45 119.27 378.66 124.71 384.99 129.98 C 387.11 132.24 390.86 133.91 393.51 131.50 C 395.79 128.74 396.77 125.18 398.24 121.96 C 404.50 123.38 410.78 124.74 417.04 126.16 C 415.23 131.93 412.62 137.40 409.55 142.60 C 408.06 144.80 407.72 148.13 410.02 149.94 C 415.07 153.76 420.44 157.16 425.67 160.74 C 421.28 165.69 417.09 170.81 412.57 175.64 C 407.38 172.39 402.22 169.11 397.02 165.88 C 395.22 164.87 393.24 163.42 391.07 164.14 C 388.56 165.15 386.40 166.81 384.03 168.08 C 376.59 172.31 368.23 174.68 359.79 175.82 C 348.52 177.36 336.96 177.53 325.78 175.28 C 311.69 173.02 297.93 162.03 296.97 147.05 C 296.40 139.91 298.69 132.69 303.03 127.03 C 308.17 120.26 315.63 115.66 323.38 112.42 C 325.48 111.44 328.15 110.41 328.68 107.84 C 329.49 104.39 326.41 101.95 324.66 99.41 C 319.19 92.61 315.47 83.86 316.76 75.00 C 317.58 66.90 323.13 59.93 330.25 56.28 M 351.47 61.72 C 344.14 63.20 337.66 70.13 338.47 77.89 C 339.50 85.49 344.88 91.56 349.98 96.91 C 352.37 99.27 355.75 97.66 358.06 96.09 C 363.90 92.43 369.61 87.64 372.01 80.97 C 374.16 75.08 371.95 67.71 366.44 64.49 C 362.12 61.54 356.54 60.81 351.47 61.72 M 338.35 120.40 C 331.13 124.67 323.91 131.11 323.02 139.97 C 321.58 150.53 330.27 160.10 340.09 162.59 C 351.48 165.50 363.47 161.38 372.87 154.92 C 376.13 152.71 374.96 147.90 371.86 146.15 C 362.34 138.76 353.53 130.52 344.72 122.31 C 343.10 120.69 340.66 119.25 338.35 120.40 Z" />
</g>
<g id="#090503ed">
<path fill="#090503" opacity="0.93" d=" M 11.69 81.67 C 20.21 69.81 34.84 63.64 49.09 62.55 C 61.91 61.71 75.62 63.20 86.47 70.65 C 94.18 75.50 99.47 83.88 100.66 92.90 C 101.46 99.38 100.97 106.04 99.21 112.33 C 96.50 121.83 89.86 130.47 80.61 134.33 C 70.50 138.42 58.36 137.76 49.09 131.82 C 48.77 144.99 47.49 158.17 44.69 171.06 C 44.08 173.65 43.39 176.51 41.17 178.23 C 37.81 180.96 31.70 180.07 29.95 175.89 C 28.26 171.99 29.83 167.79 30.23 163.80 C 31.25 153.87 31.06 143.86 32.16 133.93 C 32.98 117.40 32.69 100.82 31.93 84.29 C 28.21 87.41 25.14 91.60 20.56 93.52 C 14.15 95.69 7.36 87.29 11.69 81.67 M 13.53 82.63 C 10.30 86.46 14.56 92.41 19.14 91.78 C 25.16 90.12 27.84 82.97 33.61 81.19 C 34.27 85.08 34.23 89.05 34.39 92.98 C 34.65 107.30 35.08 121.66 34.07 135.96 C 32.84 146.99 33.48 158.18 31.50 169.13 C 31.20 171.53 30.83 174.39 32.62 176.33 C 35.45 179.03 40.96 177.76 41.75 173.72 C 46.02 158.79 46.47 143.14 47.37 127.73 C 50.21 129.60 52.81 131.96 56.09 133.03 C 62.85 135.37 70.34 135.42 77.19 133.43 C 87.31 130.33 94.89 121.25 97.42 111.13 C 99.67 102.02 99.92 91.88 95.50 83.36 C 91.76 75.96 84.55 71.01 77.04 67.98 C 68.16 64.55 58.44 64.03 49.03 64.61 C 35.53 65.68 21.71 71.50 13.53 82.63 Z" />
<path fill="#090503" opacity="0.93" d=" M 117.49 64.46 C 122.03 62.57 128.00 64.03 130.29 68.61 C 132.43 72.93 131.97 79.00 128.25 82.33 C 123.45 86.05 115.34 85.12 112.28 79.58 C 109.00 74.27 111.81 66.77 117.49 64.46 M 118.33 66.31 C 113.80 68.04 111.52 73.86 113.82 78.16 C 115.78 82.15 120.89 83.44 124.86 81.92 C 129.79 80.32 130.48 73.63 128.49 69.55 C 126.68 65.88 121.92 64.84 118.33 66.31 Z" />
<path fill="#090503" opacity="0.93" d=" M 484.46 65.59 C 499.50 63.22 516.11 65.21 528.46 74.75 C 540.63 83.99 546.96 99.11 548.26 114.03 C 550.20 131.86 547.41 151.94 534.29 165.23 C 523.04 177.10 505.77 181.08 489.92 179.77 C 479.04 178.84 468.69 173.69 461.20 165.78 C 457.65 161.94 453.86 158.18 451.37 153.52 C 445.69 143.37 444.41 131.38 445.16 119.94 C 445.64 107.56 448.64 94.96 455.59 84.56 C 461.85 74.41 472.79 67.58 484.46 65.59 M 488.14 67.13 C 480.61 68.00 473.20 70.57 467.10 75.12 C 457.81 81.99 452.33 92.86 449.41 103.80 C 446.34 117.81 445.59 132.91 450.45 146.61 C 453.28 154.93 459.51 161.40 465.79 167.27 C 474.84 175.49 487.48 178.86 499.51 177.82 C 512.72 177.29 526.14 172.05 534.72 161.70 C 545.70 149.03 547.86 131.20 546.32 115.07 C 545.23 101.17 539.85 87.01 529.00 77.83 C 517.92 68.18 502.37 65.62 488.14 67.13 Z" />
<path fill="#090503" opacity="0.93" d=" M 46.44 77.70 C 57.47 75.74 70.21 76.16 79.09 83.86 C 88.01 91.37 88.10 105.65 81.93 114.89 C 78.67 119.70 73.03 123.06 67.10 122.63 C 62.09 122.59 57.85 119.52 53.03 118.70 C 50.99 119.04 49.43 120.50 47.74 121.55 C 47.20 116.37 47.71 111.18 47.62 105.99 C 47.51 96.55 47.09 87.11 46.44 77.70 M 48.71 79.22 C 49.23 91.91 50.10 104.62 49.46 117.33 C 54.97 115.28 59.76 119.49 65.03 120.29 C 70.72 121.52 76.86 118.84 80.03 114.00 C 86.06 105.33 85.91 91.53 77.01 84.80 C 69.13 78.36 58.33 78.32 48.71 79.22 Z" />
<path fill="#090503" opacity="0.93" d=" M 641.51 77.63 C 650.02 76.02 659.15 76.55 667.18 79.96 C 672.98 82.55 678.55 87.03 680.32 93.37 C 681.08 96.74 681.19 100.88 678.57 103.51 C 676.11 105.62 672.30 106.02 669.42 104.57 C 665.42 102.07 665.68 95.82 660.95 94.09 C 652.48 90.91 641.16 91.52 635.14 99.07 C 628.70 107.11 627.98 118.03 628.44 127.92 C 628.79 134.86 631.24 142.96 638.19 145.93 C 646.54 149.40 656.75 147.26 663.51 141.38 C 667.01 138.52 668.39 133.64 672.42 131.34 C 677.73 128.54 684.68 134.18 683.20 139.97 C 681.84 144.97 677.82 148.68 673.85 151.74 C 669.33 155.03 664.97 158.77 659.60 160.62 C 650.60 163.83 640.36 164.02 631.42 160.50 C 621.38 156.44 614.87 146.40 612.91 136.03 C 610.84 123.84 611.77 110.92 616.43 99.41 C 620.68 88.70 629.94 79.74 641.51 77.63 M 645.09 79.08 C 635.08 80.06 625.86 86.18 621.00 94.97 C 614.38 106.02 613.20 119.50 614.35 132.09 C 615.40 141.93 620.24 151.92 629.02 157.01 C 637.52 161.88 648.06 161.94 657.28 159.25 C 663.24 157.55 668.04 153.49 672.93 149.87 C 676.27 147.17 679.72 144.10 681.11 139.90 C 682.61 135.60 677.27 130.99 673.29 133.22 C 670.17 135.13 668.89 138.82 666.45 141.40 C 659.26 148.85 647.53 151.67 637.81 148.05 C 631.32 145.54 627.85 138.71 626.87 132.17 C 625.76 124.46 626.17 116.49 628.01 108.92 C 629.99 100.89 635.61 93.11 643.99 91.08 C 650.30 89.71 657.35 89.86 663.15 92.97 C 666.27 94.61 667.10 98.25 668.80 101.05 C 670.70 104.73 677.36 104.04 678.37 99.98 C 679.79 94.76 677.15 89.27 673.06 86.03 C 665.43 79.52 654.76 78.16 645.09 79.08 Z" />
<path fill="#090503" opacity="0.93" d=" M 488.54 79.79 C 499.75 78.28 512.36 80.05 520.88 88.10 C 529.48 95.89 532.79 107.80 533.38 119.04 C 534.36 132.29 531.66 146.48 522.98 156.91 C 516.53 162.91 507.55 165.32 498.93 165.67 C 489.62 166.21 479.82 163.59 473.00 157.01 C 464.34 149.26 460.56 137.42 460.32 126.06 C 460.13 115.12 461.17 103.54 466.96 93.98 C 471.49 86.25 479.70 81.00 488.54 79.79 M 487.24 82.14 C 479.66 83.58 472.71 88.19 468.79 94.89 C 462.86 104.75 461.94 116.72 462.45 127.98 C 462.96 139.55 467.93 151.47 477.67 158.21 C 487.28 164.79 499.91 164.83 510.73 161.58 C 515.71 159.81 520.91 157.29 523.67 152.55 C 531.53 141.02 532.58 126.31 530.70 112.85 C 529.29 103.81 525.71 94.56 518.41 88.65 C 509.88 81.53 497.87 80.21 487.24 82.14 Z" />
<path fill="#090503" opacity="0.93" d=" M 581.54 81.76 C 590.07 80.54 599.53 82.88 605.35 89.53 C 608.26 92.76 609.56 97.62 607.79 101.72 C 606.08 105.63 600.66 106.89 597.07 104.96 C 594.19 102.89 592.98 98.96 589.50 97.63 C 585.81 96.13 580.42 96.57 578.45 100.53 C 576.53 104.46 576.91 109.23 578.59 113.17 C 581.69 118.12 586.72 121.31 591.60 124.31 C 598.47 129.00 602.62 137.67 601.23 145.97 C 600.38 155.16 593.21 163.18 584.30 165.34 C 573.55 168.05 559.90 165.02 554.60 154.39 C 552.83 150.61 552.41 146.07 553.88 142.12 C 555.87 136.46 565.07 135.77 567.92 141.03 C 569.31 143.52 568.56 147.15 571.27 148.81 C 575.15 152.14 582.53 151.06 584.18 145.86 C 585.62 142.82 583.72 139.57 581.33 137.68 C 575.54 132.84 568.89 128.67 564.81 122.13 C 559.69 114.43 559.04 104.16 562.61 95.71 C 565.88 88.14 573.34 82.65 581.54 81.76 M 579.33 84.26 C 573.53 85.56 568.32 89.40 565.44 94.60 C 561.69 101.52 561.44 110.21 564.56 117.41 C 567.23 123.63 572.51 128.16 577.75 132.20 C 580.48 134.42 583.65 136.33 585.52 139.41 C 588.20 143.57 585.97 149.63 581.59 151.64 C 576.89 154.07 570.81 152.34 567.76 148.12 C 566.69 145.54 567.17 142.02 564.58 140.29 C 561.48 138.55 556.52 139.66 555.54 143.41 C 553.98 149.10 556.22 155.54 560.91 159.11 C 568.93 165.39 581.05 165.92 589.75 160.73 C 598.90 155.36 602.18 142.38 596.95 133.22 C 594.13 127.64 588.41 124.80 583.46 121.46 C 580.53 118.39 576.44 115.78 575.72 111.27 C 574.69 106.81 574.78 101.58 577.76 97.84 C 581.25 94.16 587.35 93.97 591.61 96.39 C 594.42 97.87 595.67 100.98 597.90 103.09 C 599.69 104.29 602.15 103.84 604.02 102.99 C 606.48 101.72 606.83 98.52 606.41 96.06 C 605.74 92.24 602.75 89.38 599.63 87.35 C 593.73 83.39 586.14 82.78 579.33 84.26 Z" />
<path fill="#090503" opacity="0.93" d=" M 207.66 91.49 C 208.29 87.02 210.98 81.97 216.01 81.59 C 220.80 80.62 225.55 85.12 224.96 89.95 C 223.43 105.51 220.37 121.15 222.13 136.84 C 222.76 140.94 223.74 145.28 226.57 148.46 C 230.16 152.34 236.28 151.74 240.66 149.68 C 247.45 146.22 250.22 138.24 250.73 131.08 C 251.41 120.39 250.44 109.61 251.92 98.96 C 252.53 95.44 253.31 91.61 255.97 89.00 C 258.75 86.14 264.06 86.14 266.53 89.42 C 268.90 92.78 268.16 97.16 268.06 101.01 C 266.78 117.97 267.21 135.03 268.80 151.95 C 268.92 155.09 270.36 157.92 271.05 160.94 C 271.29 166.25 263.76 169.90 259.79 166.31 C 256.63 163.40 255.68 158.99 254.59 155.01 C 250.18 160.34 244.58 165.05 237.61 166.40 C 229.60 168.07 220.26 166.71 214.44 160.51 C 207.95 153.72 206.16 144.01 205.25 135.01 C 204.51 120.48 205.23 105.84 207.66 91.49 M 211.19 87.25 C 209.32 91.25 209.15 95.76 208.49 100.06 C 207.14 112.10 206.49 124.29 207.44 136.38 C 208.44 145.03 210.50 154.56 217.42 160.50 C 225.37 166.82 237.41 166.25 245.63 160.72 C 249.54 158.19 252.25 154.32 255.14 150.76 C 257.27 155.15 257.39 160.47 260.67 164.28 C 263.25 167.76 270.20 164.37 268.68 160.22 C 267.63 157.19 266.81 154.07 266.61 150.87 C 265.35 135.31 264.71 119.66 265.81 104.07 C 265.96 100.14 266.66 96.11 265.71 92.24 C 264.73 88.08 258.46 87.89 256.55 91.40 C 253.06 97.62 253.48 105.04 253.12 111.93 C 252.69 120.02 253.65 128.21 252.08 136.21 C 250.75 142.87 246.79 149.52 240.25 152.12 C 235.53 153.82 229.47 154.16 225.62 150.40 C 221.06 145.87 220.20 139.08 219.70 132.97 C 219.00 119.63 220.94 106.35 222.63 93.16 C 222.86 90.56 223.45 87.50 221.46 85.40 C 218.64 82.18 212.82 83.40 211.19 87.25 Z" />
<path fill="#090503" opacity="0.93" d=" M 165.32 84.23 C 168.62 81.88 173.85 82.36 176.08 85.97 C 178.38 89.18 176.94 93.22 175.71 96.54 C 182.29 97.13 189.59 97.60 194.85 102.07 C 198.63 105.23 199.01 111.91 194.77 114.85 C 191.71 117.25 187.89 115.22 184.74 114.15 C 180.32 112.35 175.60 111.44 170.84 111.36 C 169.24 119.75 168.04 128.53 170.04 136.95 C 170.99 140.79 173.13 144.98 177.14 146.28 C 182.19 148.19 186.87 143.13 191.93 144.75 C 196.86 145.98 197.74 152.72 195.42 156.54 C 192.47 160.86 186.81 162.01 181.94 162.46 C 172.45 163.39 161.87 159.59 157.23 150.79 C 151.20 139.51 151.20 125.98 153.40 113.67 C 148.60 114.52 143.46 116.20 138.69 114.38 C 134.25 112.72 133.43 106.04 137.16 103.22 C 142.77 98.65 150.39 98.24 157.26 97.30 C 159.11 92.54 160.98 87.29 165.32 84.23 M 167.43 85.39 C 162.49 88.19 160.76 94.05 158.88 99.03 C 152.25 100.21 145.00 100.33 139.21 104.17 C 136.07 105.88 135.96 111.27 139.53 112.52 C 144.93 114.27 150.46 111.81 155.83 111.08 C 154.92 117.20 153.82 123.34 154.18 129.56 C 154.52 137.91 155.98 146.89 161.62 153.43 C 167.58 160.13 177.51 161.57 185.93 159.84 C 189.26 159.01 193.23 157.60 194.36 153.99 C 195.06 151.21 194.35 147.08 190.96 146.58 C 186.34 146.04 182.11 149.88 177.42 148.48 C 171.80 147.23 168.73 141.54 167.73 136.30 C 166.07 127.46 167.34 118.41 169.02 109.67 C 176.74 108.33 183.86 112.04 191.10 113.93 C 195.97 113.98 197.25 106.94 193.98 104.04 C 188.44 98.84 180.28 99.30 173.26 98.31 C 172.39 95.97 175.20 93.52 175.22 90.99 C 176.17 86.75 171.14 83.28 167.43 85.39 Z" />
<path fill="#090503" opacity="0.93" d=" M 702.81 87.88 C 710.12 83.82 719.12 83.93 726.99 86.15 C 735.84 88.67 742.19 96.52 744.70 105.14 C 748.40 117.54 747.97 130.78 746.28 143.48 C 745.09 150.84 743.90 158.31 741.20 165.29 C 739.71 169.34 735.50 172.84 731.00 171.33 C 728.10 170.81 727.02 167.92 726.26 165.46 C 719.08 168.42 710.80 168.22 703.66 165.28 C 697.16 162.60 692.18 156.67 690.49 149.87 C 688.28 141.26 688.94 131.49 693.89 123.92 C 701.86 111.93 720.08 109.02 731.76 117.15 C 730.89 112.87 730.11 108.29 727.27 104.80 C 723.75 100.51 717.32 99.06 712.24 101.16 C 709.43 102.17 706.85 103.81 703.91 104.40 C 699.04 104.94 694.91 99.64 696.19 95.02 C 697.05 91.70 699.98 89.51 702.81 87.88 M 699.22 93.33 C 696.39 96.56 698.89 102.14 703.10 102.45 C 707.27 101.78 710.70 98.80 714.94 98.32 C 720.18 97.52 725.85 99.53 729.07 103.83 C 732.76 108.80 733.91 115.24 733.77 121.32 C 731.96 121.01 730.80 119.51 729.44 118.45 C 725.53 115.08 720.05 114.48 715.09 114.71 C 708.31 114.93 701.53 117.82 697.13 123.05 C 691.77 129.24 690.64 138.03 691.72 145.89 C 692.64 153.14 697.02 160.20 703.88 163.14 C 711.37 166.31 720.58 166.77 727.59 162.16 C 728.66 164.78 728.39 169.08 732.00 169.49 C 736.25 170.49 738.94 166.23 740.01 162.77 C 743.67 150.55 745.59 137.77 745.46 125.01 C 745.16 115.25 744.11 104.82 738.29 96.63 C 734.15 90.68 727.07 87.32 719.93 86.90 C 712.61 86.05 704.30 87.62 699.22 93.33 Z" />
<path fill="#090503" opacity="0.93" d=" M 758.06 95.99 C 756.92 89.99 764.71 84.97 769.79 88.22 C 774.14 90.99 775.80 96.25 777.28 100.91 C 782.04 91.36 794.90 88.25 804.09 92.94 C 807.74 94.85 810.66 98.69 810.34 102.97 C 810.33 106.50 807.70 110.19 803.98 110.34 C 800.15 110.57 797.58 106.93 794.01 106.26 C 788.56 106.24 785.03 111.58 784.22 116.46 C 783.12 123.53 784.05 130.72 783.36 137.83 C 782.72 144.65 781.85 151.95 777.63 157.60 C 774.72 161.77 767.23 161.57 765.07 156.79 C 763.44 153.44 764.78 149.76 765.51 146.38 C 768.56 134.66 768.07 122.09 764.60 110.53 C 763.15 105.36 759.41 101.18 758.06 95.99 M 760.01 94.96 C 760.37 97.76 762.05 100.15 763.32 102.61 C 765.90 107.10 767.49 112.09 768.40 117.18 C 769.90 126.40 770.20 135.95 767.91 145.07 C 767.31 148.60 765.57 152.24 766.80 155.81 C 768.39 159.46 774.17 159.40 776.20 156.15 C 780.02 150.57 780.75 143.56 781.36 137.00 C 782.08 129.50 780.78 121.83 782.60 114.45 C 783.87 109.56 787.67 104.74 793.01 104.27 C 796.88 103.91 799.57 107.34 803.06 108.34 C 806.02 108.61 808.35 105.76 808.32 102.94 C 808.57 98.50 804.78 95.00 800.83 93.75 C 795.51 92.17 789.35 92.67 784.62 95.70 C 781.01 97.96 779.29 101.98 776.84 105.26 C 774.31 100.39 773.99 94.16 769.51 90.46 C 766.08 87.45 759.91 90.51 760.01 94.96 Z" />
<path fill="#090503" opacity="0.93" d=" M 118.40 88.45 C 122.99 86.60 128.78 89.74 128.83 94.91 C 129.27 111.60 128.69 128.36 127.09 144.98 C 126.30 150.86 126.12 157.38 122.16 162.17 C 118.95 166.40 111.01 165.09 109.56 159.97 C 110.04 156.64 109.96 153.28 110.18 149.93 C 113.30 133.79 112.08 117.29 112.27 100.97 C 112.46 96.30 113.40 90.30 118.40 88.45 M 119.25 90.32 C 115.01 91.83 114.63 97.10 114.34 100.94 C 114.12 115.96 115.22 131.11 112.85 146.03 C 111.97 150.63 112.14 155.34 111.70 159.99 C 113.37 163.09 118.52 163.75 120.66 160.78 C 123.20 157.70 123.89 153.65 124.43 149.82 C 126.67 133.64 126.71 117.28 127.02 100.98 C 126.96 98.27 127.20 95.43 126.24 92.84 C 125.18 90.15 121.74 89.61 119.25 90.32 Z" />
<path fill="#090503" opacity="0.93" d=" M 715.49 125.55 C 720.17 124.97 725.57 125.41 729.10 128.92 C 732.93 132.87 733.32 138.89 732.58 144.07 C 731.85 149.10 728.00 153.56 722.97 154.60 C 716.30 156.15 707.45 154.42 704.71 147.34 C 702.73 141.68 702.74 134.56 706.75 129.77 C 708.93 127.22 712.24 126.01 715.49 125.55 M 712.30 128.39 C 708.63 129.64 706.13 133.22 705.74 137.02 C 705.00 142.07 705.70 148.51 710.64 151.24 C 715.35 153.58 721.45 153.90 726.03 151.08 C 730.00 148.51 731.09 143.36 730.81 138.94 C 730.63 135.01 729.24 130.54 725.43 128.72 C 721.32 126.91 716.52 127.07 712.30 128.39 Z" />
</g>
<g id="#660066ff">
<path fill="#660066" opacity="1.00" d=" M 13.53 82.63 C 21.71 71.50 35.53 65.68 49.03 64.61 C 58.44 64.03 68.16 64.55 77.04 67.98 C 84.55 71.01 91.76 75.96 95.50 83.36 C 99.92 91.88 99.67 102.02 97.42 111.13 C 94.89 121.25 87.31 130.33 77.19 133.43 C 70.34 135.42 62.85 135.37 56.09 133.03 C 52.81 131.96 50.21 129.60 47.37 127.73 C 46.47 143.14 46.02 158.79 41.75 173.72 C 40.96 177.76 35.45 179.03 32.62 176.33 C 30.83 174.39 31.20 171.53 31.50 169.13 C 33.48 158.18 32.84 146.99 34.07 135.96 C 35.08 121.66 34.65 107.30 34.39 92.98 C 34.23 89.05 34.27 85.08 33.61 81.19 C 27.84 82.97 25.16 90.12 19.14 91.78 C 14.56 92.41 10.30 86.46 13.53 82.63 M 46.44 77.70 C 47.09 87.11 47.51 96.55 47.62 105.99 C 47.71 111.18 47.20 116.37 47.74 121.55 C 49.43 120.50 50.99 119.04 53.03 118.70 C 57.85 119.52 62.09 122.59 67.10 122.63 C 73.03 123.06 78.67 119.70 81.93 114.89 C 88.10 105.65 88.01 91.37 79.09 83.86 C 70.21 76.16 57.47 75.74 46.44 77.70 Z" />
<path fill="#660066" opacity="1.00" d=" M 118.33 66.31 C 121.92 64.84 126.68 65.88 128.49 69.55 C 130.48 73.63 129.79 80.32 124.86 81.92 C 120.89 83.44 115.78 82.15 113.82 78.16 C 111.52 73.86 113.80 68.04 118.33 66.31 Z" />
<path fill="#660066" opacity="1.00" d=" M 211.19 87.25 C 212.82 83.40 218.64 82.18 221.46 85.40 C 223.45 87.50 222.86 90.56 222.63 93.16 C 220.94 106.35 219.00 119.63 219.70 132.97 C 220.20 139.08 221.06 145.87 225.62 150.40 C 229.47 154.16 235.53 153.82 240.25 152.12 C 246.79 149.52 250.75 142.87 252.08 136.21 C 253.65 128.21 252.69 120.02 253.12 111.93 C 253.48 105.04 253.06 97.62 256.55 91.40 C 258.46 87.89 264.73 88.08 265.71 92.24 C 266.66 96.11 265.96 100.14 265.81 104.07 C 264.71 119.66 265.35 135.31 266.61 150.87 C 266.81 154.07 267.63 157.19 268.68 160.22 C 270.20 164.37 263.25 167.76 260.67 164.28 C 257.39 160.47 257.27 155.15 255.14 150.76 C 252.25 154.32 249.54 158.19 245.63 160.72 C 237.41 166.25 225.37 166.82 217.42 160.50 C 210.50 154.56 208.44 145.03 207.44 136.38 C 206.49 124.29 207.14 112.10 208.49 100.06 C 209.15 95.76 209.32 91.25 211.19 87.25 Z" />
<path fill="#660066" opacity="1.00" d=" M 167.43 85.39 C 171.14 83.28 176.17 86.75 175.22 90.99 C 175.20 93.52 172.39 95.97 173.26 98.31 C 180.28 99.30 188.44 98.84 193.98 104.04 C 197.25 106.94 195.97 113.98 191.10 113.93 C 183.86 112.04 176.74 108.33 169.02 109.67 C 167.34 118.41 166.07 127.46 167.73 136.30 C 168.73 141.54 171.80 147.23 177.42 148.48 C 182.11 149.88 186.34 146.04 190.96 146.58 C 194.35 147.08 195.06 151.21 194.36 153.99 C 193.23 157.60 189.26 159.01 185.93 159.84 C 177.51 161.57 167.58 160.13 161.62 153.43 C 155.98 146.89 154.52 137.91 154.18 129.56 C 153.82 123.34 154.92 117.20 155.83 111.08 C 150.46 111.81 144.93 114.27 139.53 112.52 C 135.96 111.27 136.07 105.88 139.21 104.17 C 145.00 100.33 152.25 100.21 158.88 99.03 C 160.76 94.05 162.49 88.19 167.43 85.39 Z" />
<path fill="#660066" opacity="1.00" d=" M 119.25 90.32 C 121.74 89.61 125.18 90.15 126.24 92.84 C 127.20 95.43 126.96 98.27 127.02 100.98 C 126.71 117.28 126.67 133.64 124.43 149.82 C 123.89 153.65 123.20 157.70 120.66 160.78 C 118.52 163.75 113.37 163.09 111.70 159.99 C 112.14 155.34 111.97 150.63 112.85 146.03 C 115.22 131.11 114.12 115.96 114.34 100.94 C 114.63 97.10 115.01 91.83 119.25 90.32 Z" />
</g>
<g id="#ffc000ff">
<path fill="#ffc000" opacity="1.00" d=" M 488.14 67.13 C 502.37 65.62 517.92 68.18 529.00 77.83 C 539.85 87.01 545.23 101.17 546.32 115.07 C 547.86 131.20 545.70 149.03 534.72 161.70 C 526.14 172.05 512.72 177.29 499.51 177.82 C 487.48 178.86 474.84 175.49 465.79 167.27 C 459.51 161.40 453.28 154.93 450.45 146.61 C 445.59 132.91 446.34 117.81 449.41 103.80 C 452.33 92.86 457.81 81.99 467.10 75.12 C 473.20 70.57 480.61 68.00 488.14 67.13 M 488.54 79.79 C 479.70 81.00 471.49 86.25 466.96 93.98 C 461.17 103.54 460.13 115.12 460.32 126.06 C 460.56 137.42 464.34 149.26 473.00 157.01 C 479.82 163.59 489.62 166.21 498.93 165.67 C 507.55 165.32 516.53 162.91 522.98 156.91 C 531.66 146.48 534.36 132.29 533.38 119.04 C 532.79 107.80 529.48 95.89 520.88 88.10 C 512.36 80.05 499.75 78.28 488.54 79.79 Z" />
<path fill="#ffc000" opacity="1.00" d=" M 645.09 79.08 C 654.76 78.16 665.43 79.52 673.06 86.03 C 677.15 89.27 679.79 94.76 678.37 99.98 C 677.36 104.04 670.70 104.73 668.80 101.05 C 667.10 98.25 666.27 94.61 663.15 92.97 C 657.35 89.86 650.30 89.71 643.99 91.08 C 635.61 93.11 629.99 100.89 628.01 108.92 C 626.17 116.49 625.76 124.46 626.87 132.17 C 627.85 138.71 631.32 145.54 637.81 148.05 C 647.53 151.67 659.26 148.85 666.45 141.40 C 668.89 138.82 670.17 135.13 673.29 133.22 C 677.27 130.99 682.61 135.60 681.11 139.90 C 679.72 144.10 676.27 147.17 672.93 149.87 C 668.04 153.49 663.24 157.55 657.28 159.25 C 648.06 161.94 637.52 161.88 629.02 157.01 C 620.24 151.92 615.40 141.93 614.35 132.09 C 613.20 119.50 614.38 106.02 621.00 94.97 C 625.86 86.18 635.08 80.06 645.09 79.08 Z" />
<path fill="#ffc000" opacity="1.00" d=" M 579.33 84.26 C 586.14 82.78 593.73 83.39 599.63 87.35 C 602.75 89.38 605.74 92.24 606.41 96.06 C 606.83 98.52 606.48 101.72 604.02 102.99 C 602.15 103.84 599.69 104.29 597.90 103.09 C 595.67 100.98 594.42 97.87 591.61 96.39 C 587.35 93.97 581.25 94.16 577.76 97.84 C 574.78 101.58 574.69 106.81 575.72 111.27 C 576.44 115.78 580.53 118.39 583.46 121.46 C 588.41 124.80 594.13 127.64 596.95 133.22 C 602.18 142.38 598.90 155.36 589.75 160.73 C 581.05 165.92 568.93 165.39 560.91 159.11 C 556.22 155.54 553.98 149.10 555.54 143.41 C 556.52 139.66 561.48 138.55 564.58 140.29 C 567.17 142.02 566.69 145.54 567.76 148.12 C 570.81 152.34 576.89 154.07 581.59 151.64 C 585.97 149.63 588.20 143.57 585.52 139.41 C 583.65 136.33 580.48 134.42 577.75 132.20 C 572.51 128.16 567.23 123.63 564.56 117.41 C 561.44 110.21 561.69 101.52 565.44 94.60 C 568.32 89.40 573.53 85.56 579.33 84.26 Z" />
<path fill="#ffc000" opacity="1.00" d=" M 699.22 93.33 C 704.30 87.62 712.61 86.05 719.93 86.90 C 727.07 87.32 734.15 90.68 738.29 96.63 C 744.11 104.82 745.16 115.25 745.46 125.01 C 745.59 137.77 743.67 150.55 740.01 162.77 C 738.94 166.23 736.25 170.49 732.00 169.49 C 728.39 169.08 728.66 164.78 727.59 162.16 C 720.58 166.77 711.37 166.31 703.88 163.14 C 697.02 160.20 692.64 153.14 691.72 145.89 C 690.64 138.03 691.77 129.24 697.13 123.05 C 701.53 117.82 708.31 114.93 715.09 114.71 C 720.05 114.48 725.53 115.08 729.44 118.45 C 730.80 119.51 731.96 121.01 733.77 121.32 C 733.91 115.24 732.76 108.80 729.07 103.83 C 725.85 99.53 720.18 97.52 714.94 98.32 C 710.70 98.80 707.27 101.78 703.10 102.45 C 698.89 102.14 696.39 96.56 699.22 93.33 M 715.49 125.55 C 712.24 126.01 708.93 127.22 706.75 129.77 C 702.74 134.56 702.73 141.68 704.71 147.34 C 707.45 154.42 716.30 156.15 722.97 154.60 C 728.00 153.56 731.85 149.10 732.58 144.07 C 733.32 138.89 732.93 132.87 729.10 128.92 C 725.57 125.41 720.17 124.97 715.49 125.55 Z" />
<path fill="#ffc000" opacity="1.00" d=" M 760.01 94.96 C 759.91 90.51 766.08 87.45 769.51 90.46 C 773.99 94.16 774.31 100.39 776.84 105.26 C 779.29 101.98 781.01 97.96 784.62 95.70 C 789.35 92.67 795.51 92.17 800.83 93.75 C 804.78 95.00 808.57 98.50 808.32 102.94 C 808.35 105.76 806.02 108.61 803.06 108.34 C 799.57 107.34 796.88 103.91 793.01 104.27 C 787.67 104.74 783.87 109.56 782.60 114.45 C 780.78 121.83 782.08 129.50 781.36 137.00 C 780.75 143.56 780.02 150.57 776.20 156.15 C 774.17 159.40 768.39 159.46 766.80 155.81 C 765.57 152.24 767.31 148.60 767.91 145.07 C 770.20 135.95 769.90 126.40 768.40 117.18 C 767.49 112.09 765.90 107.10 763.32 102.61 C 762.05 100.15 760.37 97.76 760.01 94.96 Z" />
</g>
</svg>
