<svg width="3667" height="664" xmlns="http://www.w3.org/2000/svg" xmlns:xlink="http://www.w3.org/1999/xlink" xml:space="preserve" overflow="hidden"><defs><clipPath id="clip0"><rect x="398" y="1415" width="3667" height="664"/></clipPath><linearGradient x1="995" y1="2038" x2="995" y2="1519" gradientUnits="userSpaceOnUse" spreadMethod="reflect" id="fill1"><stop offset="0" stop-color="#660066"/><stop offset="0.56" stop-color="#660066"/><stop offset="0.73" stop-color="#7030A0"/><stop offset="1" stop-color="#FF15FF"/></linearGradient><linearGradient x1="995" y1="2038" x2="995" y2="1519" gradientUnits="userSpaceOnUse" spreadMethod="reflect" id="fill2"><stop offset="0" stop-color="#660066"/><stop offset="0.56" stop-color="#660066"/><stop offset="0.73" stop-color="#7030A0"/><stop offset="1" stop-color="#FF15FF"/></linearGradient><linearGradient x1="995" y1="2038" x2="995" y2="1519" gradientUnits="userSpaceOnUse" spreadMethod="reflect" id="fill3"><stop offset="0" stop-color="#660066"/><stop offset="0.56" stop-color="#660066"/><stop offset="0.73" stop-color="#7030A0"/><stop offset="1" stop-color="#FF15FF"/></linearGradient><linearGradient x1="995" y1="2038" x2="995" y2="1519" gradientUnits="userSpaceOnUse" spreadMethod="reflect" id="fill4"><stop offset="0" stop-color="#660066"/><stop offset="0.56" stop-color="#660066"/><stop offset="0.73" stop-color="#7030A0"/><stop offset="1" stop-color="#FF15FF"/></linearGradient><linearGradient x1="995" y1="2038" x2="995" y2="1519" gradientUnits="userSpaceOnUse" spreadMethod="reflect" id="fill5"><stop offset="0" stop-color="#660066"/><stop offset="0.56" stop-color="#660066"/><stop offset="0.73" stop-color="#7030A0"/><stop offset="1" stop-color="#FF15FF"/></linearGradient><linearGradient x1="3227" y1="2039" x2="3227" y2="1529" gradientUnits="userSpaceOnUse" spreadMethod="reflect" id="fill6"><stop offset="0" stop-color="#AB8100"/><stop offset="0.48" stop-color="#FFC208"/><stop offset="1" stop-color="#FFD966"/></linearGradient><linearGradient x1="3227" y1="2039" x2="3227" y2="1529" gradientUnits="userSpaceOnUse" spreadMethod="reflect" id="fill7"><stop offset="0" stop-color="#AB8100"/><stop offset="0.48" stop-color="#FFC208"/><stop offset="1" stop-color="#FFD966"/></linearGradient><linearGradient x1="3227" y1="2039" x2="3227" y2="1529" gradientUnits="userSpaceOnUse" spreadMethod="reflect" id="fill8"><stop offset="0" stop-color="#AB8100"/><stop offset="0.48" stop-color="#FFC208"/><stop offset="1" stop-color="#FFD966"/></linearGradient><linearGradient x1="3227" y1="2039" x2="3227" y2="1529" gradientUnits="userSpaceOnUse" spreadMethod="reflect" id="fill9"><stop offset="0" stop-color="#AB8100"/><stop offset="0.48" stop-color="#FFC208"/><stop offset="1" stop-color="#FFD966"/></linearGradient><linearGradient x1="3227" y1="2039" x2="3227" y2="1529" gradientUnits="userSpaceOnUse" spreadMethod="reflect" id="fill10"><stop offset="0" stop-color="#AB8100"/><stop offset="0.48" stop-color="#FFC208"/><stop offset="1" stop-color="#FFD966"/></linearGradient></defs><g clip-path="url(#clip0)" transform="translate(-398 -1415)"><path d="M1855.06 1435.46C1906.53 1414.06 1963.68 1412.59 2018.49 1417.03 2068.54 1421.83 2120.79 1437.88 2154.98 1476.75 2198.43 1521.15 2204.53 1594.77 2171.53 1646.9 2152.01 1683.57 2117.4 1707.98 2083.81 1730.66 2098.66 1744.98 2113.96 1758.79 2130.01 1771.82 2135.87 1756.82 2139.26 1732.22 2160.35 1732.95 2203.57 1739.99 2246.05 1751.56 2289 1760.39 2301.88 1762.12 2315.63 1772.37 2312.74 1786.86 2305.5 1821.66 2291.24 1854.67 2274.52 1885.95 2297.43 1902 2320.49 1917.91 2344.73 1931.95 2354.72 1937.03 2361.37 1948.27 2358.21 1959.52 2353.76 1970.13 2345.19 1978.13 2337.9 1986.73 2313.34 2014.17 2289.64 2042.38 2265.03 2069.72 2258.29 2078.14 2246.01 2081.75 2236.29 2076.35 2205.81 2060.99 2177.81 2041.28 2148.66 2023.68 2071.89 2071.51 1978.39 2082.76 1889.66 2078 1825.13 2074.11 1756.61 2055.46 1712.42 2005.43 1680.39 1971.64 1662.19 1924.63 1665.35 1878.04 1667.23 1824.08 1696.93 1773.78 1738.64 1740.54 1756.84 1725.32 1777.69 1713.75 1798.59 1702.73 1768.25 1663.17 1749.55 1612.83 1756.38 1562.67 1761.88 1506.01 1802.94 1456.63 1855.06 1435.46M1863.67 1481.6C1831.04 1498.29 1805.6 1530.16 1801.84 1567.19 1795.93 1607.71 1812.98 1647.72 1838.05 1678.81 1846.07 1690.43 1860.19 1701.58 1856.48 1717.36 1854.05 1729.11 1841.81 1733.82 1832.19 1738.3 1796.66 1753.12 1762.47 1774.15 1738.92 1805.11 1719.02 1830.99 1708.53 1864 1711.14 1896.65 1715.54 1965.15 1778.61 2015.4 1843.19 2025.73 1894.43 2036.02 1947.41 2035.25 1999.06 2028.2 2037.74 2022.99 2076.06 2012.15 2110.16 1992.81 2121.02 1987 2130.92 1979.41 2142.43 1974.8 2152.37 1971.5 2161.45 1978.13 2169.7 1982.75 2193.53 1997.52 2217.18 2012.52 2240.97 2027.38 2261.68 2005.3 2280.89 1981.88 2301.01 1959.25 2277.04 1942.88 2252.42 1927.33 2229.28 1909.87 2218.74 1901.59 2220.3 1886.36 2227.12 1876.3 2241.2 1852.52 2253.16 1827.51 2261.45 1801.13 2232.76 1794.64 2203.98 1788.42 2175.29 1781.92 2168.55 1796.65 2164.06 1812.93 2153.61 1825.55 2141.46 1836.57 2124.28 1828.93 2114.56 1818.6 2085.55 1794.5 2057.09 1769.62 2030.73 1742.65 2021.38 1733.82 2023.08 1717.18 2033.39 1709.86 2067.63 1683.8 2109.7 1664.18 2131.43 1625.13 2152.69 1591.75 2152.65 1545.11 2127.12 1514.02 2100.72 1479.17 2055.76 1466.14 2014 1462.48 1963.54 1458.73 1910.1 1459.14 1863.67 1481.6Z" fill="#0070C0" fill-rule="evenodd"/><path d="M1960.99 1506.68C1984.26 1502.52 2009.88 1505.86 2029.71 1519.34 2055 1534.06 2065.14 1567.75 2055.27 1594.68 2044.26 1625.17 2018.05 1647.07 1991.24 1663.8 1980.64 1670.98 1965.12 1678.34 1954.15 1667.55 1930.74 1643.09 1906.04 1615.34 1901.32 1580.6 1897.6 1545.12 1927.34 1513.44 1960.99 1506.68M1946.53 1576.53C1950.29 1593.95 1962.96 1607.57 1973.43 1621.42 1988.99 1609.35 2007.17 1596.74 2012.81 1576.85 2016.94 1561.4 2000.1 1551.2 1986.69 1550.84 1969.62 1547.41 1947.26 1557.19 1946.53 1576.53Z" fill="#0070C0" fill-rule="evenodd"/><path d="M1900.94 1774.89C1911.53 1769.64 1922.7 1776.22 1930.12 1783.62 1970.48 1821.13 2010.84 1858.78 2054.45 1892.55 2068.65 1900.54 2074.01 1922.52 2059.07 1932.62 2016.01 1962.13 1961.09 1980.96 1908.91 1967.66 1863.93 1956.28 1824.12 1912.56 1830.72 1864.31 1834.8 1823.83 1867.87 1794.4 1900.94 1774.89M1875.47 1873.77C1876.21 1899.12 1899.02 1919 1922.7 1924.07 1950.46 1930.93 1979 1922.75 2004.42 1911.46 1971.35 1883.59 1939.19 1854.62 1907.49 1825.15 1892.47 1837.58 1875.29 1852.52 1875.47 1873.77Z" fill="#0070C0" fill-rule="evenodd"/><path d="M1863.86 1480.94C1910.27 1458.44 1963.68 1458.02 2014.12 1461.78 2055.86 1465.45 2100.8 1478.51 2127.19 1513.43 2152.71 1544.58 2152.75 1591.32 2131.49 1624.78 2109.78 1663.91 2067.72 1683.57 2033.5 1709.69 2023.19 1717.02 2021.5 1733.7 2030.84 1742.54 2057.19 1769.58 2085.64 1794.51 2114.64 1818.65 2124.35 1829.01 2141.53 1836.66 2153.67 1825.62 2164.11 1812.97 2168.6 1796.66 2175.34 1781.9 2204.02 1788.41 2232.79 1794.64 2261.46 1801.15 2253.17 1827.59 2241.21 1852.66 2227.15 1876.48 2220.32 1886.57 2218.77 1901.82 2229.3 1910.12 2252.44 1927.62 2277.04 1943.2 2301 1959.61 2280.89 1982.29 2261.69 2005.75 2240.99 2027.88 2217.21 2012.99 2193.57 1997.96 2169.75 1983.16 2161.5 1978.53 2152.43 1971.89 2142.49 1975.19 2130.99 1979.82 2121.09 1987.42 2110.24 1993.24 2076.15 2012.63 2037.85 2023.49 1999.19 2028.71 1947.56 2035.77 1894.6 2036.54 1843.38 2026.23 1778.83 2015.88 1715.79 1965.52 1711.39 1896.88 1708.78 1864.16 1719.27 1831.07 1739.16 1805.14 1762.7 1774.11 1796.88 1753.04 1832.38 1738.19 1842.01 1733.7 1854.24 1728.98 1856.67 1717.2 1860.38 1701.39 1846.27 1690.21 1838.25 1678.57 1813.19 1647.41 1796.15 1607.32 1802.06 1566.72 1805.81 1529.6 1831.24 1497.66 1863.86 1480.94M1961.07 1505.86C1927.49 1512.65 1897.81 1544.4 1901.52 1579.96 1906.23 1614.79 1930.88 1642.6 1954.25 1667.12 1965.19 1677.93 1980.68 1670.55 1991.26 1663.36 2018.02 1646.59 2044.18 1624.64 2055.17 1594.07 2065.02 1567.08 2054.9 1533.31 2029.65 1518.56 2009.86 1505.04 1984.3 1501.69 1961.07 1505.86M1900.97 1774.76C1867.89 1794.32 1834.81 1823.83 1830.74 1864.43 1824.14 1912.82 1863.95 1956.67 1908.94 1968.08 1961.12 1981.42 2016.05 1962.54 2059.11 1932.94 2074.05 1922.81 2068.69 1900.77 2054.48 1892.75 2010.87 1858.89 1970.51 1821.13 1930.15 1783.51 1922.73 1776.08 1911.55 1769.49 1900.97 1774.76Z" fill="#FFFF00" fill-rule="evenodd"/><path d="M404.248 1597.54C443.228 1543.21 510.162 1514.95 575.357 1509.96 634.01 1506.11 696.735 1512.94 746.375 1547.06 781.649 1569.28 805.851 1607.66 811.295 1648.98 814.955 1678.66 812.714 1709.17 804.661 1737.98 792.263 1781.5 761.884 1821.07 719.564 1838.76 673.31 1857.49 617.768 1854.47 575.357 1827.26 573.893 1887.58 568.037 1947.96 555.227 2007 552.436 2018.86 549.279 2031.97 539.122 2039.84 523.75 2052.35 495.796 2048.27 487.79 2029.13 480.058 2011.26 487.241 1992.02 489.071 1973.75 493.737 1928.26 492.868 1882.41 497.901 1836.92 501.652 1761.21 500.325 1685.26 496.848 1609.54 479.829 1623.83 465.783 1643.03 444.829 1651.82 415.503 1661.76 384.438 1623.28 404.248 1597.54M412.666 1601.94C397.889 1619.48 417.379 1646.74 438.333 1643.85 465.875 1636.25 478.136 1603.5 504.534 1595.34 507.554 1613.16 507.371 1631.35 508.103 1649.35 509.293 1714.94 511.26 1780.72 506.639 1846.22 501.012 1896.75 503.94 1948 494.881 1998.16 493.508 2009.15 491.816 2022.25 500.005 2031.14 512.953 2043.51 538.161 2037.69 541.776 2019.19 561.312 1950.8 563.37 1879.11 567.488 1808.52 580.481 1817.09 592.376 1827.9 607.383 1832.8 638.311 1843.52 672.578 1843.75 703.918 1834.63 750.218 1820.43 784.897 1778.84 796.472 1732.49 806.766 1690.76 807.91 1644.31 787.688 1605.28 770.577 1571.39 737.59 1548.71 703.231 1534.83 662.604 1519.12 618.134 1516.74 575.083 1519.4 513.319 1524.3 450.091 1550.96 412.666 1601.94Z" fill="#090503" fill-rule="evenodd" fill-opacity="0.929412"/><path d="M889.02 1518.7C909.652 1510.02 936.784 1516.72 947.191 1537.75 956.916 1557.58 954.826 1585.45 937.92 1600.74 916.106 1617.82 879.249 1613.55 865.343 1588.12 850.437 1563.74 863.207 1529.3 889.02 1518.7M892.838 1527.19C872.251 1535.13 861.889 1561.85 872.341 1581.6 881.249 1599.91 904.472 1605.84 922.514 1598.86 944.918 1591.51 948.054 1560.8 939.01 1542.06 930.785 1525.22 909.153 1520.44 892.838 1527.19Z" fill="#090503" fill-rule="evenodd" fill-opacity="0.929412"/><path d="M2571.03 1524.17C2639.96 1513.32 2716.09 1522.43 2772.7 1566.1 2828.48 1608.41 2857.49 1677.63 2863.45 1745.94 2872.35 1827.57 2859.56 1919.5 2799.42 1980.34 2747.86 2034.68 2668.7 2052.91 2596.05 2046.91 2546.18 2042.65 2498.74 2019.07 2464.41 1982.86 2448.14 1965.28 2430.77 1948.06 2419.36 1926.73 2393.32 1880.26 2387.46 1825.37 2390.89 1772.99 2393.09 1716.31 2406.84 1658.63 2438.7 1611.02 2467.39 1564.55 2517.54 1533.28 2571.03 1524.17M2587.89 1531.22C2553.38 1535.2 2519.41 1546.97 2491.46 1567.8 2448.87 1599.25 2423.76 1649.02 2410.37 1699.1 2396.3 1763.24 2392.86 1832.37 2415.14 1895.09 2428.11 1933.19 2456.67 1962.81 2485.45 1989.68 2526.93 2027.31 2584.87 2042.74 2640.01 2037.98 2700.56 2035.55 2762.07 2011.56 2801.39 1964.18 2851.72 1906.17 2861.62 1824.54 2854.56 1750.7 2849.57 1687.06 2824.91 1622.23 2775.17 1580.2 2724.39 1536.02 2653.12 1524.3 2587.89 1531.22Z" fill="#090503" fill-rule="evenodd" fill-opacity="0.929412"/><path d="M563 1579.53C613.738 1570.57 672.343 1572.49 713.191 1607.67 754.223 1641.99 754.637 1707.24 726.255 1749.46 711.259 1771.44 685.315 1786.8 658.037 1784.83 634.99 1784.65 615.486 1770.62 593.314 1766.87 583.93 1768.43 576.754 1775.1 568.98 1779.9 566.496 1756.23 568.842 1732.51 568.428 1708.8 567.922 1665.66 565.99 1622.53 563 1579.53M573.442 1586.47C575.834 1644.46 579.836 1702.54 576.892 1760.61 602.238 1751.25 624.272 1770.48 648.515 1774.14 674.689 1779.76 702.933 1767.51 717.515 1745.4 745.253 1705.78 744.563 1642.72 703.623 1611.97 667.375 1582.54 617.694 1582.36 573.442 1586.47Z" fill="#090503" fill-rule="evenodd" fill-opacity="0.929412"/><path d="M3290.92 1578.99C3329.94 1571.63 3371.8 1574.05 3408.62 1589.65 3435.21 1601.5 3460.75 1622 3468.87 1651.01 3472.35 1666.43 3472.86 1685.38 3460.84 1697.41 3449.56 1707.06 3432.09 1708.9 3418.89 1702.26 3400.55 1690.82 3401.74 1662.22 3380.05 1654.31 3341.22 1639.76 3289.31 1642.55 3261.71 1677.09 3232.18 1713.88 3228.88 1763.85 3230.99 1809.1 3232.59 1840.86 3243.83 1877.92 3275.69 1891.51 3313.98 1907.39 3360.8 1897.6 3391.79 1870.69 3407.84 1857.6 3414.17 1835.28 3432.64 1824.75 3456.99 1811.94 3488.86 1837.75 3482.07 1864.24 3475.84 1887.12 3457.4 1904.09 3439.2 1918.09 3418.48 1933.15 3398.49 1950.26 3373.86 1958.73 3332.6 1973.41 3285.64 1974.28 3244.65 1958.18 3198.62 1939.6 3168.77 1893.66 3159.78 1846.21 3150.29 1790.43 3154.56 1731.32 3175.92 1678.65 3195.41 1629.64 3237.87 1588.65 3290.92 1578.99M3307.33 1585.63C3261.44 1590.11 3219.16 1618.11 3196.88 1658.33 3166.52 1708.9 3161.11 1770.58 3166.39 1828.18 3171.2 1873.21 3193.39 1918.92 3233.65 1942.21 3272.62 1964.49 3320.95 1964.77 3363.23 1952.46 3390.55 1944.68 3412.56 1926.1 3434.98 1909.54 3450.3 1897.18 3466.12 1883.14 3472.49 1863.92 3479.37 1844.24 3454.88 1823.15 3436.63 1833.35 3422.33 1842.09 3416.46 1858.98 3405.27 1870.78 3372.3 1904.87 3318.52 1917.77 3273.95 1901.21 3244.19 1889.73 3228.28 1858.47 3223.79 1828.55 3218.7 1793.27 3220.58 1756.8 3229.02 1722.16 3238.1 1685.42 3263.87 1649.82 3302.29 1640.53 3331.22 1634.27 3363.55 1634.95 3390.14 1649.18 3404.45 1656.69 3408.25 1673.34 3416.05 1686.15 3424.76 1702.99 3455.3 1699.84 3459.93 1681.26 3466.44 1657.37 3454.33 1632.25 3435.58 1617.43 3400.59 1587.64 3351.67 1581.42 3307.33 1585.63Z" fill="#090503" fill-rule="evenodd" fill-opacity="0.929412"/><path d="M2589.5 1589.24C2640.91 1582.34 2698.73 1590.43 2737.8 1627.21 2777.24 1662.81 2792.42 1717.24 2795.13 1768.6 2799.62 1829.15 2787.24 1893.99 2747.43 1941.66 2717.86 1969.07 2676.68 1980.09 2637.15 1981.69 2594.46 1984.15 2549.52 1972.18 2518.24 1942.11 2478.53 1906.7 2461.19 1852.59 2460.09 1800.68 2459.22 1750.69 2463.99 1697.77 2490.54 1654.08 2511.32 1618.76 2548.97 1594.77 2589.5 1589.24M2583.54 1599.98C2548.78 1606.56 2516.91 1627.62 2498.94 1658.24 2471.74 1703.3 2467.52 1758 2469.86 1809.45 2472.2 1862.32 2494.99 1916.8 2539.66 1947.6 2583.73 1977.66 2641.64 1977.85 2691.26 1963 2714.1 1954.91 2737.94 1943.39 2750.6 1921.73 2786.64 1869.04 2791.46 1801.82 2782.84 1740.31 2776.37 1699 2759.95 1656.73 2726.48 1629.73 2687.36 1597.19 2632.29 1591.16 2583.54 1599.98Z" fill="#090503" fill-rule="evenodd" fill-opacity="0.929412"/><path d="M3015.93 1598.42C3055.05 1592.84 3098.43 1603.54 3125.12 1633.96 3138.47 1648.73 3144.43 1670.96 3136.31 1689.72 3128.47 1707.6 3103.61 1713.36 3087.15 1704.54 3073.94 1695.07 3068.4 1677.09 3052.44 1671.01 3035.52 1664.15 3010.8 1666.16 3001.76 1684.27 2992.96 1702.25 2994.7 1724.07 3002.41 1742.09 3016.62 1764.73 3039.69 1779.32 3062.07 1793.04 3093.57 1814.5 3112.6 1854.15 3106.23 1892.12 3102.33 1934.15 3069.45 1970.84 3028.59 1980.72 2979.29 1993.11 2916.7 1979.25 2892.39 1930.63 2884.28 1913.34 2882.35 1892.58 2889.09 1874.51 2898.22 1848.62 2940.41 1845.46 2953.48 1869.52 2959.85 1880.91 2956.41 1897.52 2968.84 1905.11 2986.63 1920.34 3020.47 1915.4 3028.04 1891.61 3034.64 1877.71 3025.93 1862.84 3014.97 1854.2 2988.42 1832.06 2957.92 1812.99 2939.21 1783.07 2915.74 1747.85 2912.75 1700.88 2929.13 1662.23 2944.12 1627.6 2978.33 1602.49 3015.93 1598.42M3005.8 1609.85C2979.2 1615.8 2955.31 1633.36 2942.1 1657.15 2924.91 1688.8 2923.76 1728.55 2938.07 1761.48 2950.31 1789.93 2974.52 1810.65 2998.55 1829.13 3011.07 1839.29 3025.61 1848.02 3034.19 1862.11 3046.48 1881.14 3036.25 1908.86 3016.16 1918.05 2994.61 1929.17 2966.73 1921.25 2952.74 1901.95 2947.84 1890.15 2950.04 1874.05 2938.16 1866.14 2923.94 1858.18 2901.2 1863.26 2896.7 1880.41 2889.55 1906.43 2899.82 1935.89 2921.33 1952.22 2958.11 1980.95 3013.69 1983.37 3053.58 1959.63 3095.54 1935.07 3110.58 1875.7 3086.6 1833.8 3073.67 1808.28 3047.44 1795.28 3024.74 1780.01 3011.3 1765.97 2992.55 1754.03 2989.24 1733.4 2984.52 1713 2984.93 1689.08 2998.6 1671.97 3014.6 1655.14 3042.58 1654.27 3062.11 1665.34 3075 1672.11 3080.73 1686.33 3090.96 1695.98 3099.17 1701.47 3110.45 1699.41 3119.02 1695.52 3130.3 1689.72 3131.91 1675.08 3129.98 1663.83 3126.91 1646.35 3113.2 1633.27 3098.89 1623.99 3071.83 1605.87 3037.03 1603.08 3005.8 1609.85Z" fill="#090503" fill-rule="evenodd" fill-opacity="0.929412"/><path d="M1302.32 1642.93C1305.21 1622.47 1317.54 1599.35 1340.61 1597.61 1362.57 1593.17 1384.35 1613.77 1381.65 1635.88 1374.63 1707.11 1360.6 1778.7 1368.67 1850.53 1371.56 1869.29 1376.05 1889.16 1389.03 1903.72 1405.49 1921.48 1433.55 1918.73 1453.63 1909.3 1484.76 1893.46 1497.47 1856.93 1499.8 1824.16 1502.92 1775.22 1498.47 1725.87 1505.26 1677.12 1508.06 1661.01 1511.63 1643.48 1523.83 1631.53 1536.58 1618.44 1560.92 1618.44 1572.25 1633.45 1583.12 1648.83 1579.72 1668.88 1579.27 1686.51 1573.4 1764.14 1575.37 1842.24 1582.66 1919.69 1583.21 1934.07 1589.81 1947.02 1592.97 1960.85 1594.08 1985.16 1559.55 2001.86 1541.35 1985.43 1526.86 1972.11 1522.5 1951.92 1517.5 1933.7 1497.28 1958.1 1471.61 1979.66 1439.65 1985.84 1402.92 1993.49 1360.09 1987.26 1333.41 1958.88 1303.65 1927.8 1295.44 1883.35 1291.27 1842.15 1287.88 1775.63 1291.18 1708.62 1302.32 1642.93M1318.51 1623.52C1309.93 1641.83 1309.15 1662.47 1306.13 1682.16 1299.94 1737.27 1296.96 1793.08 1301.31 1848.42 1305.9 1888.02 1315.34 1931.64 1347.07 1958.83 1383.52 1987.76 1438.73 1985.16 1476.42 1959.84 1494.35 1948.26 1506.77 1930.54 1520.03 1914.25 1529.79 1934.34 1530.34 1958.7 1545.38 1976.14 1557.21 1992.07 1589.08 1976.55 1582.11 1957.55 1577.29 1943.68 1573.53 1929.4 1572.62 1914.75 1566.84 1843.52 1563.9 1771.88 1568.95 1700.51 1569.64 1682.52 1572.85 1664.08 1568.49 1646.36 1564 1627.32 1535.25 1626.45 1526.49 1642.52 1510.49 1670.99 1512.41 1704.95 1510.76 1736.5 1508.79 1773.53 1513.19 1811.02 1505.99 1847.64 1499.9 1878.13 1481.74 1908.57 1451.75 1920.47 1430.11 1928.25 1402.32 1929.81 1384.67 1912.6 1363.76 1891.86 1359.82 1860.78 1357.53 1832.81 1354.32 1771.74 1363.21 1710.95 1370.96 1650.57 1372.02 1638.67 1374.72 1624.66 1365.6 1615.05 1352.67 1600.31 1325.98 1605.89 1318.51 1623.52Z" fill="#090503" fill-rule="evenodd" fill-opacity="0.929412"/><path d="M1107.97 1609.6C1123.1 1598.85 1147.08 1601.05 1157.31 1617.56 1167.86 1632.24 1161.25 1650.71 1155.61 1665.9 1185.79 1668.59 1219.27 1670.74 1243.39 1691.19 1260.72 1705.64 1262.46 1736.19 1243.02 1749.64 1228.99 1760.61 1211.47 1751.33 1197.02 1746.43 1176.76 1738.2 1155.11 1734.04 1133.28 1733.67 1125.94 1772.04 1120.44 1812.2 1129.61 1850.71 1133.97 1868.27 1143.78 1887.43 1162.17 1893.38 1185.33 1902.11 1206.79 1878.97 1230 1886.38 1252.6 1892 1256.64 1922.83 1246 1940.3 1232.47 1960.06 1206.52 1965.32 1184.18 1967.37 1140.66 1971.63 1092.15 1954.25 1070.87 1914 1043.22 1862.41 1043.22 1800.54 1053.3 1744.24 1031.29 1748.13 1007.72 1755.81 985.847 1747.49 965.486 1739.89 961.726 1709.34 978.831 1696.45 1004.56 1675.55 1039.5 1673.67 1071.01 1669.37 1079.49 1647.6 1088.07 1623.59 1107.97 1609.6M1117.64 1614.9C1094.99 1627.71 1087.06 1654.51 1078.43 1677.28 1048.03 1682.68 1014.78 1683.23 988.232 1700.79 973.832 1708.61 973.328 1733.26 989.699 1738.98 1014.46 1746.98 1039.82 1735.73 1064.45 1732.39 1060.28 1760.38 1055.23 1788.46 1056.88 1816.91 1058.44 1855.1 1065.14 1896.17 1091 1926.08 1118.33 1956.72 1163.87 1963.3 1202.48 1955.39 1217.75 1951.6 1235.96 1945.15 1241.14 1928.64 1244.35 1915.92 1241.09 1897.04 1225.55 1894.75 1204.36 1892.28 1184.96 1909.84 1163.46 1903.44 1137.68 1897.72 1123.61 1871.7 1119.02 1847.73 1111.41 1807.31 1117.23 1765.92 1124.94 1725.95 1160.34 1719.82 1192.99 1736.78 1226.19 1745.43 1248.52 1745.66 1254.39 1713.46 1239.4 1700.2 1213.99 1676.42 1176.57 1678.52 1144.38 1673.99 1140.39 1663.29 1153.28 1652.08 1153.37 1640.51 1157.72 1621.12 1134.66 1605.25 1117.64 1614.9Z" fill="#090503" fill-rule="evenodd" fill-opacity="0.929412"/><path d="M3571.99 1625.94C3605.5 1607.33 3646.76 1607.84 3682.83 1618.01 3723.4 1629.56 3752.5 1665.53 3764.01 1705.03 3780.97 1761.86 3779 1822.53 3771.25 1880.73 3765.79 1914.46 3760.34 1948.69 3747.96 1980.68 3741.13 1999.24 3721.84 2015.28 3701.21 2008.36 3687.92 2005.97 3682.97 1992.73 3679.48 1981.46 3646.57 1995.02 3608.62 1994.11 3575.89 1980.63 3546.1 1968.35 3523.27 1941.18 3515.52 1910.01 3505.39 1870.56 3508.42 1825.79 3531.11 1791.1 3567.64 1736.15 3651.16 1722.81 3704.69 1760.07 3700.71 1740.46 3697.13 1719.47 3684.11 1703.48 3667.98 1683.82 3638.5 1677.17 3615.22 1686.8 3602.34 1691.42 3590.51 1698.94 3577.04 1701.64 3554.71 1704.12 3535.78 1679.83 3541.65 1658.66 3545.59 1643.44 3559.02 1633.41 3571.99 1625.94M3555.54 1650.91C3542.57 1665.72 3554.03 1691.29 3573.32 1692.71 3592.44 1689.64 3608.16 1675.98 3627.6 1673.78 3651.61 1670.11 3677.6 1679.33 3692.36 1699.03 3709.28 1721.81 3714.55 1751.32 3713.91 1779.18 3705.61 1777.76 3700.29 1770.89 3694.06 1766.03 3676.14 1750.59 3651.02 1747.84 3628.28 1748.89 3597.21 1749.9 3566.13 1763.14 3545.96 1787.11 3521.39 1815.48 3516.21 1855.76 3521.16 1891.78 3525.38 1925 3545.46 1957.35 3576.9 1970.83 3611.23 1985.35 3653.45 1987.46 3685.58 1966.33 3690.48 1978.34 3689.25 1998.05 3705.79 1999.93 3725.27 2004.51 3737.6 1984.99 3742.51 1969.13 3759.29 1913.13 3768.09 1854.57 3767.49 1796.09 3766.12 1751.36 3761.3 1703.57 3734.63 1666.04 3715.65 1638.77 3683.2 1623.37 3650.47 1621.45 3616.92 1617.55 3578.82 1624.75 3555.54 1650.91Z" fill="#090503" fill-rule="evenodd" fill-opacity="0.929412"/><path d="M3824.52 1663.27C3819.27 1635.79 3855.09 1612.8 3878.45 1627.68 3898.45 1640.37 3906.08 1664.46 3912.89 1685.8 3934.77 1642.06 3993.9 1627.82 4036.15 1649.3 4052.94 1658.05 4066.36 1675.63 4064.89 1695.23 4064.84 1711.4 4052.75 1728.3 4035.65 1728.99 4018.04 1730.04 4006.22 1713.37 3989.81 1710.3 3964.75 1710.21 3948.52 1734.67 3944.79 1757.02 3939.74 1789.4 3944.01 1822.33 3940.84 1854.89 3937.9 1886.12 3933.9 1919.56 3914.5 1945.44 3901.12 1964.53 3866.68 1963.62 3856.75 1941.73 3849.25 1926.38 3855.41 1909.53 3858.77 1894.05 3872.79 1840.37 3870.54 1782.8 3854.59 1729.86 3847.92 1706.18 3830.72 1687.04 3824.52 1663.27M3833.48 1658.55C3835.14 1671.37 3842.86 1682.32 3848.7 1693.59 3860.56 1714.15 3867.87 1737 3872.06 1760.31 3878.95 1802.54 3880.33 1846.28 3869.8 1888.05 3867.05 1904.22 3859.05 1920.89 3864.7 1937.24 3872.01 1953.95 3898.59 1953.68 3907.92 1938.79 3925.48 1913.24 3928.84 1881.13 3931.65 1851.09 3934.96 1816.74 3928.98 1781.61 3937.35 1747.81 3943.19 1725.42 3960.66 1703.34 3985.21 1701.19 4003 1699.54 4015.37 1715.25 4031.42 1719.83 4045.03 1721.06 4055.74 1708.01 4055.6 1695.1 4056.75 1674.76 4039.33 1658.73 4021.16 1653.01 3996.7 1645.77 3968.38 1648.06 3946.63 1661.94 3930.04 1672.29 3922.13 1690.7 3910.86 1705.72 3899.23 1683.42 3897.76 1654.89 3877.16 1637.94 3861.39 1624.15 3833.02 1638.17 3833.48 1658.55Z" fill="#090503" fill-rule="evenodd" fill-opacity="0.929412"/><path d="M893.529 1628.45C914.573 1619.97 941.118 1634.37 941.348 1658.07 943.365 1734.58 940.706 1811.41 933.37 1887.6 929.748 1914.56 928.923 1944.45 910.767 1966.41 896.05 1985.8 859.648 1979.8 853 1956.32 855.201 1941.06 854.834 1925.65 855.842 1910.3 870.147 1836.31 864.553 1760.66 865.424 1685.85 866.296 1664.44 870.605 1636.93 893.529 1628.45M897.426 1637.03C877.987 1643.95 876.244 1668.11 874.915 1685.71 873.906 1754.57 878.949 1824.02 868.084 1892.42 864.049 1913.51 864.828 1935.1 862.811 1956.42 870.468 1970.63 894.079 1973.65 903.89 1960.04 915.536 1945.92 918.699 1927.35 921.175 1909.79 931.445 1835.62 931.628 1760.62 933.049 1685.89 932.774 1673.47 933.874 1660.45 929.473 1648.58 924.613 1636.25 908.842 1633.77 897.426 1637.03Z" fill="#090503" fill-rule="evenodd" fill-opacity="0.929412"/><path d="M3629.31 1797.98C3650.74 1795.31 3675.48 1797.34 3691.65 1813.48 3709.19 1831.65 3710.98 1859.33 3707.59 1883.16 3704.25 1906.29 3686.61 1926.8 3663.57 1931.59 3633.02 1938.72 3592.48 1930.76 3579.92 1898.2 3570.85 1872.17 3570.9 1839.42 3589.27 1817.39 3599.26 1805.66 3614.42 1800.1 3629.31 1797.98M3614.69 1811.04C3597.88 1816.79 3586.43 1833.26 3584.64 1850.73 3581.25 1873.96 3584.46 1903.58 3607.09 1916.13 3628.66 1926.9 3656.61 1928.37 3677.59 1915.4 3695.77 1903.58 3700.77 1879.89 3699.48 1859.56 3698.66 1841.49 3692.29 1820.93 3674.84 1812.56 3656.01 1804.24 3634.02 1804.97 3614.69 1811.04Z" fill="#090503" fill-rule="evenodd" fill-opacity="0.929412"/><path d="M412.183 1602.44C449.682 1551.48 513.036 1524.83 574.922 1519.93 618.06 1517.28 662.619 1519.66 703.326 1535.36 737.754 1549.24 770.806 1571.9 787.951 1605.78 808.212 1644.79 807.066 1691.22 796.752 1732.93 785.154 1779.27 750.406 1820.84 704.014 1835.04 672.612 1844.15 638.276 1843.92 607.287 1833.2 592.251 1828.31 580.332 1817.5 567.313 1808.94 563.187 1879.49 561.124 1951.15 541.55 2019.51 537.928 2038.01 512.669 2043.82 499.696 2031.46 491.49 2022.58 493.186 2009.48 494.561 1998.49 503.638 1948.36 500.704 1897.12 506.343 1846.62 510.973 1781.15 509.002 1715.4 507.81 1649.83 507.076 1631.84 507.26 1613.66 504.234 1595.85 477.783 1604 465.498 1636.73 437.901 1644.34 416.905 1647.22 397.376 1619.98 412.183 1602.44M563.049 1579.87C566.029 1622.95 567.955 1666.18 568.459 1709.4 568.871 1733.16 566.533 1756.92 569.009 1780.64 576.756 1775.83 583.908 1769.15 593.259 1767.59 615.355 1771.35 634.792 1785.4 657.759 1785.59 684.943 1787.56 710.798 1772.17 725.743 1750.15 754.027 1707.84 753.615 1642.46 712.724 1608.07 672.016 1572.82 613.613 1570.89 563.049 1579.87Z" fill="url(#fill1)" fill-rule="evenodd"/><path d="M892.777 1526.97C909.197 1520.18 930.969 1524.98 939.247 1541.95 948.349 1560.81 945.193 1591.74 922.644 1599.14 904.486 1606.17 881.114 1600.2 872.15 1581.76 861.63 1561.88 872.058 1534.97 892.777 1526.97Z" fill="url(#fill2)" fill-rule="evenodd"/><path d="M1318.27 1622.93C1325.75 1605.31 1352.45 1599.73 1365.38 1614.46 1374.51 1624.07 1371.81 1638.07 1370.75 1649.97 1363 1710.32 1354.1 1771.09 1357.31 1832.13 1359.6 1860.09 1363.55 1891.16 1384.47 1911.88 1402.13 1929.09 1429.93 1927.53 1451.59 1919.75 1481.59 1907.86 1499.76 1877.43 1505.86 1846.95 1513.06 1810.35 1508.66 1772.87 1510.63 1735.86 1512.28 1704.33 1510.35 1670.38 1526.37 1641.92 1535.13 1625.85 1563.89 1626.72 1568.39 1645.76 1572.75 1663.47 1569.54 1681.91 1568.85 1699.89 1563.8 1771.23 1566.74 1842.84 1572.52 1914.03 1573.44 1928.68 1577.2 1942.95 1582.01 1956.82 1588.99 1975.81 1557.1 1991.32 1545.27 1975.4 1530.22 1957.96 1529.67 1933.62 1519.9 1913.53 1506.64 1929.82 1494.21 1947.53 1476.27 1959.11 1438.56 1984.41 1383.32 1987.02 1346.85 1958.1 1315.1 1930.92 1305.65 1887.31 1301.07 1847.73 1296.71 1792.41 1299.69 1736.63 1305.88 1681.54 1308.91 1661.87 1309.69 1641.23 1318.27 1622.93Z" fill="url(#fill3)" fill-rule="evenodd"/><path d="M1118.08 1614.91C1135.07 1605.25 1158.12 1621.14 1153.77 1640.56 1153.67 1652.15 1140.8 1663.37 1144.79 1674.09 1176.95 1678.63 1214.33 1676.52 1239.71 1700.34 1254.69 1713.62 1248.83 1745.87 1226.52 1745.64 1193.35 1736.98 1160.73 1719.99 1125.36 1726.13 1117.67 1766.16 1111.85 1807.61 1119.45 1848.1 1124.03 1872.11 1138.1 1898.17 1163.84 1903.89 1185.33 1910.31 1204.71 1892.72 1225.87 1895.19 1241.4 1897.48 1244.66 1916.4 1241.45 1929.13 1236.27 1945.67 1218.09 1952.13 1202.83 1955.93 1164.26 1963.85 1118.77 1957.26 1091.46 1926.57 1065.62 1896.61 1058.94 1855.48 1057.38 1817.23 1055.73 1788.74 1060.77 1760.62 1064.94 1732.58 1040.34 1735.93 1015 1747.2 990.263 1739.18 973.908 1733.45 974.412 1708.77 988.797 1700.93 1015.32 1683.34 1048.54 1682.79 1078.91 1677.39 1087.52 1654.58 1095.45 1627.74 1118.08 1614.91Z" fill="url(#fill4)" fill-rule="evenodd"/><path d="M896.99 1637.3C908.53 1634.05 924.473 1636.52 929.385 1648.85 933.834 1660.72 932.722 1673.74 933 1686.16 931.564 1760.86 931.378 1835.84 920.997 1910 918.494 1927.55 915.297 1946.11 903.525 1960.23 893.607 1973.84 869.74 1970.82 862 1956.61 864.039 1935.3 863.251 1913.71 867.33 1892.63 878.313 1824.25 873.216 1754.81 874.235 1685.98 875.579 1668.38 877.34 1644.22 896.99 1637.3Z" fill="url(#fill5)" fill-rule="evenodd"/><path d="M2587.58 1530.85C2652.73 1523.92 2723.94 1535.66 2774.67 1579.89 2824.35 1621.96 2848.98 1686.86 2853.97 1750.56 2861.03 1824.49 2851.14 1906.21 2800.86 1964.28 2761.57 2011.72 2700.13 2035.73 2639.64 2038.16 2584.56 2042.93 2526.68 2027.48 2485.24 1989.81 2456.49 1962.9 2427.96 1933.25 2415 1895.12 2392.75 1832.33 2396.18 1763.12 2410.24 1698.91 2423.61 1648.77 2448.7 1598.95 2491.24 1567.47 2519.17 1546.61 2553.1 1534.83 2587.58 1530.85M2589.41 1588.87C2548.93 1594.41 2511.34 1618.48 2490.6 1653.9 2464.09 1697.72 2459.32 1750.79 2460.19 1800.93 2461.29 1853 2478.6 1907.26 2518.25 1942.78 2549.48 1972.94 2594.35 1984.95 2636.98 1982.47 2676.45 1980.87 2717.57 1969.82 2747.1 1942.33 2786.85 1894.52 2799.21 1829.49 2794.72 1768.76 2792.02 1717.24 2776.87 1662.66 2737.49 1626.96 2698.48 1590.06 2640.74 1581.95 2589.41 1588.87Z" fill="url(#fill6)" fill-rule="evenodd"/><path d="M3306.69 1586.18C3351.02 1581.97 3399.93 1588.19 3434.91 1617.97 3453.66 1632.79 3465.76 1657.9 3459.25 1681.77 3454.62 1700.34 3424.09 1703.5 3415.38 1686.67 3407.59 1673.86 3403.79 1657.21 3389.48 1649.71 3362.89 1635.49 3330.58 1634.8 3301.65 1641.07 3263.24 1650.35 3237.47 1685.93 3228.4 1722.66 3219.96 1757.28 3218.08 1793.73 3223.17 1829 3227.66 1858.91 3243.57 1890.15 3273.32 1901.63 3317.88 1918.18 3371.65 1905.29 3404.61 1871.21 3415.8 1859.41 3421.66 1842.54 3435.97 1833.8 3454.21 1823.6 3478.69 1844.69 3471.81 1864.35 3465.44 1883.56 3449.63 1897.6 3434.32 1909.95 3411.9 1926.51 3389.9 1945.08 3362.57 1952.85 3320.31 1965.16 3271.99 1964.88 3233.03 1942.61 3192.78 1919.33 3170.59 1873.64 3165.78 1828.63 3160.51 1771.05 3165.91 1709.4 3196.26 1658.86 3218.54 1618.65 3260.81 1590.66 3306.69 1586.18Z" fill="url(#fill7)" fill-rule="evenodd"/><path d="M3005.25 1609.38C3036.44 1602.6 3071.22 1605.39 3098.25 1623.54 3112.54 1632.84 3126.24 1645.95 3129.31 1663.46 3131.23 1674.73 3129.63 1689.4 3118.36 1695.22 3109.79 1699.11 3098.52 1701.17 3090.32 1695.67 3080.1 1686 3074.38 1671.75 3061.5 1664.97 3041.99 1653.88 3014.04 1654.75 2998.05 1671.61 2984.4 1688.75 2983.99 1712.72 2988.71 1733.16 2992.01 1753.83 3010.74 1765.79 3024.17 1779.86 3046.84 1795.17 3073.05 1808.18 3085.97 1833.75 3109.93 1875.73 3094.9 1935.22 3052.98 1959.83 3013.13 1983.61 2957.6 1981.18 2920.86 1952.4 2899.37 1936.04 2889.11 1906.53 2896.26 1880.45 2900.75 1863.27 2923.47 1858.18 2937.67 1866.15 2949.54 1874.08 2947.34 1890.21 2952.24 1902.04 2966.21 1921.38 2994.07 1929.31 3015.6 1918.17 3035.67 1908.96 3045.88 1881.19 3033.6 1862.12 3025.04 1848.01 3010.51 1839.25 2998.01 1829.08 2974 1810.57 2949.81 1789.8 2937.58 1761.3 2923.29 1728.3 2924.43 1688.48 2941.61 1656.77 2954.81 1632.94 2978.67 1615.34 3005.25 1609.38Z" fill="url(#fill8)" fill-rule="evenodd"/><path d="M3555.07 1651.36C3578.35 1625.27 3616.43 1618.1 3649.98 1621.98 3682.7 1623.9 3715.14 1639.25 3734.11 1666.44 3760.79 1703.86 3765.6 1751.51 3766.97 1796.1 3767.57 1854.4 3758.77 1912.79 3742 1968.62 3737.09 1984.43 3724.77 2003.89 3705.29 1999.32 3688.75 1997.45 3689.98 1977.8 3685.08 1965.83 3652.95 1986.9 3610.75 1984.79 3576.42 1970.31 3544.99 1956.88 3524.91 1924.62 3520.7 1891.5 3515.75 1855.59 3520.93 1815.43 3545.49 1787.15 3565.65 1763.25 3596.72 1750.05 3627.8 1749.04 3650.53 1747.99 3675.64 1750.73 3693.56 1766.13 3699.79 1770.97 3705.11 1777.83 3713.4 1779.24 3714.04 1751.46 3708.77 1722.04 3691.86 1699.33 3677.1 1679.69 3651.12 1670.51 3627.11 1674.16 3607.68 1676.35 3591.96 1689.97 3572.85 1693.03 3553.56 1691.61 3542.1 1666.12 3555.07 1651.36M3629.63 1798.57C3614.73 1800.67 3599.57 1806.2 3589.58 1817.85 3571.2 1839.73 3571.15 1872.26 3580.23 1898.12 3592.78 1930.47 3633.34 1938.37 3663.91 1931.29 3686.96 1926.54 3704.6 1906.16 3707.95 1883.18 3711.34 1859.52 3709.55 1832.01 3692 1813.97 3675.82 1797.93 3651.08 1795.92 3629.63 1798.57Z" fill="url(#fill9)" fill-rule="evenodd"/><path d="M3834.01 1658.17C3833.55 1637.75 3861.77 1623.71 3877.45 1637.52 3897.94 1654.5 3899.4 1683.08 3910.98 1705.42 3922.18 1690.37 3930.05 1671.93 3946.56 1661.56 3968.19 1647.66 3996.36 1645.37 4020.69 1652.62 4038.76 1658.35 4056.09 1674.41 4054.95 1694.78 4055.08 1707.72 4044.43 1720.79 4030.89 1719.55 4014.93 1714.97 4002.63 1699.23 3984.93 1700.88 3960.51 1703.04 3943.13 1725.15 3937.32 1747.59 3929 1781.45 3934.94 1816.64 3931.65 1851.04 3928.86 1881.14 3925.52 1913.3 3908.05 1938.9 3898.76 1953.81 3872.33 1954.09 3865.06 1937.34 3859.43 1920.97 3867.39 1904.27 3870.14 1888.07 3880.61 1846.23 3879.24 1802.41 3872.38 1760.11 3868.21 1736.76 3860.94 1713.87 3849.14 1693.27 3843.33 1681.98 3835.65 1671.01 3834.01 1658.17Z" fill="url(#fill10)" fill-rule="evenodd"/></g></svg>