<svg width="3667" height="665" xmlns="http://www.w3.org/2000/svg" xmlns:xlink="http://www.w3.org/1999/xlink" xml:space="preserve" overflow="hidden"><defs><clipPath id="clip0"><rect x="21" y="677" width="3667" height="665"/></clipPath></defs><g clip-path="url(#clip0)" transform="translate(-21 -677)"><path d="M1479.06 697.488C1530.53 676.057 1587.68 674.591 1642.49 679.033 1692.54 683.842 1744.79 699.916 1778.98 738.841 1822.43 783.308 1828.53 857.038 1795.53 909.244 1776.01 945.971 1741.4 970.426 1707.81 993.14 1722.66 1007.47 1737.96 1021.3 1754.01 1034.36 1759.87 1019.34 1763.26 994.698 1784.35 995.43 1827.57 1002.48 1870.05 1014.07 1913 1022.91 1925.88 1024.65 1939.63 1034.91 1936.74 1049.42 1929.5 1084.27 1915.24 1117.34 1898.52 1148.66 1921.43 1164.73 1944.49 1180.67 1968.73 1194.73 1978.72 1199.81 1985.37 1211.08 1982.21 1222.34 1977.76 1232.97 1969.19 1240.98 1961.9 1249.59 1937.34 1277.07 1913.64 1305.32 1889.03 1332.71 1882.29 1341.14 1870.01 1344.75 1860.29 1339.35 1829.81 1323.96 1801.81 1304.22 1772.66 1286.59 1695.89 1334.5 1602.39 1345.76 1513.66 1341 1449.13 1337.11 1380.61 1318.42 1336.42 1268.32 1304.39 1234.48 1286.19 1187.4 1289.35 1140.74 1291.23 1086.7 1320.93 1036.32 1362.64 1003.03 1380.84 987.782 1401.69 976.196 1422.59 965.16 1392.25 925.547 1373.55 875.127 1380.38 824.89 1385.88 768.15 1426.94 718.692 1479.06 697.488M1487.67 743.696C1455.04 760.411 1429.6 792.33 1425.84 829.424 1419.93 869.998 1436.98 910.068 1462.05 941.209 1470.07 952.841 1484.19 964.015 1480.48 979.814 1478.05 991.583 1465.81 996.3 1456.19 1000.79 1420.66 1015.63 1386.47 1036.69 1362.92 1067.69 1343.02 1093.61 1332.53 1126.68 1335.14 1159.38 1339.54 1227.98 1402.61 1278.3 1467.19 1288.65 1518.43 1298.96 1571.41 1298.18 1623.06 1291.13 1661.74 1285.91 1700.06 1275.05 1734.16 1255.68 1745.02 1249.87 1754.92 1242.26 1766.43 1237.64 1776.37 1234.34 1785.45 1240.98 1793.7 1245.61 1817.53 1260.4 1841.18 1275.42 1864.97 1290.3 1885.68 1268.18 1904.89 1244.74 1925.01 1222.07 1901.04 1205.67 1876.42 1190.1 1853.28 1172.61 1842.74 1164.32 1844.3 1149.07 1851.12 1139 1865.2 1115.18 1877.16 1090.13 1885.45 1063.71 1856.76 1057.21 1827.98 1050.98 1799.29 1044.48 1792.55 1059.22 1788.06 1075.53 1777.61 1088.16 1765.46 1099.2 1748.28 1091.55 1738.56 1081.2 1709.55 1057.07 1681.09 1032.16 1654.73 1005.14 1645.38 996.3 1647.08 979.631 1657.39 972.304 1691.63 946.201 1733.7 926.555 1755.43 887.446 1776.69 854.015 1776.65 807.305 1751.12 776.164 1724.72 741.268 1679.76 728.217 1638 724.553 1587.54 720.798 1534.1 721.21 1487.67 743.696Z" fill-rule="evenodd"/><path d="M1584.61 768.678C1607.73 764.518 1633.19 767.855 1652.89 781.341 1678.02 796.061 1688.1 829.753 1678.3 856.679 1667.35 887.171 1641.31 909.068 1614.67 925.8 1604.13 932.977 1588.71 940.337 1577.81 929.549 1554.55 905.091 1530.01 877.342 1525.31 842.599 1521.62 807.125 1551.18 775.444 1584.61 768.678M1570.24 838.53C1573.98 855.948 1586.57 869.571 1596.97 883.422 1612.43 871.354 1630.5 858.736 1636.11 838.85 1640.21 823.399 1623.47 813.204 1610.15 812.839 1593.18 809.41 1570.97 819.193 1570.24 838.53Z" fill-rule="evenodd"/><path d="M1523.94 1036.9C1534.53 1031.62 1545.7 1038.24 1553.12 1045.67 1593.48 1083.37 1633.84 1121.21 1677.45 1155.15 1691.65 1163.18 1697.01 1185.27 1682.07 1195.42 1639.01 1225.08 1584.09 1244 1531.91 1230.64 1486.93 1219.2 1447.12 1175.26 1453.72 1126.77 1457.8 1086.08 1490.87 1056.51 1523.94 1036.9M1498.47 1136.27C1499.21 1161.76 1522.02 1181.73 1545.7 1186.83 1573.46 1193.72 1602 1185.5 1627.42 1174.16 1594.35 1146.15 1562.19 1117.03 1530.49 1087.41 1515.47 1099.91 1498.29 1114.92 1498.47 1136.27Z" fill-rule="evenodd"/><path d="M27.2631 859.54C66.3369 805.215 133.432 776.952 198.784 771.959 257.579 768.112 320.454 774.937 370.214 809.062 405.573 831.278 429.834 869.664 435.291 910.981 438.96 940.663 436.713 971.17 428.641 999.982 416.213 1043.5 385.761 1083.07 343.339 1100.76 296.973 1119.49 241.298 1116.47 198.784 1089.26 197.317 1149.58 191.447 1209.96 178.605 1269 175.808 1280.86 172.643 1293.97 162.462 1301.84 147.053 1314.35 119.032 1310.27 111.006 1291.13 103.255 1273.26 110.456 1254.02 112.29 1235.75 116.968 1190.26 116.096 1144.41 121.141 1098.92 124.902 1023.21 123.572 947.259 120.086 871.541 103.026 885.833 88.9466 905.026 67.9421 913.821 38.545 923.76 7.40516 885.283 27.2631 859.54M35.7016 863.938C20.8884 881.481 40.4253 908.736 61.4298 905.851 89.0383 898.247 101.329 865.495 127.791 857.342 130.818 875.16 130.634 893.345 131.368 911.347 132.561 976.942 134.533 1042.72 129.901 1108.22 124.26 1158.75 127.195 1210 118.114 1260.16 116.739 1271.15 115.042 1284.25 123.251 1293.14 136.23 1305.51 161.499 1299.69 165.122 1281.19 184.705 1212.8 186.769 1141.11 190.896 1070.52 203.921 1079.09 215.845 1089.9 230.887 1094.8 261.89 1105.52 296.24 1105.75 327.655 1096.63 374.066 1082.43 408.829 1040.84 420.432 994.485 430.751 952.756 431.897 906.308 411.627 867.282 394.475 833.385 361.409 810.711 326.967 796.832 286.242 781.12 241.665 778.739 198.509 781.395 136.596 786.297 73.2161 812.956 35.7016 863.938Z" fill="#000000" fill-rule="evenodd" fill-opacity="0.929412"/><path d="M512.339 780.696C533.191 772.018 560.611 778.721 571.129 799.749 580.958 819.583 578.845 847.452 561.76 862.741 539.713 879.82 502.465 875.55 488.41 850.115 473.345 825.735 486.251 791.301 512.339 780.696M516.198 789.19C495.391 797.132 484.92 823.853 495.483 843.596 504.485 861.914 527.955 867.837 546.189 860.858 568.833 853.513 572.002 822.797 562.862 804.065 554.549 787.215 532.686 782.44 516.198 789.19Z" fill="#000000" fill-rule="evenodd" fill-opacity="0.929412"/><path d="M2194.03 786.167C2262.96 775.317 2339.09 784.427 2395.7 828.104 2451.48 870.406 2480.5 939.629 2486.45 1007.94 2495.35 1089.57 2482.56 1181.5 2422.42 1242.34 2370.86 1296.68 2291.7 1314.91 2219.05 1308.91 2169.18 1304.65 2121.74 1281.07 2087.41 1244.86 2071.14 1227.28 2053.77 1210.06 2042.36 1188.73 2016.32 1142.26 2010.46 1087.37 2013.89 1034.99 2016.09 978.315 2029.84 920.629 2061.7 873.016 2090.39 826.547 2140.54 795.278 2194.03 786.167M2210.89 793.217C2176.38 797.201 2142.42 808.967 2114.46 829.797 2071.87 861.25 2046.76 911.015 2033.37 961.101 2019.3 1025.24 2015.86 1094.37 2038.14 1157.09 2051.11 1195.19 2079.67 1224.81 2108.45 1251.68 2149.93 1289.31 2207.87 1304.74 2263.01 1299.98 2323.56 1297.55 2385.07 1273.56 2424.39 1226.18 2474.72 1168.17 2484.62 1086.54 2477.56 1012.7 2472.57 949.06 2447.91 884.232 2398.18 842.205 2347.39 798.024 2276.12 786.305 2210.89 793.217Z" fill="#000000" fill-rule="evenodd" fill-opacity="0.929412"/><path d="M186 841.549C236.738 832.55 295.343 834.478 336.191 869.83 377.223 904.31 377.637 969.872 349.255 1012.29 334.259 1034.38 308.315 1049.8 281.036 1047.83 257.99 1047.65 238.486 1033.55 216.314 1029.79 206.93 1031.35 199.754 1038.05 191.98 1042.87 189.496 1019.09 191.842 995.261 191.428 971.433 190.922 928.092 188.99 884.751 186 841.549M196.442 848.527C198.834 906.789 202.836 965.143 199.892 1023.5 225.238 1014.08 247.272 1033.41 271.514 1037.09 297.689 1042.73 325.933 1030.43 340.515 1008.21 368.253 968.403 367.563 905.044 326.623 874.146 290.375 844.579 240.694 844.395 196.442 848.527Z" fill="#090503" fill-rule="evenodd" fill-opacity="0.929412"/><path d="M2913.92 841.002C2952.94 833.617 2994.8 836.048 3031.62 851.691 3058.21 863.572 3083.75 884.122 3091.87 913.206 3095.35 928.665 3095.86 947.656 3083.84 959.72 3072.56 969.399 3055.09 971.234 3041.89 964.583 3023.55 953.115 3024.74 924.444 3003.05 916.508 2964.22 901.921 2912.31 904.719 2884.71 939.353 2855.18 976.234 2851.88 1026.33 2853.99 1071.7 2855.59 1103.53 2866.83 1140.69 2898.69 1154.31 2936.98 1170.23 2983.8 1160.41 3014.79 1133.44 3030.84 1120.32 3037.17 1097.93 3055.64 1087.38 3079.99 1074.54 3111.86 1100.41 3105.07 1126.97 3098.84 1149.91 3080.4 1166.93 3062.2 1180.96 3041.48 1196.06 3021.49 1213.21 2996.86 1221.7 2955.6 1236.42 2908.64 1237.29 2867.65 1221.15 2821.62 1202.52 2791.77 1156.47 2782.78 1108.9 2773.29 1052.98 2777.55 993.712 2798.92 940.912 2818.41 891.783 2860.87 850.682 2913.92 841.002M2930.33 847.654C2884.43 852.149 2842.16 880.223 2819.88 920.545 2789.52 971.234 2784.11 1033.07 2789.38 1090.82 2794.2 1135.96 2816.39 1181.79 2856.65 1205.14 2895.62 1227.48 2943.95 1227.75 2986.23 1215.41 3013.55 1207.62 3035.56 1188.99 3057.98 1172.39 3073.3 1160 3089.12 1145.92 3095.49 1126.65 3102.37 1106.92 3077.88 1085.78 3059.63 1096.01 3045.33 1104.77 3039.46 1121.7 3028.27 1133.53 2995.3 1167.71 2941.52 1180.64 2896.95 1164.04 2867.19 1152.52 2851.28 1121.19 2846.79 1091.19 2841.7 1055.82 2843.58 1019.26 2852.02 984.537 2861.1 947.702 2886.86 912.013 2925.29 902.701 2954.22 896.416 2986.55 897.104 3013.14 911.371 3027.45 918.894 3031.25 935.591 3039.05 948.436 3047.76 965.317 3078.3 962.151 3082.93 943.527 3089.44 919.582 3077.33 894.398 3058.58 879.535 3023.59 849.672 2974.67 843.434 2930.33 847.654Z" fill="#000000" fill-rule="evenodd" fill-opacity="0.929412"/><path d="M2212.5 851.243C2263.91 844.325 2321.73 852.434 2360.8 889.313 2400.24 925.002 2415.42 979.565 2418.13 1031.06 2422.62 1091.76 2410.24 1156.77 2370.43 1204.55 2340.86 1232.04 2299.68 1243.08 2260.15 1244.69 2217.46 1247.16 2172.52 1235.16 2141.24 1205.01 2101.53 1169.51 2084.2 1115.26 2083.09 1063.22 2082.22 1013.1 2086.99 960.049 2113.54 916.252 2134.32 880.838 2171.97 856.786 2212.5 851.243M2206.54 862.009C2171.78 868.606 2139.91 889.726 2121.94 920.421 2094.74 965.592 2090.52 1020.43 2092.86 1072.02 2095.2 1125.02 2117.99 1179.63 2162.66 1210.51 2206.73 1240.65 2264.64 1240.84 2314.26 1225.95 2337.1 1217.84 2360.94 1206.29 2373.6 1184.58 2409.64 1131.76 2414.46 1064.36 2405.84 1002.7 2399.37 961.286 2382.95 918.909 2349.48 891.833 2310.36 859.214 2255.29 853.167 2206.54 862.009Z" fill="#090503" fill-rule="evenodd" fill-opacity="0.929412"/><path d="M2638.93 860.418C2678.05 854.837 2721.43 865.541 2748.12 895.958 2761.47 910.732 2767.43 932.962 2759.31 951.716 2751.47 969.6 2726.61 975.363 2710.15 966.536 2696.94 957.067 2691.4 939.091 2675.44 933.008 2658.52 926.147 2633.8 928.159 2624.76 946.273 2615.96 964.249 2617.7 986.067 2625.41 1004.09 2639.62 1026.73 2662.69 1041.32 2685.07 1055.04 2716.57 1076.5 2735.6 1116.15 2729.23 1154.12 2725.33 1196.15 2692.45 1232.84 2651.59 1242.72 2602.29 1255.11 2539.7 1241.25 2515.39 1192.63 2507.28 1175.34 2505.35 1154.58 2512.09 1136.51 2521.22 1110.62 2563.41 1107.46 2576.48 1131.52 2582.85 1142.91 2579.41 1159.52 2591.84 1167.11 2609.63 1182.34 2643.47 1177.4 2651.04 1153.61 2657.64 1139.71 2648.93 1124.84 2637.97 1116.2 2611.42 1094.06 2580.92 1074.99 2562.21 1045.07 2538.74 1009.85 2535.75 962.876 2552.13 924.225 2567.12 889.6 2601.33 864.489 2638.93 860.418M2628.8 871.853C2602.2 877.799 2578.31 895.363 2565.1 919.148 2547.91 950.801 2546.76 990.549 2561.07 1023.48 2573.31 1051.93 2597.52 1072.65 2621.55 1091.13 2634.07 1101.29 2648.61 1110.02 2657.19 1124.11 2669.48 1143.14 2659.25 1170.86 2639.16 1180.05 2617.61 1191.17 2589.73 1183.25 2575.74 1163.95 2570.84 1152.15 2573.04 1136.05 2561.16 1128.14 2546.94 1120.18 2524.2 1125.26 2519.7 1142.41 2512.55 1168.43 2522.82 1197.89 2544.33 1214.22 2581.11 1242.95 2636.69 1245.37 2676.58 1221.63 2718.54 1197.07 2733.58 1137.7 2709.6 1095.8 2696.67 1070.28 2670.44 1057.28 2647.74 1042.01 2634.3 1027.97 2615.55 1016.03 2612.24 995.398 2607.52 974.997 2607.93 951.075 2621.6 933.968 2637.6 917.136 2665.58 916.267 2685.11 927.336 2698 934.106 2703.73 948.331 2713.96 957.982 2722.17 963.471 2733.45 961.413 2742.02 957.525 2753.3 951.716 2754.91 937.079 2752.98 925.827 2749.91 908.354 2736.2 895.272 2721.89 885.987 2694.83 867.873 2660.03 865.083 2628.8 871.853Z" fill="#000000" fill-rule="evenodd" fill-opacity="0.929412"/><path d="M925.322 904.927C928.21 884.465 940.544 861.348 963.608 859.608 985.571 855.168 1007.35 875.767 1004.65 897.878 997.63 969.106 983.599 1040.7 991.669 1112.53 994.557 1131.29 999.051 1151.16 1012.03 1165.72 1028.49 1183.48 1056.55 1180.73 1076.63 1171.3 1107.76 1155.46 1120.47 1118.93 1122.8 1086.16 1125.92 1037.22 1121.47 987.875 1128.26 939.123 1131.06 923.009 1134.63 905.477 1146.83 893.529 1159.58 880.437 1183.92 880.437 1195.25 895.451 1206.12 910.832 1202.72 930.883 1202.27 948.507 1196.4 1026.14 1198.37 1104.24 1205.66 1181.69 1206.21 1196.07 1212.81 1209.02 1215.97 1222.85 1217.07 1247.16 1182.55 1263.86 1164.35 1247.43 1149.86 1234.11 1145.5 1213.92 1140.5 1195.7 1120.28 1220.1 1094.61 1241.66 1062.65 1247.84 1025.92 1255.49 983.095 1249.26 956.409 1220.88 926.651 1189.8 918.444 1145.35 914.272 1104.15 910.879 1037.63 914.18 970.617 925.322 904.927M941.508 885.518C932.933 903.828 932.154 924.474 929.128 944.158 922.938 999.273 919.958 1055.08 924.313 1110.42 928.899 1150.02 938.344 1193.64 970.073 1220.83 1006.52 1249.76 1061.73 1247.16 1099.42 1221.84 1117.35 1210.26 1129.77 1192.54 1143.02 1176.25 1152.79 1196.34 1153.34 1220.7 1168.38 1238.14 1180.21 1254.07 1212.08 1238.55 1205.11 1219.55 1200.29 1205.68 1196.53 1191.4 1195.62 1176.75 1189.84 1105.52 1186.9 1033.88 1191.95 962.514 1192.64 944.524 1195.85 926.076 1191.49 908.36 1187 889.317 1158.25 888.448 1149.49 904.515 1133.49 932.988 1135.41 966.955 1133.76 998.495 1131.79 1035.53 1136.19 1073.02 1128.99 1109.64 1122.9 1140.13 1104.74 1170.57 1074.75 1182.47 1053.11 1190.25 1025.32 1191.81 1007.67 1174.6 986.763 1153.86 982.82 1122.78 980.527 1094.81 977.318 1033.74 986.213 972.952 993.962 912.572 995.016 900.67 997.721 886.662 988.597 877.049 975.667 862.309 948.982 867.894 941.508 885.518Z" fill="#000000" fill-rule="evenodd" fill-opacity="0.929412"/><path d="M730.968 871.598C746.101 860.851 770.085 863.046 780.311 879.556 790.858 894.237 784.255 912.713 778.614 927.897 808.789 930.595 842.266 932.745 866.387 953.187 883.721 967.639 885.464 998.19 866.02 1011.64 851.987 1022.61 834.47 1013.33 820.024 1008.43 799.755 1000.2 778.11 996.04 756.281 995.674 748.944 1034.04 743.441 1074.2 752.613 1112.71 756.969 1130.27 766.783 1149.43 785.172 1155.38 808.33 1164.11 829.792 1140.97 852.996 1148.38 875.604 1154 879.64 1184.83 869.001 1202.3 855.473 1222.06 829.517 1227.32 807.184 1229.37 763.664 1233.63 715.146 1216.25 693.868 1176 666.216 1124.41 666.216 1062.54 676.305 1006.24 654.293 1010.13 630.721 1017.81 608.847 1009.49 588.486 1001.89 584.726 971.344 601.831 958.447 627.557 937.547 662.501 935.671 694.006 931.373 702.49 909.603 711.065 885.593 730.968 871.598M740.644 876.903C717.99 889.709 710.056 916.509 701.435 939.284 671.031 944.681 637.784 945.23 611.232 962.792 596.832 970.612 596.328 995.263 612.699 1000.98 637.463 1008.98 662.822 997.732 687.448 994.394 683.275 1022.38 678.231 1050.46 679.881 1078.91 681.441 1117.1 688.136 1158.17 714 1188.08 741.332 1218.72 786.869 1225.3 825.481 1217.39 840.752 1213.6 858.958 1207.15 864.14 1190.64 867.35 1177.92 864.094 1159.04 848.548 1156.75 827.362 1154.28 807.964 1171.84 786.456 1165.44 760.684 1159.72 746.605 1133.7 742.019 1109.73 734.407 1069.31 740.231 1027.92 747.935 987.945 783.338 981.817 815.989 998.784 849.19 1007.43 871.523 1007.66 877.393 975.46 862.397 962.197 836.992 938.415 799.571 940.519 767.379 935.991 763.389 925.29 776.276 914.085 776.367 902.514 780.724 883.123 757.657 867.254 740.644 876.903Z" fill="#000000" fill-rule="evenodd" fill-opacity="0.929412"/><path d="M3194.99 887.938C3228.5 869.333 3269.76 869.837 3305.83 880.01 3346.4 891.559 3375.5 927.532 3387.01 967.034 3403.97 1023.86 3402 1084.53 3394.25 1142.73 3388.79 1176.46 3383.34 1210.69 3370.96 1242.68 3364.13 1261.24 3344.84 1277.28 3324.21 1270.36 3310.92 1267.97 3305.97 1254.73 3302.48 1243.46 3269.57 1257.02 3231.62 1256.11 3198.89 1242.63 3169.1 1230.35 3146.27 1203.18 3138.52 1172.01 3128.39 1132.56 3131.42 1087.79 3154.11 1053.1 3190.64 998.15 3274.16 984.815 3327.69 1022.07 3323.71 1002.46 3320.13 981.47 3307.11 965.476 3290.98 945.817 3261.5 939.172 3238.22 948.795 3225.34 953.424 3213.51 960.939 3200.04 963.643 3177.71 966.118 3158.78 941.83 3164.65 920.658 3168.59 905.444 3182.02 895.408 3194.99 887.938M3178.54 912.914C3165.57 927.716 3177.03 953.286 3196.32 954.707 3215.44 951.637 3231.16 937.981 3250.6 935.781 3274.61 932.115 3300.6 941.326 3315.36 961.031 3332.28 983.807 3337.55 1013.32 3336.91 1041.18 3328.61 1039.76 3323.29 1032.89 3317.06 1028.03 3299.14 1012.59 3274.02 1009.84 3251.28 1010.89 3220.21 1011.9 3189.13 1025.14 3168.96 1049.11 3144.39 1077.48 3139.21 1117.76 3144.16 1153.78 3148.38 1187 3168.46 1219.35 3199.9 1232.83 3234.23 1247.35 3276.45 1249.46 3308.58 1228.33 3313.48 1240.34 3312.25 1260.05 3328.79 1261.93 3348.27 1266.51 3360.6 1246.99 3365.51 1231.13 3382.29 1175.13 3391.09 1116.57 3390.49 1058.09 3389.12 1013.36 3384.3 965.568 3357.63 928.036 3338.65 900.77 3306.2 885.372 3273.47 883.447 3239.92 879.552 3201.82 886.747 3178.54 912.914Z" fill="#000000" fill-rule="evenodd" fill-opacity="0.929412"/><path d="M3447.52 925.267C3442.28 897.787 3478.09 874.796 3501.45 889.681 3521.45 902.367 3529.08 926.457 3535.89 947.8 3557.77 904.061 3616.9 889.818 3659.15 911.298 3675.94 920.046 3689.36 937.633 3687.89 957.235 3687.84 973.401 3675.75 990.301 3658.65 990.988 3641.04 992.042 3629.22 975.371 3612.81 972.302 3587.75 972.211 3571.52 996.668 3567.8 1019.02 3562.74 1051.4 3567.01 1084.33 3563.84 1116.89 3560.9 1148.12 3556.9 1181.56 3537.5 1207.44 3524.12 1226.53 3489.68 1225.62 3479.75 1203.73 3472.25 1188.38 3478.41 1171.53 3481.77 1156.05 3495.79 1102.37 3493.54 1044.8 3477.59 991.859 3470.92 968.18 3453.72 949.036 3447.52 925.267M3456.48 920.549C3458.14 933.373 3465.86 944.319 3471.7 955.586 3483.56 976.149 3490.87 999.003 3495.06 1022.31 3501.96 1064.54 3503.33 1108.28 3492.81 1150.05 3490.05 1166.22 3482.05 1182.89 3487.7 1199.24 3495.01 1215.95 3521.59 1215.68 3530.92 1200.79 3548.48 1175.24 3551.84 1143.13 3554.65 1113.09 3557.96 1078.74 3551.98 1043.61 3560.35 1009.81 3566.19 987.416 3583.66 965.341 3608.21 963.188 3626 961.539 3638.37 977.248 3654.42 981.829 3668.03 983.065 3678.74 970.012 3678.6 957.097 3679.75 936.762 3662.33 920.733 3644.17 915.008 3619.7 907.771 3591.38 910.061 3569.63 923.938 3553.04 934.289 3545.13 952.7 3533.86 967.722 3522.23 945.418 3520.76 916.885 3500.16 899.94 3484.39 886.154 3456.02 900.169 3456.48 920.549Z" fill="#000000" fill-rule="evenodd" fill-opacity="0.929412"/><path d="M516.529 890.452C537.573 881.971 564.119 896.366 564.348 920.067 566.365 996.58 563.706 1073.41 556.37 1149.6 552.748 1176.56 551.923 1206.45 533.768 1228.41 519.051 1247.8 482.648 1241.8 476 1218.32 478.201 1203.06 477.834 1187.65 478.843 1172.3 493.147 1098.31 487.554 1022.66 488.425 947.849 489.296 926.44 493.605 898.934 516.529 890.452M520.426 899.025C500.987 905.947 499.245 930.107 497.915 947.711 496.906 1016.57 501.95 1086.02 491.084 1154.42 487.049 1175.51 487.829 1197.1 485.811 1218.42 493.468 1232.63 517.079 1235.65 526.891 1222.04 538.536 1207.92 541.699 1189.35 544.175 1171.79 554.445 1097.62 554.628 1022.62 556.049 947.894 555.774 935.47 556.875 922.451 552.473 910.578 547.614 898.246 531.842 895.77 520.426 899.025Z" fill="#000000" fill-rule="evenodd" fill-opacity="0.929412"/><path d="M3253.31 1060.97C3274.74 1058.33 3299.48 1060.34 3315.65 1076.36 3333.19 1094.39 3334.98 1121.88 3331.59 1145.53 3328.25 1168.49 3310.61 1188.86 3287.57 1193.6 3257.02 1200.68 3216.48 1192.78 3203.92 1160.46 3194.85 1134.62 3194.9 1102.11 3213.27 1080.24 3223.26 1068.6 3238.42 1063.07 3253.31 1060.97M3238.69 1073.94C3221.88 1079.65 3210.43 1095.99 3208.64 1113.34 3205.25 1136.4 3208.46 1165.8 3231.09 1178.26 3252.66 1188.95 3280.61 1190.41 3301.59 1177.53 3319.77 1165.8 3324.77 1142.29 3323.48 1122.11 3322.66 1104.16 3316.29 1083.76 3298.84 1075.45 3280.01 1067.18 3258.02 1067.91 3238.69 1073.94Z" fill="#090503" fill-rule="evenodd" fill-opacity="0.929412"/></g></svg>