<svg width="3667" height="665" xmlns="http://www.w3.org/2000/svg" xmlns:xlink="http://www.w3.org/1999/xlink" xml:space="preserve" overflow="hidden"><defs><clipPath id="clip0"><rect x="21" y="-35" width="3667" height="665"/></clipPath></defs><g clip-path="url(#clip0)" transform="translate(-21 35)"><path d="M1479.06-14.5115C1530.53-35.9433 1587.68-37.4088 1642.49-32.9667 1692.54-28.1583 1744.79-12.0843 1778.98 26.8415 1822.43 71.3081 1828.53 145.038 1795.53 197.244 1776.01 233.971 1741.4 258.426 1707.81 281.14 1722.66 295.474 1737.96 309.304 1754.01 322.356 1759.87 307.335 1763.26 282.698 1784.35 283.43 1827.57 290.483 1870.05 302.069 1913 310.907 1925.88 312.647 1939.63 322.905 1936.74 337.422 1929.5 372.272 1915.24 405.336 1898.52 436.66 1921.43 452.734 1944.49 468.671 1968.73 482.73 1978.72 487.813 1985.37 499.078 1982.21 510.344 1977.76 520.968 1969.19 528.982 1961.9 537.592 1937.34 565.069 1913.64 593.324 1889.03 620.709 1882.29 629.136 1870.01 632.754 1860.29 627.35 1829.81 611.963 1801.81 592.225 1772.66 574.594 1695.89 622.496 1602.39 633.761 1513.66 628.998 1449.13 625.106 1380.61 606.422 1336.42 556.322 1304.39 522.479 1286.19 475.402 1289.35 428.737 1291.23 374.699 1320.93 324.325 1362.64 291.032 1380.84 275.783 1401.69 264.196 1422.59 253.16 1392.25 213.547 1373.55 163.127 1380.38 112.89 1385.88 56.15 1426.94 6.69183 1479.06-14.5115M1487.67 31.6958C1455.04 48.4108 1429.6 80.3298 1425.84 117.424 1419.93 157.998 1436.98 198.068 1462.05 229.209 1470.07 240.841 1484.19 252.015 1480.48 267.814 1478.05 279.584 1465.81 284.3 1456.19 288.788 1420.66 303.626 1386.47 324.691 1362.92 355.694 1343.02 381.614 1332.53 414.678 1335.14 447.376 1339.54 515.977 1402.61 566.305 1467.19 576.655 1518.43 586.959 1571.41 586.18 1623.06 579.128 1661.74 573.907 1700.06 563.054 1734.16 543.682 1745.02 537.866 1754.92 530.264 1766.43 525.639 1776.37 522.342 1785.45 528.982 1793.7 533.608 1817.53 548.399 1841.18 563.42 1864.97 578.303 1885.68 556.185 1904.89 532.737 1925.01 510.069 1901.04 493.674 1876.42 478.104 1853.28 460.61 1842.74 452.322 1844.3 437.072 1851.12 426.997 1865.2 403.184 1877.16 378.134 1885.45 351.71 1856.76 345.207 1827.98 338.979 1799.29 332.477 1792.55 347.223 1788.06 363.525 1777.61 376.165 1765.46 387.201 1748.28 379.554 1738.56 369.204 1709.55 345.07 1681.09 320.158 1654.73 293.139 1645.38 284.3 1647.08 267.631 1657.39 260.304 1691.63 234.201 1733.7 214.555 1755.43 175.446 1776.69 142.015 1776.65 95.3046 1751.12 64.1642 1724.72 29.2686 1679.76 16.2171 1638 12.5532 1587.54 8.79808 1534.1 9.21031 1487.67 31.6958Z" fill="#0070C0" fill-rule="evenodd"/><path d="M1584.61 56.6884C1607.73 52.5036 1633.19 55.8605 1652.89 69.4268 1678.02 84.2346 1688.1 118.127 1678.3 145.213 1667.35 175.886 1641.31 197.914 1614.67 214.745 1604.13 221.965 1588.71 229.369 1577.81 218.516 1554.55 193.913 1530.01 165.999 1525.31 131.049 1521.62 95.3635 1551.18 63.4944 1584.61 56.6884M1570.24 126.956C1573.98 144.477 1586.57 158.181 1596.97 172.116 1612.43 159.975 1630.5 147.283 1636.11 127.278 1640.21 111.735 1623.47 101.48 1610.15 101.112 1593.18 97.6627 1570.97 107.504 1570.24 126.956Z" fill="#0070C0" fill-rule="evenodd"/><path d="M1523.94 325.894C1534.53 320.64 1545.7 327.219 1553.12 334.621 1593.48 372.132 1633.84 409.781 1677.45 443.546 1691.65 451.541 1697.01 473.518 1682.07 483.616 1639.01 513.131 1584.09 531.955 1531.91 518.659 1486.93 507.283 1447.12 463.558 1453.72 415.309 1457.8 374.828 1490.87 345.404 1523.94 325.894M1498.47 424.767C1499.21 450.125 1522.02 470 1545.7 475.072 1573.46 481.925 1602 473.746 1627.42 462.461 1594.35 434.59 1562.19 405.623 1530.49 376.153 1515.47 388.581 1498.29 403.521 1498.47 424.767Z" fill="#0070C0" fill-rule="evenodd"/><path d="M27.2631 148.54C66.3369 94.2147 133.432 65.9522 198.784 60.9591 257.579 57.1117 320.454 63.9368 370.214 98.0621 405.573 120.278 429.834 158.664 435.291 199.981 438.96 229.663 436.713 260.17 428.641 288.982 416.213 332.498 385.761 372.074 343.339 389.755 296.973 408.49 241.298 405.467 198.784 378.258 197.317 438.585 191.447 498.957 178.605 558.001 175.808 569.865 172.643 582.965 162.462 590.844 147.053 603.349 119.032 599.273 111.006 580.126 103.255 562.261 110.456 543.022 112.29 524.746 116.968 479.26 116.096 433.409 121.141 387.923 124.902 312.206 123.572 236.259 120.086 160.542 103.026 174.833 88.9466 194.026 67.9421 202.821 38.545 212.761 7.40516 174.283 27.2631 148.54M35.7016 152.938C20.8884 170.481 40.4253 197.736 61.4298 194.851 89.0383 187.247 101.329 154.495 127.791 146.342 130.818 164.16 130.634 182.345 131.368 200.347 132.561 265.942 134.533 331.719 129.901 397.222 124.26 447.746 127.195 499.003 118.114 549.161 116.739 560.154 115.042 573.255 123.251 582.141 136.23 594.509 161.499 588.691 165.122 570.185 184.705 501.797 186.769 430.11 190.896 359.523 203.921 368.089 215.845 378.899 230.887 383.8 261.89 394.519 296.24 394.748 327.655 385.633 374.066 371.433 408.829 329.841 420.432 283.485 430.751 241.756 431.897 195.308 411.627 156.282 394.475 122.385 361.409 99.7114 326.967 85.832 286.242 70.1206 241.665 67.7387 198.509 70.3954 136.596 75.2967 73.2161 101.956 35.7016 152.938Z" fill="#660066" fill-rule="evenodd" fill-opacity="0.929412"/><path d="M512.339 69.6956C533.191 61.0186 560.611 67.7215 571.129 88.7493 580.958 108.583 578.845 136.452 561.76 151.741 539.713 168.82 502.465 164.55 488.41 139.115 473.345 114.735 486.251 80.3013 512.339 69.6956M516.198 78.1896C495.391 86.1324 484.92 112.853 495.483 132.595 504.485 150.914 527.955 156.837 546.189 149.858 568.833 142.512 572.002 111.797 562.862 93.0648 554.549 76.2151 532.686 71.4403 516.198 78.1896Z" fill="#660066" fill-rule="evenodd" fill-opacity="0.929412"/><path d="M2194.03 75.1671C2262.96 64.3169 2339.09 73.4274 2395.7 117.104 2451.48 159.406 2480.5 228.629 2486.45 296.936 2495.35 378.566 2482.56 470.496 2422.42 531.341 2370.86 585.684 2291.7 603.905 2219.05 597.908 2169.18 593.65 2121.74 570.073 2087.41 533.859 2071.14 516.279 2053.77 499.064 2042.36 477.73 2016.32 431.261 2010.46 376.368 2013.89 323.993 2016.09 267.315 2029.84 209.629 2061.7 162.016 2090.39 115.547 2140.54 84.2776 2194.03 75.1671M2210.89 82.2174C2176.38 86.2007 2142.42 97.9668 2114.46 118.798 2071.87 150.25 2046.76 200.015 2033.37 250.101 2019.3 314.242 2015.86 383.373 2038.14 446.094 2051.11 484.185 2079.67 513.806 2108.45 540.681 2149.93 578.313 2207.87 593.742 2263.01 588.981 2323.56 586.554 2385.07 562.564 2424.39 515.18 2474.72 457.174 2484.62 375.544 2477.56 301.697 2472.57 238.06 2447.91 173.232 2398.18 131.205 2347.39 87.0245 2276.12 75.3046 2210.89 82.2174Z" fill="#FFC000" fill-rule="evenodd" fill-opacity="0.929412"/><path d="M186 130.527C236.738 121.571 295.343 123.49 336.191 158.675 377.223 192.991 377.637 258.242 349.255 300.464 334.259 322.442 308.315 337.796 281.036 335.831 257.99 335.648 238.486 321.62 216.314 317.873 206.93 319.426 199.754 326.098 191.98 330.896 189.496 307.226 191.842 283.511 191.428 259.796 190.922 216.66 188.99 173.525 186 130.527M196.442 137.472C198.834 195.458 202.836 253.536 199.892 311.613 225.238 302.245 247.272 321.483 271.514 325.138 297.689 330.759 325.933 318.513 340.515 296.397 368.253 256.78 367.563 193.722 326.623 162.97 290.375 133.543 240.694 133.36 196.442 137.472Z" fill="#660066" fill-rule="evenodd" fill-opacity="0.929412"/><path d="M2913.92 129.992C2952.94 122.625 2994.8 125.051 3031.62 140.654 3058.21 152.505 3083.75 173.003 3091.87 202.013 3095.35 217.433 3095.86 236.377 3083.84 248.41 3072.56 258.065 3055.09 259.895 3041.89 253.261 3023.55 241.822 3024.74 213.224 3003.05 205.308 2964.22 190.757 2912.31 193.548 2884.71 228.095 2855.18 264.883 2851.88 314.849 2853.99 360.102 2855.59 391.857 2866.83 428.92 2898.69 442.51 2936.98 458.388 2983.8 448.596 3014.79 421.691 3030.84 408.604 3037.17 386.275 3055.64 375.751 3079.99 362.939 3111.86 388.746 3105.07 415.239 3098.84 438.117 3080.4 455.093 3062.2 469.095 3041.48 484.149 3021.49 501.262 2996.86 509.727 2955.6 524.415 2908.64 525.284 2867.65 509.177 2821.62 490.6 2791.77 444.661 2782.78 397.211 2773.29 341.434 2777.55 282.316 2798.92 229.65 2818.41 180.645 2860.87 139.647 2913.92 129.992M2930.33 136.627C2884.43 141.111 2842.16 169.114 2819.88 209.334 2789.52 259.895 2784.11 321.575 2789.38 379.183 2794.2 424.207 2816.39 469.918 2856.65 493.209 2895.62 515.492 2943.95 515.766 2986.23 503.458 3013.55 495.68 3035.56 477.102 3057.98 460.538 3073.3 448.184 3089.12 434.137 3095.49 414.919 3102.37 395.243 3077.88 374.15 3059.63 384.353 3045.33 393.093 3039.46 409.977 3028.27 421.782 2995.3 455.871 2941.52 468.774 2896.95 452.21 2867.19 440.726 2851.28 409.474 2846.79 379.549 2841.7 344.271 2843.58 307.802 2852.02 273.165 2861.1 236.422 2886.86 200.823 2925.29 191.535 2954.22 185.266 2986.55 185.953 3013.14 200.183 3027.45 207.687 3031.25 224.343 3039.05 237.154 3047.76 253.993 3078.3 250.835 3082.93 232.259 3089.44 208.373 3077.33 183.253 3058.58 168.428 3023.59 138.64 2974.67 132.418 2930.33 136.627Z" fill="#FFC000" fill-rule="evenodd" fill-opacity="0.929412"/><path d="M2212.5 139.243C2263.91 132.325 2321.73 140.434 2360.8 177.314 2400.24 213.002 2415.42 267.565 2418.13 319.059 2422.62 379.762 2410.24 444.77 2370.43 492.553 2340.86 520.041 2299.68 531.082 2260.15 532.685 2217.46 535.159 2172.52 523.156 2141.24 493.011 2101.53 457.506 2084.2 403.263 2083.09 351.22 2082.22 301.101 2086.99 248.049 2113.54 204.252 2134.32 168.838 2171.97 144.786 2212.5 139.243M2206.54 150.009C2171.78 156.606 2139.91 177.726 2121.94 208.421 2094.74 253.592 2090.52 308.43 2092.86 360.016 2095.2 413.022 2117.99 467.631 2162.66 498.509 2206.73 528.654 2264.64 528.837 2314.26 513.948 2337.1 505.839 2360.94 494.294 2373.6 472.579 2409.64 419.756 2414.46 352.365 2405.84 290.701 2399.37 249.286 2382.95 206.909 2349.48 179.833 2310.36 147.215 2255.29 141.167 2206.54 150.009Z" fill="#FFC000" fill-rule="evenodd" fill-opacity="0.929412"/><path d="M2638.93 148.421C2678.05 142.827 2721.43 153.558 2748.12 184.053 2761.47 198.866 2767.43 221.153 2759.31 239.955 2751.47 257.885 2726.61 263.663 2710.15 254.813 2696.94 245.32 2691.4 227.298 2675.44 221.199 2658.52 214.32 2633.8 216.338 2624.76 234.497 2615.96 252.52 2617.7 274.394 2625.41 292.462 2639.62 315.162 2662.69 329.791 2685.07 343.549 2716.57 365.056 2735.6 404.816 2729.23 442.878 2725.33 485.022 2692.45 521.8 2651.59 531.706 2602.29 544.133 2539.7 530.238 2515.39 481.491 2507.28 464.156 2505.35 443.337 2512.09 425.222 2521.22 399.267 2563.41 396.103 2576.48 420.224 2582.85 431.643 2579.41 448.289 2591.84 455.902 2609.63 471.173 2643.47 466.22 2651.04 442.373 2657.64 428.433 2648.93 413.529 2637.97 404.861 2611.42 382.666 2580.92 363.543 2562.21 333.552 2538.74 298.241 2535.75 251.144 2552.13 212.394 2567.12 177.679 2601.33 152.503 2638.93 148.421M2628.8 159.886C2602.2 165.848 2578.31 183.457 2565.1 207.303 2547.91 239.038 2546.76 278.888 2561.07 311.906 2573.31 340.43 2597.52 361.204 2621.55 379.731 2634.07 389.912 2648.61 398.671 2657.19 412.795 2669.48 431.872 2659.25 459.662 2639.16 468.88 2617.61 480.023 2589.73 472.09 2575.74 452.738 2570.84 440.906 2573.04 424.764 2561.16 416.831 2546.94 408.851 2524.2 413.941 2519.7 431.138 2512.55 457.232 2522.82 486.765 2544.33 503.136 2581.11 531.935 2636.69 534.366 2676.58 510.565 2718.54 485.939 2733.58 426.415 2709.6 384.409 2696.67 358.819 2670.44 345.796 2647.74 330.479 2634.3 316.401 2615.55 304.432 2612.24 283.749 2607.52 263.296 2607.93 239.313 2621.6 222.162 2637.6 205.286 2665.58 204.415 2685.11 215.512 2698 222.299 2703.73 236.561 2713.96 246.237 2722.17 251.74 2733.45 249.677 2742.02 245.779 2753.3 239.955 2754.91 225.28 2752.98 213.999 2749.91 196.481 2736.2 183.365 2721.89 174.056 2694.83 155.896 2660.03 153.099 2628.8 159.886Z" fill="#FFC000" fill-rule="evenodd" fill-opacity="0.929412"/><path d="M925.322 192.927C928.21 172.465 940.544 149.348 963.608 147.608 985.571 143.168 1007.35 163.767 1004.65 185.878 997.63 257.106 983.599 328.702 991.669 400.525 994.557 419.294 999.051 439.161 1012.03 453.718 1028.49 471.479 1056.55 468.733 1076.63 459.303 1107.76 443.464 1120.47 406.934 1122.8 374.158 1125.92 325.223 1121.47 275.875 1128.26 227.123 1131.06 211.009 1134.63 193.477 1146.83 181.529 1159.58 168.437 1183.92 168.437 1195.25 183.452 1206.12 198.833 1202.72 218.883 1202.27 236.507 1196.4 314.144 1198.37 392.24 1205.66 469.694 1206.21 484.068 1212.81 497.023 1215.97 510.848 1217.07 535.155 1182.55 551.864 1164.35 535.43 1149.86 522.109 1145.5 501.921 1140.5 483.702 1120.28 508.101 1094.61 529.662 1062.65 535.842 1025.92 543.487 983.095 537.261 956.409 508.879 926.651 477.797 918.444 433.348 914.272 392.148 910.879 325.635 914.18 258.617 925.322 192.927M941.508 173.518C932.933 191.829 932.154 212.474 929.128 232.158 922.938 287.273 919.958 343.076 924.313 398.42 928.899 438.017 938.344 481.642 970.073 508.834 1006.52 537.764 1061.73 535.155 1099.42 509.841 1117.35 498.259 1129.77 480.543 1143.02 464.247 1152.79 484.343 1153.34 508.696 1168.38 526.137 1180.21 542.068 1212.08 526.549 1205.11 507.552 1200.29 493.681 1196.53 479.399 1195.62 464.75 1189.84 393.522 1186.9 321.881 1191.95 250.514 1192.64 232.524 1195.85 214.076 1191.49 196.361 1187 177.318 1158.25 176.448 1149.49 192.515 1133.49 220.988 1135.41 254.955 1133.76 286.495 1131.79 323.529 1136.19 361.02 1128.99 397.642 1122.9 428.129 1104.74 458.57 1074.75 470.472 1053.11 478.255 1025.32 479.811 1007.67 462.599 986.763 441.862 982.82 410.779 980.527 382.81 977.318 321.743 986.213 260.952 993.962 200.572 995.016 188.67 997.721 174.662 988.597 165.049 975.667 150.309 948.982 155.894 941.508 173.518Z" fill="#660066" fill-rule="evenodd" fill-opacity="0.929412"/><path d="M730.968 159.616C746.101 148.839 770.085 151.041 780.311 167.596 790.858 182.317 784.255 200.844 778.614 216.069 808.789 218.775 842.266 220.93 866.387 241.429 883.721 255.921 885.464 286.555 866.02 300.037 851.987 311.043 834.47 301.734 820.024 296.827 799.755 288.572 778.11 284.399 756.281 284.032 748.944 322.508 743.441 362.773 752.613 401.386 756.969 418.996 766.783 438.211 785.172 444.172 808.33 452.932 829.792 429.727 852.996 437.156 875.604 442.797 879.64 473.706 869.001 491.224 855.473 511.035 829.517 516.309 807.184 518.373 763.664 522.638 715.146 505.211 693.868 464.855 666.216 413.126 666.216 351.078 676.305 294.626 654.293 298.524 630.721 306.228 608.847 297.882 588.486 290.269 584.726 259.635 601.831 246.703 627.557 225.745 662.501 223.865 694.006 219.554 702.49 197.725 711.065 173.649 730.968 159.616M740.644 164.936C717.99 177.777 710.056 204.65 701.435 227.488 671.031 232.899 637.784 233.45 611.232 251.06 596.832 258.901 596.328 283.62 612.699 289.352 637.463 297.377 662.822 286.096 687.448 282.748 683.275 310.814 678.231 338.972 679.881 367.496 681.441 405.788 688.136 446.97 714 476.962 741.332 507.687 786.869 514.291 825.481 506.357 840.752 502.551 858.958 496.085 864.14 479.53 867.35 466.781 864.094 447.841 848.548 445.548 827.362 443.072 807.964 460.682 786.456 454.262 760.684 448.529 746.605 422.435 742.019 398.405 734.407 357.865 740.231 316.363 747.935 276.282 783.338 270.137 815.989 287.151 849.19 295.818 871.523 296.047 877.393 263.763 862.397 250.464 836.992 226.617 799.571 228.726 767.379 224.186 763.389 213.455 776.276 202.22 776.367 190.617 780.724 171.173 757.657 155.26 740.644 164.936Z" fill="#660066" fill-rule="evenodd" fill-opacity="0.929412"/><path d="M3194.99 176.901C3228.5 158.342 3269.76 158.845 3305.83 168.992 3346.4 180.512 3375.5 216.395 3387.01 255.798 3403.97 312.481 3402 373.002 3394.25 431.056 3388.79 464.699 3383.34 498.846 3370.96 530.752 3364.13 549.266 3344.84 565.265 3324.21 558.362 3310.92 555.985 3305.97 542.775 3302.48 531.529 3269.57 545.06 3231.62 544.146 3198.89 530.707 3169.1 518.456 3146.27 491.349 3138.52 460.265 3128.39 420.908 3131.42 376.248 3154.11 341.645 3190.64 286.837 3274.16 273.534 3327.69 310.698 3323.71 291.133 3320.13 270.198 3307.11 254.244 3290.98 234.634 3261.5 228.006 3238.22 237.605 3225.34 242.222 3213.51 249.719 3200.04 252.416 3177.71 254.884 3158.78 230.657 3164.65 209.539 3168.59 194.362 3182.02 184.352 3194.99 176.901M3178.54 201.813C3165.57 216.578 3177.03 242.085 3196.32 243.502 3215.44 240.44 3231.16 226.818 3250.6 224.623 3274.61 220.967 3300.6 230.154 3315.36 249.81 3332.28 272.529 3337.55 301.967 3336.91 329.759 3328.61 328.342 3323.29 321.486 3317.06 316.64 3299.14 301.236 3274.02 298.493 3251.28 299.544 3220.21 300.55 3189.13 313.761 3168.96 337.667 3144.39 365.963 3139.21 406.143 3144.16 442.072 3148.38 475.213 3168.46 507.485 3199.9 520.924 3234.23 535.415 3276.45 537.518 3308.58 516.445 3313.48 528.421 3312.25 548.077 3328.79 549.951 3348.27 554.522 3360.6 535.049 3365.51 519.233 3382.29 463.374 3391.09 404.955 3390.49 346.627 3389.12 302.013 3384.3 254.336 3357.63 216.898 3338.65 189.7 3306.2 174.341 3273.47 172.421 3239.92 168.536 3201.82 175.712 3178.54 201.813Z" fill="#FFC000" fill-rule="evenodd" fill-opacity="0.929412"/><path d="M3447.52 214.267C3442.28 186.787 3478.09 163.796 3501.45 178.68 3521.45 191.367 3529.08 215.457 3535.89 236.8 3557.77 193.061 3616.9 178.818 3659.15 200.298 3675.94 209.045 3689.36 226.632 3687.89 246.234 3687.84 262.401 3675.75 279.301 3658.65 279.988 3641.04 281.042 3629.22 264.371 3612.81 261.302 3587.75 261.211 3571.52 285.667 3567.8 308.017 3562.74 340.397 3567.01 373.327 3563.84 405.89 3560.9 437.125 3556.9 470.558 3537.5 496.435 3524.12 515.533 3489.68 514.617 3479.75 492.725 3472.25 477.382 3478.41 460.528 3481.77 445.049 3495.79 391.372 3493.54 333.802 3477.59 280.858 3470.92 257.18 3453.72 238.036 3447.52 214.267M3456.48 209.549C3458.14 222.373 3465.86 233.319 3471.7 244.585 3483.56 265.149 3490.87 288.003 3495.06 311.315 3501.96 353.542 3503.33 397.28 3492.81 439.049 3490.05 455.216 3482.05 471.887 3487.7 488.237 3495.01 504.954 3521.59 504.679 3530.92 489.794 3548.48 464.238 3551.84 432.133 3554.65 402.089 3557.96 367.74 3551.98 332.611 3560.35 298.811 3566.19 276.416 3583.66 254.341 3608.21 252.188 3626 250.539 3638.37 266.248 3654.42 270.828 3668.03 272.065 3678.74 259.012 3678.6 246.097 3679.75 225.762 3662.33 209.732 3644.17 204.008 3619.7 196.771 3591.38 199.061 3569.63 212.938 3553.04 223.289 3545.13 241.7 3533.86 256.722 3522.23 234.418 3520.76 205.885 3500.16 188.939 3484.39 175.154 3456.02 189.169 3456.48 209.549Z" fill="#FFC000" fill-rule="evenodd" fill-opacity="0.929412"/><path d="M516.529 179.446C537.573 170.989 564.119 185.343 564.348 208.976 566.365 285.272 563.706 361.886 556.37 437.861 552.748 464.741 551.923 494.546 533.768 516.442 519.051 535.779 482.648 529.79 476 506.385 478.201 491.163 477.834 475.803 478.843 460.489 493.147 386.709 487.554 311.282 488.425 236.679 489.296 215.331 493.605 187.903 516.529 179.446M520.426 187.994C500.987 194.897 499.245 218.987 497.915 236.541 496.906 305.202 501.95 374.457 491.084 442.661 487.049 463.689 487.829 485.22 485.811 506.477 493.468 520.648 517.079 523.665 526.891 510.088 538.536 496.009 541.699 477.495 544.175 459.987 554.445 386.023 554.628 311.236 556.049 236.724 555.774 224.336 556.875 211.353 552.473 199.514 547.614 187.217 531.842 184.748 520.426 187.994Z" fill="#660066" fill-rule="evenodd" fill-opacity="0.929412"/><path d="M3253.31 348.981C3274.74 346.314 3299.48 348.337 3315.65 364.48 3333.19 382.647 3334.98 410.334 3331.59 434.158 3328.25 457.292 3310.61 477.804 3287.57 482.587 3257.02 489.716 3216.48 481.759 3203.92 449.197 3194.85 423.166 3194.9 390.42 3213.27 368.39 3223.26 356.662 3238.42 351.097 3253.31 348.981M3238.69 362.043C3221.88 367.792 3210.43 384.257 3208.64 401.734 3205.25 424.96 3208.46 454.578 3231.09 467.134 3252.66 477.896 3280.61 479.368 3301.59 466.398 3319.77 454.578 3324.77 430.893 3323.48 410.564 3322.66 392.489 3316.29 371.931 3298.84 363.561 3280.01 355.236 3258.02 355.972 3238.69 362.043Z" fill="#FFC000" fill-rule="evenodd" fill-opacity="0.929412"/></g></svg>