<svg width="3648" height="664" xmlns="http://www.w3.org/2000/svg" xmlns:xlink="http://www.w3.org/1999/xlink" xml:space="preserve" overflow="hidden"><defs><clipPath id="clip0"><rect x="86" y="238" width="3648" height="664"/></clipPath></defs><g clip-path="url(#clip0)" transform="translate(-86 -238)"><path d="M1534.06 258.458C1585.53 237.058 1642.68 235.595 1697.49 240.03 1747.54 244.831 1799.79 260.881 1833.98 299.748 1877.43 344.148 1883.53 417.767 1850.53 469.895 1831.01 506.567 1796.4 530.985 1762.81 553.665 1777.66 567.977 1792.96 581.786 1809.01 594.818 1814.87 579.82 1818.26 555.22 1839.35 555.951 1882.57 562.993 1925.05 574.562 1968 583.387 1980.88 585.124 1994.63 595.367 1991.74 609.862 1984.5 644.66 1970.24 677.674 1953.52 708.95 1976.43 725 1999.49 740.913 2023.73 754.951 2033.72 760.026 2040.37 771.275 2037.21 782.523 2032.76 793.132 2024.19 801.134 2016.9 809.731 1992.34 837.166 1968.64 865.379 1944.03 892.723 1937.29 901.137 1925.01 904.749 1915.29 899.354 1884.81 883.99 1856.81 864.282 1827.66 846.677 1750.89 894.507 1657.39 905.755 1568.66 901 1504.13 897.113 1435.61 878.457 1391.42 828.432 1359.39 794.641 1341.19 747.635 1344.35 701.04 1346.23 647.083 1375.93 596.784 1417.64 563.542 1435.84 548.315 1456.69 536.747 1477.59 525.726 1447.25 486.173 1428.55 435.829 1435.38 385.667 1440.88 329.013 1481.94 279.629 1534.06 258.458M1542.67 304.595C1510.04 321.285 1484.6 353.156 1480.84 390.194 1474.93 430.708 1491.98 470.718 1517.05 501.811 1525.07 513.426 1539.19 524.583 1535.48 540.359 1533.05 552.11 1520.81 556.82 1511.19 561.301 1475.66 576.117 1441.47 597.15 1417.92 628.107 1398.02 653.988 1387.53 687.002 1390.14 719.65 1394.54 788.148 1457.61 838.401 1522.19 848.735 1573.43 859.023 1626.41 858.246 1678.06 851.204 1716.74 845.991 1755.06 835.154 1789.16 815.812 1800.02 810.005 1809.92 802.414 1821.43 797.796 1831.37 794.504 1840.45 801.134 1848.7 805.753 1872.53 820.522 1896.18 835.52 1919.97 850.381 1940.68 828.295 1959.89 804.884 1980.01 782.249 1956.04 765.879 1931.42 750.332 1908.28 732.865 1897.74 724.589 1899.3 709.362 1906.12 699.302 1920.2 675.525 1932.16 650.513 1940.45 624.129 1911.76 617.635 1882.98 611.417 1854.29 604.924 1847.55 619.648 1843.06 635.926 1832.61 648.546 1820.46 659.566 1803.28 651.93 1793.56 641.596 1764.55 617.498 1736.09 592.623 1709.73 565.645 1700.38 556.82 1702.08 540.176 1712.39 532.86 1746.63 506.796 1788.7 487.179 1810.43 448.129 1831.69 414.749 1831.65 368.109 1806.12 337.015 1779.72 302.172 1734.76 289.14 1693 285.482 1642.54 281.732 1589.1 282.144 1542.67 304.595Z" fill-rule="evenodd"/><path d="M1639.99 328.688C1663.26 324.503 1688.88 327.86 1708.71 341.427 1734 356.234 1744.14 390.127 1734.27 417.213 1723.26 447.886 1697.05 469.914 1670.24 486.745 1659.64 493.965 1644.12 501.369 1633.15 490.516 1609.74 465.913 1585.04 437.999 1580.32 403.049 1576.6 367.363 1606.34 335.494 1639.99 328.688M1625.53 398.956C1629.29 416.477 1641.96 430.181 1652.43 444.115 1667.99 431.975 1686.17 419.282 1691.81 399.278 1695.94 383.735 1679.1 373.48 1665.69 373.112 1648.62 369.663 1626.26 379.504 1625.53 398.956Z" fill-rule="evenodd"/><path d="M1579.94 597.894C1590.53 592.64 1601.7 599.219 1609.12 606.621 1649.48 644.132 1689.84 681.781 1733.45 715.546 1747.65 723.541 1753.01 745.518 1738.07 755.616 1695.01 785.131 1640.09 803.956 1587.91 790.66 1542.93 779.283 1503.12 735.558 1509.72 687.309 1513.8 646.828 1546.87 617.404 1579.94 597.894M1554.47 696.767C1555.21 722.125 1578.02 742 1601.7 747.072 1629.46 753.925 1658 745.746 1683.42 734.461 1650.35 706.59 1618.19 677.623 1586.49 648.153 1571.47 660.581 1554.29 675.521 1554.47 696.767Z" fill-rule="evenodd"/><path d="M1542.86 303.936C1589.27 281.437 1642.68 281.025 1693.12 284.782 1734.86 288.448 1779.8 301.508 1806.19 336.425 1831.71 367.585 1831.75 414.325 1810.49 447.776 1788.78 486.909 1746.72 506.568 1712.5 532.687 1702.19 540.018 1700.5 556.698 1709.84 565.542 1736.19 592.578 1764.64 617.506 1793.64 641.655 1803.35 652.011 1820.53 659.663 1832.67 648.62 1843.11 635.973 1847.6 619.66 1854.34 604.904 1883.02 611.411 1911.79 617.643 1940.46 624.15 1932.17 650.59 1920.21 675.656 1906.15 699.484 1899.32 709.565 1897.77 724.824 1908.3 733.118 1931.44 750.623 1956.04 766.203 1980 782.607 1959.89 805.29 1940.69 828.752 1919.99 850.884 1896.21 835.992 1872.57 820.962 1848.75 806.161 1840.5 801.533 1831.43 794.888 1821.49 798.188 1809.99 802.816 1800.09 810.422 1789.24 816.242 1755.15 835.625 1716.85 846.485 1678.19 851.709 1626.56 858.766 1573.6 859.545 1522.38 849.235 1457.83 838.879 1394.79 788.519 1390.39 719.875 1387.78 687.157 1398.27 654.073 1418.16 628.137 1441.7 597.114 1475.88 576.036 1511.39 561.189 1521.01 556.698 1533.24 551.979 1535.67 540.202 1539.38 524.393 1525.27 513.212 1517.25 501.573 1492.19 470.413 1475.15 430.317 1481.06 389.718 1484.81 352.601 1510.24 320.662 1542.86 303.936M1640.07 328.864C1606.49 335.646 1576.81 367.402 1580.52 402.961 1585.23 437.786 1609.88 465.601 1633.25 490.117 1644.19 500.931 1659.68 493.554 1670.26 486.359 1697.02 469.588 1723.18 447.638 1734.17 417.074 1744.02 390.084 1733.9 356.312 1708.65 341.557 1688.86 328.039 1663.3 324.694 1640.07 328.864M1579.97 597.756C1546.89 617.322 1513.81 646.833 1509.74 687.432 1503.14 735.822 1542.95 779.675 1587.94 791.085 1640.12 804.42 1695.05 785.54 1738.11 755.938 1753.05 745.811 1747.69 723.77 1733.48 715.751 1689.87 681.888 1649.51 644.129 1609.15 606.508 1601.73 599.085 1590.55 592.486 1579.97 597.756Z" fill-rule="evenodd"/><path d="M91.1833 424.441C128.682 373.48 192.036 346.833 253.922 341.933 297.06 339.278 341.619 341.659 382.326 357.363 416.754 371.237 449.806 393.901 466.951 427.783 487.212 466.793 486.066 513.221 475.752 554.932 464.154 601.268 429.406 642.842 383.014 657.036 351.612 666.147 317.276 665.919 286.287 655.204 271.251 650.306 259.332 639.5 246.313 630.938 242.187 701.495 240.124 773.151 220.549 841.51 216.928 860.008 191.669 865.823 178.696 853.46 170.49 844.578 172.186 831.483 173.561 820.494 182.638 770.358 179.704 719.122 185.343 668.62 189.973 603.145 188.002 537.396 186.81 471.83 186.076 453.836 186.26 435.658 183.234 417.847 156.783 425.997 144.498 458.735 116.901 466.335 95.9051 469.22 76.3764 441.977 91.1833 424.441M242.049 401.868C245.029 444.953 246.954 488.175 247.459 531.398 247.871 555.161 245.533 578.924 248.009 602.642 255.756 597.834 262.907 591.149 272.259 589.592 294.355 593.347 313.792 607.404 336.759 607.587 363.943 609.555 389.798 594.171 404.743 572.148 433.027 529.841 432.615 464.458 391.724 430.072 351.016 394.817 292.613 392.894 242.049 401.868Z" fill-rule="evenodd"/><path d="M571.777 349.933C588.197 343.224 609.969 347.971 618.247 364.72 627.349 383.341 624.193 413.874 601.644 421.176 583.486 428.113 560.114 422.226 551.149 404.016 540.63 384.391 551.058 357.829 571.777 349.933Z" fill-rule="evenodd"/><path d="M997.269 445.926C1004.75 428.309 1031.45 422.727 1044.38 437.461 1053.51 447.07 1050.81 461.072 1049.75 472.968 1042 533.323 1033.1 594.089 1036.31 655.129 1038.6 683.087 1042.55 714.156 1063.47 734.884 1081.13 752.089 1108.93 750.534 1130.59 742.755 1160.59 730.858 1178.76 700.429 1184.86 669.955 1192.06 633.349 1187.66 595.873 1189.63 558.855 1191.28 527.328 1189.35 493.376 1205.37 464.915 1214.13 448.854 1242.89 449.724 1247.39 468.759 1251.75 486.467 1248.54 504.907 1247.85 522.89 1242.8 594.226 1245.74 665.836 1251.52 737.035 1252.44 751.678 1256.2 765.954 1261.01 779.818 1267.99 798.808 1236.1 814.32 1224.27 798.396 1209.22 780.962 1208.67 756.619 1198.9 736.532 1185.64 752.821 1173.21 770.53 1155.27 782.106 1117.56 807.41 1062.32 810.018 1025.85 781.1 994.103 753.92 984.653 710.313 980.065 670.733 975.707 615.412 978.689 559.633 984.882 504.541 987.91 484.865 988.69 464.229 997.269 445.926Z" fill-rule="evenodd"/><path d="M797.078 437.903C814.074 428.266 837.118 444.115 832.766 463.48 832.674 475.035 819.801 486.225 823.787 496.912 855.947 501.434 893.329 499.333 918.709 523.083 933.689 536.328 927.825 568.482 905.515 568.254 872.347 559.621 839.729 542.677 804.362 548.797 796.666 588.715 790.848 630.049 798.453 670.424 803.034 694.356 817.098 720.344 842.844 726.053 864.33 732.448 883.709 714.909 904.874 717.376 920.404 719.659 923.656 738.522 920.45 751.219 915.273 767.707 897.086 774.147 881.83 777.938 843.257 785.839 797.765 779.262 770.462 748.661 744.624 718.791 737.935 677.777 736.378 639.64 734.728 611.232 739.768 583.188 743.936 555.237 719.335 558.571 694.001 569.806 669.263 561.814 652.908 556.104 653.412 531.487 667.797 523.677 694.322 506.138 727.536 505.59 757.909 500.201 766.522 477.456 774.447 450.691 797.078 437.903Z" fill-rule="evenodd"/><path d="M575.99 460.3C587.53 457.056 603.473 459.523 608.385 471.814 612.834 483.649 611.722 496.626 612 509.009 610.564 583.49 610.378 658.244 599.997 732.177 597.494 749.677 594.297 768.183 582.525 782.257 572.607 795.828 548.74 792.812 541 778.647 543.039 757.4 542.251 735.878 546.33 714.859 557.313 646.684 552.216 577.458 553.235 508.826 554.579 491.28 556.34 467.2 575.99 460.3Z" fill-rule="evenodd"/><path d="M2266.58 353.845C2331.73 346.925 2402.94 358.658 2453.67 402.886 2503.35 444.96 2527.98 509.858 2532.97 573.564 2540.03 647.491 2530.14 729.21 2479.86 787.279 2440.57 834.715 2379.13 858.731 2318.64 861.161 2263.56 865.927 2205.68 850.482 2164.24 812.807 2135.49 785.904 2106.96 756.251 2094 718.119 2071.75 655.329 2075.18 586.122 2089.24 521.911 2102.61 471.771 2127.7 421.952 2170.24 390.465 2198.17 369.612 2232.1 357.833 2266.58 353.845M2268.41 411.869C2227.93 417.414 2190.34 441.476 2169.6 476.904 2143.09 520.72 2138.32 573.793 2139.19 623.934 2140.29 675.999 2157.6 730.264 2197.25 765.784 2228.48 795.941 2273.35 807.95 2315.98 805.475 2355.45 803.87 2396.57 792.825 2426.1 765.326 2465.85 717.523 2478.21 652.487 2473.72 591.76 2471.02 540.245 2455.87 485.659 2416.49 449.955 2377.48 413.06 2319.74 404.948 2268.41 411.869Z" fill-rule="evenodd"/><path d="M2985.69 408.185C3030.02 403.966 3078.93 410.203 3113.91 440.057 3132.66 454.915 3144.76 480.091 3138.25 504.029 3133.62 522.647 3103.09 525.812 3094.38 508.936 3086.59 496.095 3082.79 479.403 3068.48 471.882 3041.9 457.62 3009.58 456.932 2980.65 463.215 2942.24 472.524 2916.47 508.202 2907.4 545.026 2898.96 579.741 2897.08 616.29 2902.17 651.646 2906.66 681.638 2922.57 712.959 2952.32 724.469 2996.88 741.07 3050.65 728.138 3083.61 693.974 3094.8 682.142 3100.66 665.22 3114.97 656.462 3133.21 646.235 3157.69 667.376 3150.81 687.095 3144.44 706.355 3128.63 720.434 3113.32 732.816 3090.9 749.416 3068.9 768.034 3041.57 775.83 2999.31 788.166 2950.99 787.891 2912.03 765.558 2871.78 742.216 2849.59 696.404 2844.78 651.28 2839.51 593.544 2844.92 531.727 2875.26 481.054 2897.54 440.744 2939.81 412.679 2985.69 408.185Z" fill-rule="evenodd"/><path d="M2684.72 432.38C2716.05 425.597 2750.97 428.393 2778.11 446.541 2792.47 455.844 2806.22 468.951 2809.3 486.457 2811.24 497.731 2809.63 512.396 2798.31 518.216 2789.71 522.111 2778.39 524.173 2770.15 518.674 2759.89 509.005 2754.14 494.752 2741.21 487.969 2721.61 476.879 2693.55 477.75 2677.49 494.614 2663.78 511.754 2663.37 535.722 2668.11 556.161 2671.42 576.83 2690.24 588.791 2703.72 602.86 2726.49 618.167 2752.81 631.182 2765.78 656.754 2789.84 698.732 2774.75 758.217 2732.66 782.827 2692.63 806.612 2636.87 804.183 2599.97 775.403 2578.4 759.042 2568.09 729.529 2575.27 703.453 2579.78 686.267 2602.59 681.18 2616.86 689.154 2628.77 697.083 2626.56 713.214 2631.49 725.038 2645.52 744.377 2673.49 752.305 2695.12 741.169 2715.27 731.958 2725.53 704.186 2713.2 685.122 2704.59 671.007 2690.01 662.253 2677.45 652.08 2653.34 633.565 2629.05 612.805 2616.76 584.3 2602.41 551.304 2603.56 511.479 2620.81 479.766 2634.06 455.935 2658.03 438.337 2684.72 432.38Z" fill-rule="evenodd"/><path d="M3234.07 473.442C3257.35 447.285 3295.43 440.093 3328.98 443.987 3361.7 445.911 3394.14 461.302 3413.11 488.559 3439.79 526.076 3444.6 573.854 3445.97 618.564 3446.57 677.016 3437.77 735.559 3421 791.537 3416.09 807.387 3403.77 826.902 3384.29 822.321 3367.75 820.443 3368.98 800.745 3364.08 788.743 3331.95 809.861 3289.75 807.754 3255.42 793.232 3223.99 779.765 3203.91 747.424 3199.7 714.212 3194.75 678.207 3199.93 637.941 3224.49 609.585 3244.65 585.627 3275.72 572.388 3306.8 571.381 3329.53 570.327 3354.64 573.076 3372.56 588.513 3378.79 593.369 3384.11 600.24 3392.4 601.66 3393.04 573.808 3387.77 544.308 3370.86 521.541 3356.1 501.843 3330.12 492.636 3306.11 496.3 3286.68 498.499 3270.96 512.15 3251.85 515.219 3232.56 513.799 3221.1 488.238 3234.07 473.442M3308.63 621.037C3293.73 623.145 3278.57 628.688 3268.58 640.369 3250.2 662.311 3250.15 694.927 3259.23 720.855 3271.78 753.287 3312.34 761.212 3342.91 754.112 3365.96 749.348 3383.6 728.917 3386.95 705.875 3390.34 682.146 3388.55 654.569 3371 636.475 3354.82 620.396 3330.08 618.381 3308.63 621.037Z" fill-rule="evenodd"/><path d="M3513.01 481.168C3512.55 460.751 3540.77 446.712 3556.45 460.522 3576.94 477.497 3578.41 506.08 3589.98 528.424 3601.18 513.375 3609.05 494.932 3625.56 484.563 3647.19 470.661 3675.36 468.367 3699.69 475.616 3717.76 481.351 3735.09 497.409 3733.95 517.78 3734.08 530.718 3723.43 543.793 3709.89 542.554 3693.93 537.966 3681.63 522.23 3663.93 523.882 3639.51 526.038 3622.13 548.152 3616.32 570.587 3608 604.446 3613.94 639.635 3610.65 674.045 3607.86 704.142 3604.52 736.303 3587.05 761.904 3577.76 776.815 3551.33 777.09 3544.06 760.344 3538.43 743.965 3546.39 727.265 3549.14 711.07 3559.61 669.227 3558.24 625.413 3551.38 583.112 3547.21 559.759 3539.94 536.865 3528.14 516.266 3522.34 504.979 3514.65 494.014 3513.01 481.168Z" fill-rule="evenodd"/></g></svg>