<svg width="3648" height="665" xmlns="http://www.w3.org/2000/svg" xmlns:xlink="http://www.w3.org/1999/xlink" xml:space="preserve" overflow="hidden"><defs><clipPath id="clip0"><rect x="96" y="1723" width="3648" height="665"/></clipPath></defs><g clip-path="url(#clip0)" transform="translate(-96 -1723)"><path d="M1544.06 1743.49C1595.53 1722.06 1652.68 1720.59 1707.49 1725.03 1757.54 1729.84 1809.79 1745.92 1843.98 1784.84 1887.43 1829.31 1893.53 1903.04 1860.53 1955.24 1841.01 1991.97 1806.4 2016.43 1772.81 2039.14 1787.66 2053.47 1802.96 2067.3 1819.01 2080.36 1824.87 2065.33 1828.26 2040.7 1849.35 2041.43 1892.57 2048.48 1935.05 2060.07 1978 2068.91 1990.88 2070.65 2004.63 2080.91 2001.74 2095.42 1994.5 2130.27 1980.24 2163.34 1963.52 2194.66 1986.43 2210.73 2009.49 2226.67 2033.73 2240.73 2043.72 2245.81 2050.37 2257.08 2047.21 2268.34 2042.76 2278.97 2034.19 2286.98 2026.9 2295.59 2002.34 2323.07 1978.64 2351.32 1954.03 2378.71 1947.29 2387.14 1935.01 2390.75 1925.29 2385.35 1894.81 2369.96 1866.81 2350.23 1837.66 2332.59 1760.89 2380.5 1667.39 2391.76 1578.66 2387 1514.13 2383.11 1445.61 2364.42 1401.42 2314.32 1369.39 2280.48 1351.19 2233.4 1354.35 2186.74 1356.23 2132.7 1385.93 2082.32 1427.64 2049.03 1445.84 2033.78 1466.69 2022.2 1487.59 2011.16 1457.25 1971.55 1438.55 1921.13 1445.38 1870.89 1450.88 1814.15 1491.94 1764.69 1544.06 1743.49M1552.67 1789.7C1520.04 1806.41 1494.6 1838.33 1490.84 1875.42 1484.93 1916 1501.98 1956.07 1527.05 1987.21 1535.07 1998.84 1549.19 2010.01 1545.48 2025.81 1543.05 2037.58 1530.81 2042.3 1521.19 2046.79 1485.66 2061.63 1451.47 2082.69 1427.92 2113.69 1408.02 2139.61 1397.53 2172.68 1400.14 2205.38 1404.54 2273.98 1467.61 2324.3 1532.18 2334.65 1583.43 2344.96 1636.41 2344.18 1688.06 2337.13 1726.74 2331.91 1765.06 2321.05 1799.16 2301.68 1810.02 2295.87 1819.92 2288.26 1831.43 2283.64 1841.37 2280.34 1850.45 2286.98 1858.7 2291.61 1882.53 2306.4 1906.18 2321.42 1929.97 2336.3 1950.68 2314.18 1969.89 2290.74 1990.01 2268.07 1966.04 2251.67 1941.42 2236.1 1918.28 2218.61 1907.74 2210.32 1909.3 2195.07 1916.12 2185 1930.2 2161.18 1942.16 2136.13 1950.45 2109.71 1921.76 2103.21 1892.98 2096.98 1864.29 2090.48 1857.55 2105.22 1853.06 2121.53 1842.61 2134.16 1830.46 2145.2 1813.28 2137.55 1803.56 2127.2 1774.55 2103.07 1746.09 2078.16 1719.73 2051.14 1710.38 2042.3 1712.08 2025.63 1722.39 2018.3 1756.63 1992.2 1798.7 1972.55 1820.43 1933.45 1841.69 1900.02 1841.65 1853.3 1816.12 1822.16 1789.72 1787.27 1744.76 1774.22 1703 1770.55 1652.54 1766.8 1599.1 1767.21 1552.67 1789.7Z" fill="#FFFFFF" fill-rule="evenodd"/><path d="M1649.99 1814.68C1673.26 1810.52 1698.88 1813.86 1718.71 1827.34 1744 1842.06 1754.14 1875.75 1744.27 1902.68 1733.26 1933.17 1707.05 1955.07 1680.24 1971.8 1669.64 1978.98 1654.12 1986.34 1643.15 1975.55 1619.74 1951.09 1595.04 1923.34 1590.32 1888.6 1586.6 1853.12 1616.34 1821.44 1649.99 1814.68M1635.53 1884.53C1639.29 1901.95 1651.96 1915.57 1662.43 1929.42 1677.99 1917.35 1696.17 1904.74 1701.81 1884.85 1705.94 1869.4 1689.1 1859.2 1675.69 1858.84 1658.62 1855.41 1636.26 1865.19 1635.53 1884.53Z" fill="#FFFFFF" fill-rule="evenodd"/><path d="M1589.94 2082.9C1600.53 2077.62 1611.7 2084.24 1619.12 2091.67 1659.48 2129.37 1699.84 2167.21 1743.45 2201.15 1757.65 2209.18 1763.01 2231.27 1748.07 2241.42 1705.01 2271.08 1650.09 2290 1597.91 2276.64 1552.93 2265.2 1513.12 2221.26 1519.72 2172.77 1523.8 2132.08 1556.87 2102.51 1589.94 2082.9M1564.47 2182.27C1565.21 2207.76 1588.02 2227.73 1611.7 2232.83 1639.46 2239.72 1668 2231.5 1693.42 2220.16 1660.35 2192.15 1628.19 2163.03 1596.49 2133.41 1581.47 2145.91 1564.29 2160.92 1564.47 2182.27Z" fill="#FFFFFF" fill-rule="evenodd"/><path d="M1552.86 1789.9C1599.27 1767.44 1652.68 1767.03 1703.12 1770.78 1744.86 1774.44 1789.8 1787.48 1816.19 1822.33 1841.71 1853.44 1841.75 1900.1 1820.49 1933.49 1798.78 1972.55 1756.72 1992.18 1722.5 2018.25 1712.19 2025.57 1710.5 2042.22 1719.84 2051.05 1746.19 2078.04 1774.64 2102.92 1803.64 2127.03 1813.35 2137.37 1830.53 2145.01 1842.67 2133.98 1853.11 2121.36 1857.6 2105.07 1864.34 2090.34 1893.02 2096.84 1921.79 2103.06 1950.46 2109.56 1942.17 2135.95 1930.21 2160.97 1916.15 2184.76 1909.32 2194.82 1907.77 2210.05 1918.3 2218.33 1941.44 2235.81 1966.04 2251.36 1990 2267.74 1969.89 2290.38 1950.69 2313.8 1929.99 2335.89 1906.21 2321.03 1882.57 2306.02 1858.75 2291.25 1850.5 2286.63 1841.43 2280 1831.49 2283.29 1819.99 2287.91 1810.09 2295.5 1799.24 2301.31 1765.15 2320.66 1726.85 2331.5 1688.19 2336.72 1636.56 2343.76 1583.6 2344.54 1532.38 2334.25 1467.83 2323.91 1404.79 2273.64 1400.39 2205.11 1397.78 2172.45 1408.27 2139.43 1428.16 2113.54 1451.7 2082.57 1485.88 2061.53 1521.39 2046.7 1531.01 2042.22 1543.24 2037.51 1545.67 2025.75 1549.38 2009.97 1535.27 1998.81 1527.25 1987.19 1502.19 1956.09 1485.15 1916.06 1491.06 1875.53 1494.81 1838.48 1520.24 1806.6 1552.86 1789.9M1650.07 1814.78C1616.49 1821.55 1586.81 1853.25 1590.52 1888.75 1595.23 1923.52 1619.88 1951.28 1643.25 1975.76 1654.19 1986.55 1669.68 1979.19 1680.26 1972.01 1707.02 1955.26 1733.18 1933.35 1744.17 1902.84 1754.02 1875.9 1743.9 1842.18 1718.65 1827.46 1698.86 1813.96 1673.3 1810.62 1650.07 1814.78M1589.97 2083.21C1556.89 2102.74 1523.81 2132.2 1519.74 2172.73 1513.14 2221.03 1552.95 2264.81 1597.94 2276.2 1650.12 2289.51 1705.05 2270.66 1748.11 2241.11 1763.05 2231 1757.69 2209 1743.48 2201 1699.87 2167.19 1659.51 2129.5 1619.15 2091.94 1611.73 2084.53 1600.55 2077.95 1589.97 2083.21Z" fill="#FFFFFF" fill-rule="evenodd"/><path d="M101.183 1910.44C138.682 1859.48 202.036 1832.83 263.922 1827.93 307.06 1825.28 351.618 1827.66 392.326 1843.36 426.754 1857.24 459.806 1879.9 476.951 1913.78 497.212 1952.79 496.066 1999.22 485.752 2040.93 474.154 2087.27 439.406 2128.84 393.014 2143.04 361.612 2152.15 327.276 2151.92 296.287 2141.2 281.251 2136.31 269.332 2125.5 256.313 2116.94 252.187 2187.49 250.124 2259.15 230.549 2327.51 226.928 2346.01 201.669 2351.82 188.696 2339.46 180.49 2330.58 182.186 2317.48 183.561 2306.49 192.638 2256.36 189.704 2205.12 195.343 2154.62 199.973 2089.15 198.002 2023.4 196.81 1957.83 196.076 1939.84 196.26 1921.66 193.234 1903.85 166.783 1912 154.498 1944.73 126.901 1952.34 105.905 1955.22 86.3763 1927.98 101.183 1910.44M252.049 1887.87C255.029 1930.95 256.954 1974.18 257.459 2017.4 257.871 2041.16 255.533 2064.92 258.009 2088.64 265.756 2083.83 272.907 2077.15 282.259 2075.59 304.355 2079.35 323.792 2093.4 346.759 2093.59 373.943 2095.56 399.798 2080.17 414.743 2058.15 443.027 2015.84 442.615 1950.46 401.723 1916.07 361.016 1880.82 302.613 1878.89 252.049 1887.87Z" fill="#FFFFFF" fill-rule="evenodd"/><path d="M581.103 1835.93C597.739 1829.22 619.797 1833.97 628.185 1850.72 637.406 1869.34 634.209 1899.87 611.363 1907.18 592.966 1914.11 569.287 1908.23 560.204 1890.02 549.546 1870.39 560.111 1843.83 581.103 1835.93Z" fill="#FFFFFF" fill-rule="evenodd"/><path d="M1007.2 1931.93C1014.65 1914.31 1041.26 1908.73 1054.15 1923.46 1063.25 1933.07 1060.55 1947.07 1059.5 1958.97 1051.77 2019.32 1042.9 2080.09 1046.1 2141.13 1048.39 2169.09 1052.32 2200.16 1073.17 2220.88 1090.77 2238.09 1118.47 2236.53 1140.05 2228.75 1169.95 2216.86 1188.05 2186.43 1194.13 2155.95 1201.31 2119.35 1196.92 2081.87 1198.88 2044.86 1200.53 2013.33 1198.61 1979.38 1214.56 1950.92 1223.3 1934.85 1251.96 1935.72 1256.44 1954.76 1260.78 1972.47 1257.58 1990.91 1256.9 2008.89 1251.87 2080.23 1254.79 2151.84 1260.55 2223.03 1261.47 2237.68 1265.22 2251.95 1270.02 2265.82 1276.97 2284.81 1245.19 2300.32 1233.4 2284.4 1218.41 2266.96 1217.86 2242.62 1208.12 2222.53 1194.91 2238.82 1182.52 2256.53 1164.64 2268.11 1127.07 2293.41 1072.03 2296.02 1035.68 2267.1 1004.05 2239.92 994.629 2196.31 990.058 2156.73 985.715 2101.41 988.686 2045.63 994.858 1990.54 997.875 1970.87 998.652 1950.23 1007.2 1931.93Z" fill="#FFFFFF" fill-rule="evenodd"/><path d="M806.078 1922.91C823.074 1913.25 846.118 1929.14 841.766 1948.56 841.674 1960.15 828.801 1971.37 832.786 1982.09 864.946 1986.63 902.329 1984.52 927.709 2008.34 942.689 2021.62 936.825 2053.87 914.515 2053.64 881.347 2044.98 848.729 2027.99 813.362 2034.13 805.666 2074.16 799.848 2115.61 807.453 2156.1 812.034 2180.11 826.098 2206.17 851.844 2211.89 873.33 2218.31 892.708 2200.72 913.874 2203.19 929.404 2205.48 932.656 2224.4 929.45 2237.13 924.273 2253.67 906.086 2260.13 890.83 2263.93 852.257 2271.85 806.765 2265.26 779.461 2234.57 753.624 2204.61 746.935 2163.48 745.377 2125.23 743.728 2096.74 748.768 2068.62 752.936 2040.58 728.335 2043.93 703.001 2055.2 678.263 2047.18 661.908 2041.45 662.412 2016.77 676.797 2008.93 703.322 1991.34 736.536 1990.79 766.909 1985.39 775.522 1962.58 783.447 1935.74 806.078 1922.91Z" fill="#FFFFFF" fill-rule="evenodd"/><path d="M585.498 1945.3C596.875 1942.05 612.593 1944.52 617.437 1956.85 621.823 1968.72 620.726 1981.74 621.001 1994.16 619.584 2068.86 619.401 2143.84 609.166 2218 606.699 2235.55 603.546 2254.11 591.94 2268.23 582.162 2281.84 558.631 2278.82 551 2264.61 553.01 2243.3 552.234 2221.71 556.255 2200.63 567.084 2132.25 562.058 2062.81 563.063 1993.98 564.388 1976.38 566.124 1952.22 585.498 1945.3Z" fill="#FFFFFF" fill-rule="evenodd"/><path d="M2276.58 1839.84C2341.73 1832.93 2412.94 1844.64 2463.67 1888.79 2513.35 1930.78 2537.98 1995.55 2542.97 2059.13 2550.03 2132.91 2540.14 2214.47 2489.86 2272.43 2450.57 2319.77 2389.13 2343.74 2328.64 2346.16 2273.56 2350.92 2215.68 2335.5 2174.24 2297.9 2145.49 2271.05 2116.96 2241.46 2104 2203.4 2081.75 2140.73 2085.18 2071.66 2099.24 2007.58 2112.61 1957.54 2137.7 1907.81 2180.24 1876.39 2208.17 1855.58 2242.1 1843.82 2276.58 1839.84M2278.41 1897.75C2237.93 1903.29 2200.34 1927.3 2179.6 1962.66 2153.09 2006.39 2148.32 2059.36 2149.19 2109.4 2150.29 2161.36 2167.6 2215.52 2207.25 2250.97 2238.48 2281.07 2283.35 2293.06 2325.98 2290.59 2365.45 2288.98 2406.57 2277.96 2436.1 2250.52 2475.85 2202.81 2488.21 2137.9 2483.72 2077.29 2481.02 2025.88 2465.87 1971.4 2426.49 1935.76 2387.48 1898.94 2329.74 1890.84 2278.41 1897.75Z" fill="#FFFFFF" fill-rule="evenodd"/><path d="M2995.69 1894.18C3040.02 1889.97 3088.94 1896.19 3123.91 1925.97 3142.66 1940.79 3154.76 1965.9 3148.25 1989.77 3143.62 2008.34 3113.09 2011.5 3104.38 1994.67 3096.59 1981.86 3092.79 1965.21 3078.48 1957.71 3051.9 1943.49 3019.58 1942.8 2990.65 1949.07 2952.24 1958.35 2926.47 1993.93 2917.4 2030.66 2908.96 2065.28 2907.08 2101.73 2912.17 2137 2916.66 2166.91 2932.57 2198.15 2962.32 2209.63 3006.88 2226.18 3060.65 2213.29 3093.61 2179.21 3104.8 2167.41 3110.66 2150.54 3124.97 2141.8 3143.21 2131.6 3167.69 2152.69 3160.81 2172.35 3154.44 2191.56 3138.63 2205.6 3123.32 2217.95 3100.9 2234.51 3078.9 2253.08 3051.57 2260.85 3009.31 2273.16 2960.99 2272.88 2922.03 2250.61 2881.78 2227.33 2859.59 2181.64 2854.78 2136.63 2849.51 2079.05 2854.92 2017.4 2885.26 1966.86 2907.54 1926.65 2949.81 1898.66 2995.69 1894.18Z" fill="#FFFFFF" fill-rule="evenodd"/><path d="M2694.25 1917.38C2725.44 1910.6 2760.22 1913.39 2787.25 1931.54 2801.54 1940.84 2815.24 1953.95 2818.31 1971.46 2820.23 1982.73 2818.63 1997.4 2807.36 2003.22 2798.79 2007.11 2787.52 2009.17 2779.32 2003.67 2769.1 1994 2763.38 1979.75 2750.5 1972.97 2730.99 1961.88 2703.04 1962.75 2687.05 1979.61 2673.4 1996.75 2672.99 2020.72 2677.71 2041.16 2681.01 2061.83 2699.74 2073.79 2713.17 2087.86 2735.84 2103.17 2762.05 2116.18 2774.97 2141.75 2798.93 2183.73 2783.9 2243.22 2741.98 2267.83 2702.13 2291.61 2646.6 2289.18 2609.86 2260.4 2588.37 2244.04 2578.11 2214.53 2585.26 2188.45 2589.75 2171.27 2612.47 2166.18 2626.67 2174.15 2638.54 2182.08 2636.34 2198.21 2641.24 2210.04 2655.21 2229.38 2683.07 2237.31 2704.6 2226.17 2724.67 2216.96 2734.88 2189.19 2722.6 2170.12 2714.04 2156.01 2699.51 2147.25 2687.01 2137.08 2663 2118.56 2638.81 2097.8 2626.58 2069.3 2612.29 2036.3 2613.43 1996.48 2630.61 1964.77 2643.81 1940.94 2667.67 1923.34 2694.25 1917.38Z" fill="#FFFFFF" fill-rule="evenodd"/><path d="M3244.07 1959.44C3267.35 1933.29 3305.43 1926.09 3338.98 1929.99 3371.7 1931.91 3404.14 1947.3 3423.11 1974.56 3449.78 2012.08 3454.6 2059.85 3455.97 2104.56 3456.57 2163.02 3447.77 2221.56 3431 2277.54 3426.09 2293.39 3413.77 2312.9 3394.29 2308.32 3377.75 2306.44 3378.98 2286.74 3374.08 2274.74 3341.95 2295.86 3299.75 2293.75 3265.42 2279.23 3233.99 2265.76 3213.91 2233.42 3209.7 2200.21 3204.75 2164.21 3209.93 2123.94 3234.49 2095.59 3254.65 2071.63 3285.72 2058.39 3316.8 2057.38 3339.53 2056.33 3364.64 2059.08 3382.56 2074.51 3388.79 2079.37 3394.11 2086.24 3402.4 2087.66 3403.04 2059.81 3397.77 2030.31 3380.86 2007.54 3366.1 1987.84 3340.12 1978.64 3316.11 1982.3 3296.68 1984.5 3280.96 1998.15 3261.85 2001.22 3242.56 1999.8 3231.1 1974.24 3244.07 1959.44M3318.63 2107.04C3303.73 2109.14 3288.57 2114.69 3278.58 2126.37 3260.2 2148.31 3260.15 2180.93 3269.23 2206.85 3281.78 2239.29 3322.34 2247.21 3352.91 2240.11 3375.96 2235.35 3393.6 2214.92 3396.95 2191.88 3400.34 2168.15 3398.55 2140.57 3381 2122.48 3364.82 2106.4 3340.07 2104.38 3318.63 2107.04Z" fill="#FFFFFF" fill-rule="evenodd"/><path d="M3522.01 1967.09C3521.55 1946.73 3549.89 1932.74 3565.65 1946.5 3586.23 1963.43 3587.7 1991.92 3599.32 2014.19 3610.58 1999.19 3618.48 1980.81 3635.07 1970.47 3656.8 1956.61 3685.1 1954.33 3709.54 1961.55 3727.68 1967.27 3745.09 1983.28 3743.95 2003.58 3744.08 2016.48 3733.38 2029.51 3719.78 2028.28 3703.75 2023.71 3691.39 2008.02 3673.61 2009.66 3649.08 2011.81 3631.62 2033.86 3625.79 2056.22 3617.43 2089.98 3623.4 2125.05 3620.09 2159.36 3617.29 2189.36 3613.93 2221.42 3596.38 2246.94 3587.06 2261.8 3560.5 2262.08 3553.2 2245.38 3547.55 2229.06 3555.54 2212.41 3558.3 2196.26 3568.82 2154.55 3567.44 2110.88 3560.55 2068.71 3556.37 2045.43 3549.06 2022.61 3537.21 2002.07 3531.38 1990.82 3523.66 1979.89 3522.01 1967.09Z" fill="#FFFFFF" fill-rule="evenodd"/></g></svg>