<svg width="3667" height="665" xmlns="http://www.w3.org/2000/svg" xmlns:xlink="http://www.w3.org/1999/xlink" xml:space="preserve" overflow="hidden"><defs><clipPath id="clip0"><rect x="290" y="1467" width="3667" height="665"/></clipPath></defs><g clip-path="url(#clip0)" transform="translate(-290 -1467)"><path d="M1748.06 1487.49C1799.53 1466.06 1856.68 1464.59 1911.49 1469.03 1961.54 1473.84 2013.79 1489.92 2047.98 1528.84 2091.43 1573.31 2097.53 1647.04 2064.53 1699.24 2045.01 1735.97 2010.4 1760.43 1976.81 1783.14 1991.66 1797.47 2006.96 1811.3 2023.01 1824.36 2028.87 1809.34 2032.26 1784.7 2053.35 1785.43 2096.57 1792.48 2139.05 1804.07 2182 1812.91 2194.88 1814.65 2208.63 1824.91 2205.74 1839.42 2198.5 1874.27 2184.24 1907.34 2167.52 1938.66 2190.43 1954.73 2213.49 1970.67 2237.73 1984.73 2247.72 1989.81 2254.37 2001.08 2251.21 2012.34 2246.76 2022.97 2238.19 2030.98 2230.9 2039.59 2206.34 2067.07 2182.64 2095.32 2158.03 2122.71 2151.29 2131.14 2139.01 2134.75 2129.29 2129.35 2098.81 2113.96 2070.81 2094.22 2041.66 2076.59 1964.89 2124.5 1871.39 2135.76 1782.66 2131 1718.13 2127.11 1649.61 2108.42 1605.42 2058.32 1573.39 2024.48 1555.19 1977.4 1558.35 1930.74 1560.23 1876.7 1589.93 1826.32 1631.64 1793.03 1649.84 1777.78 1670.69 1766.2 1691.59 1755.16 1661.25 1715.55 1642.55 1665.13 1649.38 1614.89 1654.88 1558.15 1695.94 1508.69 1748.06 1487.49M1756.67 1533.7C1724.04 1550.41 1698.6 1582.33 1694.84 1619.42 1688.93 1660 1705.98 1700.07 1731.05 1731.21 1739.07 1742.84 1753.19 1754.01 1749.48 1769.81 1747.05 1781.58 1734.81 1786.3 1725.19 1790.79 1689.66 1805.63 1655.47 1826.69 1631.92 1857.69 1612.02 1883.61 1601.53 1916.68 1604.14 1949.38 1608.54 2017.98 1671.61 2068.3 1736.18 2078.65 1787.43 2088.96 1840.41 2088.18 1892.06 2081.13 1930.74 2075.91 1969.06 2065.05 2003.16 2045.68 2014.02 2039.87 2023.92 2032.26 2035.43 2027.64 2045.37 2024.34 2054.45 2030.98 2062.7 2035.61 2086.53 2050.4 2110.18 2065.42 2133.97 2080.3 2154.68 2058.18 2173.89 2034.74 2194.01 2012.07 2170.04 1995.67 2145.42 1980.1 2122.28 1962.61 2111.74 1954.32 2113.3 1939.07 2120.12 1929 2134.2 1905.18 2146.16 1880.13 2154.45 1853.71 2125.76 1847.21 2096.98 1840.98 2068.29 1834.48 2061.55 1849.22 2057.06 1865.53 2046.61 1878.16 2034.46 1889.2 2017.28 1881.55 2007.56 1871.2 1978.55 1847.07 1950.09 1822.16 1923.73 1795.14 1914.38 1786.3 1916.08 1769.63 1926.39 1762.3 1960.63 1736.2 2002.7 1716.55 2024.43 1677.45 2045.69 1644.02 2045.65 1597.3 2020.12 1566.16 1993.72 1531.27 1948.76 1518.22 1907 1514.55 1856.54 1510.8 1803.1 1511.21 1756.67 1533.7Z" fill="#0070C0" fill-rule="evenodd"/><path d="M1853.99 1558.68C1877.26 1554.52 1902.88 1557.86 1922.71 1571.34 1948 1586.06 1958.14 1619.75 1948.27 1646.68 1937.26 1677.17 1911.05 1699.07 1884.24 1715.8 1873.64 1722.98 1858.12 1730.34 1847.15 1719.55 1823.74 1695.09 1799.04 1667.34 1794.32 1632.6 1790.6 1597.12 1820.34 1565.44 1853.99 1558.68M1839.53 1628.53C1843.29 1645.95 1855.96 1659.57 1866.43 1673.42 1881.99 1661.35 1900.17 1648.74 1905.81 1628.85 1909.94 1613.4 1893.1 1603.2 1879.69 1602.84 1862.62 1599.41 1840.26 1609.19 1839.53 1628.53Z" fill="#0070C0" fill-rule="evenodd"/><path d="M1793.94 1827.89C1804.53 1822.64 1815.7 1829.22 1823.12 1836.62 1863.48 1874.13 1903.84 1911.78 1947.45 1945.55 1961.65 1953.54 1967.01 1975.52 1952.07 1985.62 1909.01 2015.13 1854.09 2033.96 1801.91 2020.66 1756.93 2009.28 1717.12 1965.56 1723.72 1917.31 1727.8 1876.83 1760.87 1847.4 1793.94 1827.89M1768.47 1926.77C1769.21 1952.12 1792.02 1972 1815.7 1977.07 1843.46 1983.93 1872 1975.75 1897.42 1964.46 1864.35 1936.59 1832.19 1907.62 1800.49 1878.15 1785.47 1890.58 1768.29 1905.52 1768.47 1926.77Z" fill="#0070C0" fill-rule="evenodd"/><path d="M1756.86 1533.94C1803.27 1511.44 1856.68 1511.02 1907.12 1514.78 1948.86 1518.45 1993.8 1531.51 2020.19 1566.43 2045.71 1597.58 2045.75 1644.32 2024.49 1677.78 2002.78 1716.91 1960.72 1736.57 1926.5 1762.69 1916.19 1770.02 1914.5 1786.7 1923.84 1795.54 1950.19 1822.58 1978.64 1847.51 2007.64 1871.65 2017.35 1882.01 2034.53 1889.66 2046.67 1878.62 2057.11 1865.97 2061.6 1849.66 2068.34 1834.9 2097.02 1841.41 2125.79 1847.64 2154.46 1854.15 2146.17 1880.59 2134.21 1905.66 2120.15 1929.48 2113.32 1939.57 2111.77 1954.82 2122.3 1963.12 2145.44 1980.62 2170.04 1996.2 2194 2012.61 2173.89 2035.29 2154.69 2058.75 2133.99 2080.88 2110.21 2065.99 2086.57 2050.96 2062.75 2036.16 2054.5 2031.53 2045.43 2024.89 2035.49 2028.19 2023.99 2032.82 2014.09 2040.42 2003.24 2046.24 1969.15 2065.63 1930.85 2076.49 1892.19 2081.71 1840.56 2088.77 1787.6 2089.54 1736.38 2079.23 1671.83 2068.88 1608.79 2018.52 1604.39 1949.88 1601.78 1917.16 1612.27 1884.07 1632.16 1858.14 1655.7 1827.11 1689.88 1806.04 1725.38 1791.19 1735.01 1786.7 1747.24 1781.98 1749.67 1770.2 1753.38 1754.39 1739.27 1743.21 1731.25 1731.57 1706.19 1700.41 1689.15 1660.32 1695.06 1619.72 1698.81 1582.6 1724.24 1550.66 1756.86 1533.94M1854.07 1558.86C1820.49 1565.65 1790.81 1597.4 1794.52 1632.96 1799.23 1667.79 1823.88 1695.6 1847.25 1720.12 1858.19 1730.93 1873.68 1723.55 1884.26 1716.36 1911.02 1699.59 1937.18 1677.64 1948.17 1647.07 1958.02 1620.08 1947.9 1586.31 1922.65 1571.56 1902.86 1558.04 1877.3 1554.69 1854.07 1558.86M1793.97 1827.76C1760.89 1847.32 1727.81 1876.83 1723.74 1917.43 1717.14 1965.82 1756.95 2009.67 1801.94 2021.08 1854.12 2034.42 1909.05 2015.54 1952.11 1985.94 1967.05 1975.81 1961.69 1953.77 1947.48 1945.75 1903.87 1911.89 1863.51 1874.13 1823.15 1836.51 1815.73 1829.08 1804.55 1822.49 1793.97 1827.76Z" fill="#FFFF00" fill-rule="evenodd"/><path d="M296.263 1650.38C335.337 1596.15 402.432 1567.94 467.785 1562.96 526.579 1559.12 589.455 1565.93 639.214 1599.99 674.573 1622.17 698.834 1660.48 704.291 1701.72 707.96 1731.35 705.713 1761.8 697.641 1790.56 685.213 1833.99 654.761 1873.49 612.339 1891.14 565.974 1909.84 510.298 1906.82 467.785 1879.67 466.317 1939.88 460.447 2000.14 447.606 2059.08 444.808 2070.92 441.644 2083.99 431.462 2091.86 416.053 2104.34 388.032 2100.27 380.006 2081.16 372.255 2063.33 379.456 2044.12 381.29 2025.88 385.968 1980.48 385.097 1934.71 390.141 1889.31 393.902 1813.74 392.572 1737.93 389.087 1662.35 372.026 1676.62 357.947 1695.78 336.942 1704.55 307.545 1714.48 276.405 1676.07 296.263 1650.38M304.702 1654.77C289.889 1672.28 309.425 1699.48 330.43 1696.6 358.038 1689.01 370.329 1656.32 396.791 1648.18 399.818 1665.97 399.635 1684.12 400.368 1702.09 401.561 1767.56 403.533 1833.21 398.901 1898.59 393.26 1949.02 396.195 2000.19 387.115 2050.25 385.739 2061.22 384.042 2074.3 392.251 2083.17 405.23 2095.52 430.499 2089.71 434.122 2071.24 453.705 2002.98 455.769 1931.42 459.896 1860.97 472.921 1869.52 484.845 1880.31 499.887 1885.2 530.89 1895.9 565.24 1896.13 596.655 1887.03 643.066 1872.85 677.829 1831.34 689.432 1785.07 699.751 1743.42 700.898 1697.06 680.627 1658.1 663.475 1624.27 630.409 1601.64 595.967 1587.78 555.242 1572.1 510.665 1569.72 467.509 1572.38 405.597 1577.27 342.216 1603.88 304.702 1654.77Z" fill="#090503" fill-rule="evenodd" fill-opacity="0.929412"/><path d="M781.339 1571.66C802.191 1563.07 829.611 1569.7 840.129 1590.51 849.958 1610.14 847.845 1637.72 830.759 1652.85 808.713 1669.75 771.465 1665.52 757.41 1640.35 742.346 1616.23 755.252 1582.15 781.339 1571.66M785.198 1580.06C764.392 1587.92 753.92 1614.37 764.483 1633.9 773.486 1652.03 796.955 1657.89 815.189 1650.98 837.833 1643.72 841.002 1613.32 831.862 1594.78 823.549 1578.11 801.686 1573.38 785.198 1580.06Z" fill="#090503" fill-rule="evenodd" fill-opacity="0.929412"/><path d="M2463.03 1576.17C2531.96 1565.32 2608.09 1574.43 2664.7 1618.1 2720.48 1660.41 2749.49 1729.63 2755.45 1797.94 2764.35 1879.57 2751.56 1971.5 2691.42 2032.34 2639.86 2086.68 2560.7 2104.91 2488.05 2098.91 2438.18 2094.65 2390.74 2071.07 2356.41 2034.86 2340.14 2017.28 2322.77 2000.06 2311.36 1978.73 2285.32 1932.26 2279.46 1877.37 2282.89 1824.99 2285.09 1768.31 2298.84 1710.63 2330.7 1663.02 2359.39 1616.55 2409.54 1585.28 2463.03 1576.17M2479.89 1583.22C2445.38 1587.2 2411.42 1598.97 2383.46 1619.8 2340.88 1651.25 2315.76 1701.01 2302.37 1751.1 2288.3 1815.24 2284.86 1884.37 2307.14 1947.09 2320.11 1985.18 2348.67 2014.81 2377.45 2041.68 2418.93 2079.31 2476.87 2094.74 2532.01 2089.98 2592.56 2087.55 2654.07 2063.56 2693.39 2016.18 2743.72 1958.17 2753.62 1876.54 2746.56 1802.7 2741.57 1739.06 2716.91 1674.23 2667.18 1632.2 2616.39 1588.02 2545.12 1576.3 2479.89 1583.22Z" fill="#090503" fill-rule="evenodd" fill-opacity="0.929412"/><path d="M456 1631.55C506.461 1622.55 564.745 1624.48 605.37 1659.83 646.178 1694.31 646.59 1759.87 618.363 1802.29 603.449 1824.38 577.646 1839.8 550.517 1837.83 527.597 1837.65 508.2 1823.55 486.149 1819.79 476.816 1821.35 469.679 1828.05 461.948 1832.87 459.477 1809.09 461.81 1785.26 461.399 1761.43 460.895 1718.09 458.974 1674.75 456 1631.55M466.385 1638.53C468.764 1696.79 472.744 1755.14 469.816 1813.5 495.024 1804.08 516.938 1823.41 541.047 1827.09 567.078 1832.73 595.168 1820.43 609.671 1798.21 637.257 1758.4 636.571 1695.04 595.854 1664.15 559.804 1634.58 510.396 1634.39 466.385 1638.53Z" fill="#090503" fill-rule="evenodd" fill-opacity="0.929412"/><path d="M3182.92 1631.99C3221.94 1624.63 3263.8 1627.05 3300.62 1642.65 3327.21 1654.5 3352.75 1675 3360.87 1704.01 3364.35 1719.43 3364.86 1738.38 3352.84 1750.41 3341.56 1760.06 3324.09 1761.9 3310.89 1755.26 3292.55 1743.82 3293.74 1715.22 3272.05 1707.31 3233.22 1692.76 3181.31 1695.55 3153.71 1730.09 3124.18 1766.88 3120.88 1816.85 3122.99 1862.1 3124.59 1893.86 3135.83 1930.92 3167.69 1944.51 3205.98 1960.39 3252.8 1950.6 3283.79 1923.69 3299.84 1910.6 3306.17 1888.28 3324.64 1877.75 3348.99 1864.94 3380.86 1890.75 3374.07 1917.24 3367.84 1940.12 3349.4 1957.09 3331.2 1971.09 3310.48 1986.15 3290.49 2003.26 3265.86 2011.73 3224.6 2026.41 3177.64 2027.28 3136.65 2011.18 3090.62 1992.6 3060.77 1946.66 3051.78 1899.21 3042.29 1843.43 3046.56 1784.32 3067.92 1731.65 3087.41 1682.64 3129.87 1641.65 3182.92 1631.99M3199.33 1638.63C3153.44 1643.11 3111.16 1671.11 3088.88 1711.33 3058.52 1761.9 3053.11 1823.58 3058.39 1881.18 3063.2 1926.21 3085.39 1971.92 3125.65 1995.21 3164.62 2017.49 3212.95 2017.77 3255.23 2005.46 3282.55 1997.68 3304.56 1979.1 3326.98 1962.54 3342.3 1950.18 3358.12 1936.14 3364.49 1916.92 3371.37 1897.24 3346.88 1876.15 3328.63 1886.35 3314.33 1895.09 3308.46 1911.98 3297.27 1923.78 3264.3 1957.87 3210.52 1970.77 3165.95 1954.21 3136.19 1942.73 3120.28 1911.47 3115.79 1881.55 3110.7 1846.27 3112.58 1809.8 3121.02 1775.16 3130.1 1738.42 3155.87 1702.82 3194.29 1693.53 3223.22 1687.27 3255.55 1687.95 3282.14 1702.18 3296.45 1709.69 3300.25 1726.34 3308.05 1739.15 3316.76 1755.99 3347.3 1752.84 3351.93 1734.26 3358.44 1710.37 3346.33 1685.25 3327.58 1670.43 3292.59 1640.64 3243.67 1634.42 3199.33 1638.63Z" fill="#090503" fill-rule="evenodd" fill-opacity="0.929412"/><path d="M2482.12 1641.24C2533.37 1634.33 2591.02 1642.43 2629.98 1679.31 2669.3 1715 2684.43 1769.57 2687.13 1821.06 2691.61 1881.76 2679.26 1946.77 2639.58 1994.55 2610.09 2022.04 2569.03 2033.08 2529.62 2034.69 2487.06 2037.16 2442.25 2025.16 2411.07 1995.01 2371.47 1959.51 2354.19 1905.26 2353.09 1853.22 2352.23 1803.1 2356.98 1750.05 2383.45 1706.25 2404.16 1670.84 2441.7 1646.79 2482.12 1641.24M2476.17 1652.01C2441.52 1658.61 2409.74 1679.73 2391.82 1710.42 2364.71 1755.59 2360.5 1810.43 2362.83 1862.02 2365.16 1915.02 2387.89 1969.63 2432.42 2000.51 2476.36 2030.65 2534.1 2030.84 2583.57 2015.95 2606.34 2007.84 2630.11 1996.29 2642.73 1974.58 2678.67 1921.76 2683.47 1854.36 2674.88 1792.7 2668.43 1751.29 2652.06 1708.91 2618.68 1681.83 2579.69 1649.21 2524.78 1643.17 2476.17 1652.01Z" fill="#090503" fill-rule="evenodd" fill-opacity="0.929412"/><path d="M2907.93 1650.42C2947.05 1644.83 2990.43 1655.56 3017.12 1686.05 3030.47 1700.87 3036.43 1723.15 3028.31 1741.95 3020.47 1759.89 2995.61 1765.66 2979.15 1756.81 2965.94 1747.32 2960.4 1729.3 2944.44 1723.2 2927.52 1716.32 2902.8 1718.34 2893.76 1736.5 2884.96 1754.52 2886.7 1776.39 2894.41 1794.46 2908.62 1817.16 2931.69 1831.79 2954.07 1845.55 2985.57 1867.06 3004.6 1906.82 2998.23 1944.88 2994.33 1987.02 2961.45 2023.8 2920.59 2033.71 2871.29 2046.13 2808.7 2032.24 2784.39 1983.49 2776.28 1966.16 2774.35 1945.34 2781.09 1927.22 2790.22 1901.27 2832.41 1898.1 2845.48 1922.22 2851.85 1933.64 2848.41 1950.29 2860.84 1957.9 2878.63 1973.17 2912.47 1968.22 2920.04 1944.37 2926.64 1930.43 2917.93 1915.53 2906.97 1906.86 2880.42 1884.67 2849.92 1865.54 2831.21 1835.55 2807.74 1800.24 2804.75 1753.14 2821.13 1714.39 2836.12 1679.68 2870.33 1654.5 2907.93 1650.42M2897.8 1661.89C2871.2 1667.85 2847.31 1685.46 2834.1 1709.3 2816.91 1741.04 2815.76 1780.89 2830.07 1813.91 2842.31 1842.43 2866.52 1863.2 2890.55 1881.73 2903.07 1891.91 2917.61 1900.67 2926.19 1914.79 2938.48 1933.87 2928.25 1961.66 2908.16 1970.88 2886.61 1982.02 2858.73 1974.09 2844.74 1954.74 2839.84 1942.91 2842.04 1926.76 2830.16 1918.83 2815.94 1910.85 2793.2 1915.94 2788.7 1933.14 2781.55 1959.23 2791.82 1988.76 2813.33 2005.14 2850.11 2033.94 2905.69 2036.37 2945.58 2012.57 2987.54 1987.94 3002.58 1928.42 2978.6 1886.41 2965.67 1860.82 2939.44 1847.8 2916.74 1832.48 2903.3 1818.4 2884.55 1806.43 2881.24 1785.75 2876.52 1765.3 2876.93 1741.31 2890.6 1724.16 2906.6 1707.29 2934.58 1706.41 2954.11 1717.51 2967 1724.3 2972.73 1738.56 2982.96 1748.24 2991.17 1753.74 3002.45 1751.68 3011.02 1747.78 3022.3 1741.95 3023.91 1727.28 3021.98 1716 3018.91 1698.48 3005.2 1685.37 2990.89 1676.06 2963.83 1657.9 2929.03 1655.1 2897.8 1661.89Z" fill="#090503" fill-rule="evenodd" fill-opacity="0.929412"/><path d="M1194.32 1694.93C1197.21 1674.46 1209.54 1651.35 1232.61 1649.61 1254.57 1645.17 1276.35 1665.77 1273.65 1687.88 1266.63 1759.11 1252.6 1830.7 1260.67 1902.53 1263.56 1921.29 1268.05 1941.16 1281.03 1955.72 1297.49 1973.48 1325.55 1970.73 1345.63 1961.3 1376.76 1945.46 1389.47 1908.93 1391.8 1876.16 1394.92 1827.22 1390.47 1777.87 1397.26 1729.12 1400.06 1713.01 1403.63 1695.48 1415.83 1683.53 1428.58 1670.44 1452.92 1670.44 1464.25 1685.45 1475.12 1700.83 1471.72 1720.88 1471.27 1738.51 1465.4 1816.14 1467.37 1894.24 1474.66 1971.69 1475.21 1986.07 1481.81 1999.02 1484.97 2012.85 1486.08 2037.16 1451.55 2053.86 1433.35 2037.43 1418.86 2024.11 1414.5 2003.92 1409.5 1985.7 1389.28 2010.1 1363.61 2031.66 1331.65 2037.84 1294.92 2045.49 1252.09 2039.26 1225.41 2010.88 1195.65 1979.8 1187.44 1935.35 1183.27 1894.15 1179.88 1827.63 1183.18 1760.62 1194.32 1694.93M1210.51 1675.52C1201.93 1693.83 1201.15 1714.47 1198.13 1734.16 1191.94 1789.27 1188.96 1845.08 1193.31 1900.42 1197.9 1940.02 1207.34 1983.64 1239.07 2010.83 1275.52 2039.76 1330.73 2037.16 1368.42 2011.84 1386.35 2000.26 1398.77 1982.54 1412.03 1966.25 1421.79 1986.34 1422.34 2010.7 1437.38 2028.14 1449.21 2044.07 1481.08 2028.55 1474.11 2009.55 1469.29 1995.68 1465.53 1981.4 1464.62 1966.75 1458.84 1895.52 1455.9 1823.88 1460.95 1752.51 1461.64 1734.52 1464.85 1716.08 1460.49 1698.36 1456 1679.32 1427.25 1678.45 1418.49 1694.52 1402.49 1722.99 1404.41 1756.95 1402.76 1788.5 1400.79 1825.53 1405.19 1863.02 1397.99 1899.64 1391.9 1930.13 1373.74 1960.57 1343.75 1972.47 1322.11 1980.25 1294.32 1981.81 1276.67 1964.6 1255.76 1943.86 1251.82 1912.78 1249.53 1884.81 1246.32 1823.74 1255.21 1762.95 1262.96 1702.57 1264.02 1690.67 1266.72 1676.66 1257.6 1667.05 1244.67 1652.31 1217.98 1657.89 1210.51 1675.52Z" fill="#090503" fill-rule="evenodd" fill-opacity="0.929412"/><path d="M1000.97 1661.62C1016.1 1650.84 1040.08 1653.04 1050.31 1669.6 1060.86 1684.32 1054.25 1702.84 1048.61 1718.07 1078.79 1720.77 1112.27 1722.93 1136.39 1743.43 1153.72 1757.92 1155.46 1788.55 1136.02 1802.04 1121.99 1813.04 1104.47 1803.73 1090.02 1798.83 1069.75 1790.57 1048.11 1786.4 1026.28 1786.03 1018.94 1824.51 1013.44 1864.77 1022.61 1903.39 1026.97 1921 1036.78 1940.21 1055.17 1946.17 1078.33 1954.93 1099.79 1931.73 1123 1939.16 1145.6 1944.8 1149.64 1975.71 1139 1993.22 1125.47 2013.04 1099.52 2018.31 1077.18 2020.37 1033.66 2024.64 985.147 2007.21 963.868 1966.85 936.216 1915.13 936.216 1853.08 946.305 1796.63 924.293 1800.52 900.722 1808.23 878.847 1799.88 858.486 1792.27 854.726 1761.64 871.831 1748.7 897.557 1727.75 932.501 1725.87 964.006 1721.55 972.49 1699.73 981.065 1675.65 1000.97 1661.62M1010.64 1666.94C987.99 1679.78 980.056 1706.65 971.435 1729.49 941.031 1734.9 907.784 1735.45 881.232 1753.06 866.832 1760.9 866.328 1785.62 882.699 1791.35 907.463 1799.38 932.822 1788.1 957.448 1784.75 953.275 1812.81 948.231 1840.97 949.882 1869.5 951.441 1907.79 958.136 1948.97 984 1978.96 1011.33 2009.69 1056.87 2016.29 1095.48 2008.36 1110.75 2004.55 1128.96 1998.08 1134.14 1981.53 1137.35 1968.78 1134.09 1949.84 1118.55 1947.55 1097.36 1945.07 1077.96 1962.68 1056.46 1956.26 1030.68 1950.53 1016.61 1924.44 1012.02 1900.4 1004.41 1859.87 1010.23 1818.36 1017.94 1778.28 1053.34 1772.14 1085.99 1789.15 1119.19 1797.82 1141.52 1798.05 1147.39 1765.76 1132.4 1752.46 1106.99 1728.62 1069.57 1730.73 1037.38 1726.19 1033.39 1715.46 1046.28 1704.22 1046.37 1692.62 1050.72 1673.17 1027.66 1657.26 1010.64 1666.94Z" fill="#090503" fill-rule="evenodd" fill-opacity="0.929412"/><path d="M3463.99 1678.9C3497.5 1660.34 3538.76 1660.84 3574.83 1670.99 3615.39 1682.51 3644.5 1718.4 3656.01 1757.8 3672.97 1814.48 3671 1875 3663.25 1933.06 3657.79 1966.7 3652.34 2000.85 3639.96 2032.75 3633.13 2051.27 3613.84 2067.26 3593.21 2060.36 3579.92 2057.99 3574.97 2044.77 3571.48 2033.53 3538.57 2047.06 3500.62 2046.15 3467.89 2032.71 3438.1 2020.46 3415.27 1993.35 3407.52 1962.27 3397.39 1922.91 3400.42 1878.25 3423.11 1843.64 3459.64 1788.84 3543.16 1775.53 3596.69 1812.7 3592.71 1793.13 3589.13 1772.2 3576.11 1756.24 3559.98 1736.63 3530.5 1730.01 3507.22 1739.61 3494.34 1744.22 3482.51 1751.72 3469.04 1754.42 3446.71 1756.88 3427.78 1732.66 3433.65 1711.54 3437.59 1696.36 3451.02 1686.35 3463.99 1678.9M3447.54 1703.81C3434.57 1718.58 3446.03 1744.09 3465.32 1745.5 3484.44 1742.44 3500.16 1728.82 3519.6 1726.62 3543.61 1722.97 3569.6 1732.15 3584.36 1751.81 3601.28 1774.53 3606.55 1803.97 3605.91 1831.76 3597.61 1830.34 3592.29 1823.49 3586.06 1818.64 3568.14 1803.24 3543.02 1800.49 3520.28 1801.54 3489.21 1802.55 3458.13 1815.76 3437.96 1839.67 3413.39 1867.96 3408.21 1908.14 3413.16 1944.07 3417.38 1977.21 3437.46 2009.49 3468.9 2022.92 3503.23 2037.42 3545.45 2039.52 3577.58 2018.44 3582.48 2030.42 3581.25 2050.08 3597.79 2051.95 3617.27 2056.52 3629.6 2037.05 3634.51 2021.23 3651.29 1965.37 3660.09 1906.95 3659.49 1848.63 3658.11 1804.01 3653.3 1756.34 3626.62 1718.9 3607.65 1691.7 3575.2 1676.34 3542.47 1674.42 3508.92 1670.54 3470.82 1677.71 3447.54 1703.81Z" fill="#090503" fill-rule="evenodd" fill-opacity="0.929412"/><path d="M3717.51 1715.27C3712.29 1687.79 3747.96 1664.8 3771.22 1679.68 3791.14 1692.37 3798.74 1716.46 3805.52 1737.8 3827.31 1694.06 3886.19 1679.82 3928.27 1701.3 3944.99 1710.05 3958.36 1727.63 3956.89 1747.23 3956.84 1763.4 3944.8 1780.3 3927.77 1780.99 3910.23 1782.04 3898.47 1765.37 3882.12 1762.3 3857.17 1762.21 3841 1786.67 3837.29 1809.02 3832.26 1841.4 3836.52 1874.33 3833.36 1906.89 3830.43 1938.12 3826.44 1971.56 3807.12 1997.43 3793.8 2016.53 3759.5 2015.62 3749.61 1993.73 3742.15 1978.38 3748.28 1961.53 3751.63 1946.05 3765.59 1892.37 3763.35 1834.8 3747.46 1781.86 3740.82 1758.18 3723.7 1739.04 3717.51 1715.27M3726.44 1710.55C3728.09 1723.37 3735.78 1734.32 3741.6 1745.59 3753.41 1766.15 3760.69 1789 3764.86 1812.31 3771.73 1854.54 3773.1 1898.28 3762.61 1940.05 3759.87 1956.22 3751.9 1972.89 3757.53 1989.24 3764.81 2005.95 3791.28 2005.68 3800.57 1990.79 3818.06 1965.24 3821.41 1933.13 3824.2 1903.09 3827.5 1868.74 3821.54 1833.61 3829.88 1799.81 3835.69 1777.42 3853.09 1755.34 3877.54 1753.19 3895.26 1751.54 3907.58 1767.25 3923.56 1771.83 3937.11 1773.06 3947.78 1760.01 3947.64 1747.1 3948.79 1726.76 3931.43 1710.73 3913.35 1705.01 3888.99 1697.77 3860.78 1700.06 3839.13 1713.94 3822.6 1724.29 3814.72 1742.7 3803.5 1757.72 3791.92 1735.42 3790.45 1706.89 3769.94 1689.94 3754.24 1676.15 3725.99 1690.17 3726.44 1710.55Z" fill="#090503" fill-rule="evenodd" fill-opacity="0.929412"/><path d="M785.529 1681.45C806.573 1672.99 833.118 1687.34 833.348 1710.98 835.365 1787.27 832.706 1863.89 825.37 1939.86 821.748 1966.74 820.923 1996.55 802.767 2018.44 788.05 2037.78 751.648 2031.79 745 2008.39 747.201 1993.16 746.834 1977.8 747.842 1962.49 762.147 1888.71 756.553 1813.28 757.424 1738.68 758.296 1717.33 762.605 1689.9 785.529 1681.45M789.426 1689.99C769.987 1696.9 768.244 1720.99 766.915 1738.54 765.906 1807.2 770.949 1876.46 760.084 1944.66 756.049 1965.69 756.828 1987.22 754.811 2008.48 762.468 2022.65 786.079 2025.66 795.89 2012.09 807.536 1998.01 810.699 1979.49 813.175 1961.99 823.445 1888.02 823.628 1813.24 825.049 1738.72 824.774 1726.34 825.874 1713.35 821.473 1701.51 816.613 1689.22 800.842 1686.75 789.426 1689.99Z" fill="#090503" fill-rule="evenodd" fill-opacity="0.929412"/><path d="M3522.31 1850.97C3543.74 1848.33 3568.48 1850.34 3584.65 1866.36 3602.19 1884.39 3603.98 1911.88 3600.59 1935.53 3597.25 1958.49 3579.61 1978.86 3556.57 1983.6 3526.02 1990.68 3485.48 1982.78 3472.92 1950.46 3463.85 1924.62 3463.9 1892.11 3482.27 1870.24 3492.26 1858.6 3507.42 1853.07 3522.31 1850.97M3507.69 1863.94C3490.88 1869.65 3479.43 1885.99 3477.64 1903.34 3474.25 1926.4 3477.46 1955.8 3500.09 1968.26 3521.66 1978.95 3549.61 1980.41 3570.59 1967.53 3588.77 1955.8 3593.77 1932.29 3592.48 1912.11 3591.66 1894.16 3585.29 1873.76 3567.84 1865.45 3549.01 1857.18 3527.02 1857.91 3507.69 1863.94Z" fill="#090503" fill-rule="evenodd" fill-opacity="0.929412"/><path d="M305.183 1654.44C342.682 1603.48 406.036 1576.83 467.923 1571.93 511.06 1569.28 555.619 1571.66 596.326 1587.36 630.754 1601.24 663.806 1623.9 680.951 1657.78 701.213 1696.79 700.067 1743.22 689.752 1784.93 678.154 1831.27 643.406 1872.84 597.014 1887.04 565.612 1896.15 531.276 1895.92 500.287 1885.2 485.251 1880.31 473.332 1869.5 460.313 1860.94 456.187 1931.49 454.124 2003.15 434.55 2071.51 430.928 2090.01 405.669 2095.82 392.696 2083.46 384.49 2074.58 386.186 2061.48 387.562 2050.49 396.638 2000.36 393.704 1949.12 399.343 1898.62 403.973 1833.15 402.002 1767.4 400.81 1701.83 400.076 1683.84 400.26 1665.66 397.234 1647.85 370.783 1656 358.498 1688.73 330.901 1696.34 309.905 1699.22 290.377 1671.98 305.183 1654.44M456.049 1631.87C459.029 1674.95 460.955 1718.18 461.459 1761.4 461.871 1785.16 459.534 1808.92 462.009 1832.64 469.756 1827.83 476.908 1821.15 486.259 1819.59 508.355 1823.35 527.792 1837.4 550.759 1837.59 577.943 1839.56 603.798 1824.17 618.743 1802.15 647.027 1759.84 646.615 1694.46 605.724 1660.07 565.016 1624.82 506.613 1622.89 456.049 1631.87Z" fill="#660066" fill-rule="evenodd"/><path d="M785.104 1579.93C801.74 1573.22 823.798 1577.97 832.185 1594.72 841.407 1613.34 838.209 1643.87 815.364 1651.18 796.967 1658.11 773.287 1652.23 764.204 1634.02 753.546 1614.39 764.112 1587.83 785.104 1579.93Z" fill="#660066" fill-rule="evenodd"/><path d="M1211.2 1675.93C1218.65 1658.31 1245.26 1652.73 1258.15 1667.46 1267.25 1677.07 1264.55 1691.07 1263.5 1702.97 1255.77 1763.32 1246.9 1824.09 1250.1 1885.13 1252.39 1913.09 1256.32 1944.16 1277.17 1964.88 1294.77 1982.09 1322.47 1980.53 1344.05 1972.75 1373.95 1960.86 1392.05 1930.43 1398.13 1899.95 1405.31 1863.35 1400.92 1825.87 1402.88 1788.86 1404.53 1757.33 1402.61 1723.38 1418.57 1694.92 1427.3 1678.85 1455.96 1679.72 1460.44 1698.76 1464.78 1716.47 1461.58 1734.91 1460.9 1752.89 1455.87 1824.23 1458.79 1895.84 1464.55 1967.03 1465.47 1981.68 1469.22 1995.95 1474.02 2009.82 1480.97 2028.81 1449.19 2044.32 1437.4 2028.4 1422.41 2010.96 1421.86 1986.62 1412.12 1966.53 1398.91 1982.82 1386.52 2000.53 1368.64 2012.11 1331.07 2037.41 1276.03 2040.02 1239.68 2011.1 1208.05 1983.92 1198.63 1940.31 1194.06 1900.73 1189.72 1845.41 1192.69 1789.63 1198.86 1734.54 1201.88 1714.87 1202.65 1694.23 1211.2 1675.93Z" fill="#660066" fill-rule="evenodd"/><path d="M1010.08 1666.91C1027.07 1657.25 1050.12 1673.14 1045.77 1692.56 1045.67 1704.15 1032.8 1715.37 1036.79 1726.09 1068.95 1730.63 1106.33 1728.52 1131.71 1752.34 1146.69 1765.62 1140.83 1797.87 1118.51 1797.64 1085.35 1788.98 1052.73 1771.99 1017.36 1778.13 1009.67 1818.16 1003.85 1859.61 1011.45 1900.1 1016.03 1924.11 1030.1 1950.17 1055.84 1955.89 1077.33 1962.31 1096.71 1944.72 1117.87 1947.19 1133.4 1949.48 1136.66 1968.4 1133.45 1981.13 1128.27 1997.67 1110.09 2004.13 1094.83 2007.93 1056.26 2015.85 1010.77 2009.26 983.462 1978.57 957.624 1948.61 950.935 1907.48 949.378 1869.23 947.728 1840.74 952.768 1812.62 956.937 1784.58 932.336 1787.93 907.002 1799.2 882.263 1791.18 865.908 1785.45 866.412 1760.77 880.797 1752.93 907.322 1735.34 940.536 1734.79 970.909 1729.39 979.522 1706.58 987.447 1679.74 1010.08 1666.91Z" fill="#660066" fill-rule="evenodd"/><path d="M789.497 1689.3C800.875 1686.05 816.593 1688.52 821.436 1700.85 825.823 1712.72 824.726 1725.74 825 1738.16 823.584 1812.86 823.401 1887.84 813.166 1962 810.699 1979.55 807.546 1998.11 795.94 2012.23 786.162 2025.84 762.63 2022.82 755 2008.61 757.01 1987.3 756.234 1965.71 760.254 1944.63 771.084 1876.25 766.057 1806.82 767.063 1737.98 768.388 1720.38 770.124 1696.22 789.497 1689.3Z" fill="#660066" fill-rule="evenodd"/><path d="M2479.99 1583.84C2545.29 1576.93 2616.65 1588.64 2667.49 1632.79 2717.28 1674.78 2741.97 1739.55 2746.97 1803.13 2754.04 1876.91 2744.13 1958.47 2693.74 2016.43 2654.37 2063.77 2592.78 2087.74 2532.17 2090.16 2476.96 2094.92 2418.96 2079.5 2377.43 2041.9 2348.61 2015.05 2320.02 1985.46 2307.04 1947.4 2284.73 1884.73 2288.18 1815.66 2302.26 1751.58 2315.66 1701.54 2340.81 1651.81 2383.44 1620.39 2411.43 1599.58 2445.44 1587.82 2479.99 1583.84M2481.83 1641.75C2441.26 1647.29 2403.59 1671.3 2382.8 1706.66 2356.23 1750.39 2351.46 1803.36 2352.33 1853.4 2353.43 1905.36 2370.78 1959.52 2410.52 1994.97 2441.81 2025.07 2486.78 2037.06 2529.5 2034.59 2569.06 2032.98 2610.27 2021.96 2639.87 1994.52 2679.7 1946.81 2692.09 1881.9 2687.59 1821.29 2684.88 1769.88 2669.69 1715.4 2630.23 1679.76 2591.13 1642.94 2533.27 1634.84 2481.83 1641.75Z" fill="#FFC000" fill-rule="evenodd"/><path d="M3199.69 1638.19C3244.02 1633.97 3292.93 1640.2 3327.91 1670.06 3346.66 1684.91 3358.76 1710.09 3352.25 1734.03 3347.62 1752.65 3317.09 1755.81 3308.38 1738.94 3300.59 1726.1 3296.79 1709.4 3282.48 1701.88 3255.9 1687.62 3223.58 1686.93 3194.65 1693.21 3156.24 1702.52 3130.47 1738.2 3121.4 1775.03 3112.96 1809.74 3111.08 1846.29 3116.17 1881.65 3120.66 1911.64 3136.57 1942.96 3166.32 1954.47 3210.88 1971.07 3264.65 1958.14 3297.61 1923.97 3308.8 1912.14 3314.66 1895.22 3328.97 1886.46 3347.21 1876.24 3371.69 1897.38 3364.81 1917.09 3358.44 1936.36 3342.63 1950.43 3327.32 1962.82 3304.9 1979.42 3282.9 1998.03 3255.57 2005.83 3213.31 2018.17 3164.99 2017.89 3126.03 1995.56 3085.78 1972.22 3063.59 1926.4 3058.78 1881.28 3053.51 1823.54 3058.91 1761.73 3089.26 1711.05 3111.54 1670.74 3153.81 1642.68 3199.69 1638.19Z" fill="#FFC000" fill-rule="evenodd"/><path d="M2898.25 1662.37C2929.44 1655.61 2964.22 1658.39 2991.25 1676.49 3005.54 1685.77 3019.24 1698.84 3022.31 1716.3 3024.23 1727.54 3022.63 1742.17 3011.36 1747.97 3002.79 1751.86 2991.52 1753.92 2983.32 1748.43 2973.1 1738.79 2967.38 1724.57 2954.5 1717.81 2934.99 1706.75 2907.04 1707.62 2891.05 1724.44 2877.4 1741.53 2876.99 1765.43 2881.71 1785.82 2885.01 1806.43 2903.74 1818.36 2917.17 1832.39 2939.84 1847.66 2966.05 1860.64 2978.97 1886.14 3002.93 1928 2987.9 1987.33 2945.98 2011.87 2906.13 2035.59 2850.6 2033.17 2813.86 2004.47 2792.37 1988.15 2782.11 1958.72 2789.26 1932.71 2793.75 1915.57 2816.47 1910.5 2830.67 1918.45 2842.54 1926.36 2840.34 1942.45 2845.24 1954.24 2859.21 1973.52 2887.07 1981.43 2908.6 1970.33 2928.67 1961.14 2938.88 1933.44 2926.6 1914.43 2918.04 1900.35 2903.51 1891.62 2891.01 1881.48 2867 1863.01 2842.81 1842.31 2830.58 1813.88 2816.29 1780.97 2817.43 1741.26 2834.61 1709.63 2847.81 1685.86 2871.68 1668.31 2898.25 1662.37Z" fill="#FFC000" fill-rule="evenodd"/><path d="M3448.07 1703.44C3471.35 1677.28 3509.43 1670.09 3542.98 1673.99 3575.7 1675.91 3608.14 1691.3 3627.11 1718.56 3653.78 1756.08 3658.6 1803.85 3659.97 1848.56 3660.57 1907.02 3651.77 1965.56 3635 2021.54 3630.09 2037.39 3617.77 2056.9 3598.29 2052.32 3581.75 2050.44 3582.98 2030.74 3578.08 2018.74 3545.95 2039.86 3503.75 2037.75 3469.42 2023.23 3437.99 2009.76 3417.91 1977.42 3413.7 1944.21 3408.75 1908.21 3413.93 1867.94 3438.49 1839.59 3458.65 1815.63 3489.72 1802.39 3520.8 1801.38 3543.53 1800.33 3568.64 1803.08 3586.56 1818.51 3592.79 1823.37 3598.11 1830.24 3606.4 1831.66 3607.04 1803.81 3601.77 1774.31 3584.86 1751.54 3570.1 1731.84 3544.12 1722.64 3520.11 1726.3 3500.68 1728.5 3484.96 1742.15 3465.85 1745.22 3446.56 1743.8 3435.1 1718.24 3448.07 1703.44M3522.63 1851.04C3507.73 1853.14 3492.57 1858.69 3482.58 1870.37 3464.2 1892.31 3464.15 1924.93 3473.23 1950.85 3485.78 1983.29 3526.34 1991.21 3556.91 1984.11 3579.96 1979.35 3597.6 1958.92 3600.95 1935.88 3604.34 1912.15 3602.55 1884.57 3585 1866.47 3568.82 1850.4 3544.07 1848.38 3522.63 1851.04Z" fill="#FFC000" fill-rule="evenodd"/><path d="M3726.01 1711.09C3725.55 1690.73 3753.89 1676.74 3769.65 1690.5 3790.23 1707.43 3791.7 1735.92 3803.32 1758.19 3814.58 1743.19 3822.48 1724.81 3839.07 1714.47 3860.8 1700.61 3889.1 1698.33 3913.54 1705.55 3931.68 1711.27 3949.09 1727.28 3947.95 1747.58 3948.08 1760.48 3937.38 1773.51 3923.78 1772.28 3907.75 1767.71 3895.39 1752.02 3877.61 1753.66 3853.08 1755.81 3835.62 1777.86 3829.79 1800.22 3821.43 1833.98 3827.4 1869.05 3824.09 1903.36 3821.29 1933.36 3817.93 1965.42 3800.38 1990.94 3791.06 2005.8 3764.5 2006.08 3757.2 1989.38 3751.55 1973.06 3759.54 1956.41 3762.3 1940.26 3772.82 1898.55 3771.44 1854.88 3764.55 1812.71 3760.37 1789.43 3753.06 1766.61 3741.21 1746.07 3735.38 1734.82 3727.66 1723.89 3726.01 1711.09Z" fill="#FFC000" fill-rule="evenodd"/></g></svg>