<svg width="3667" height="665" xmlns="http://www.w3.org/2000/svg" xmlns:xlink="http://www.w3.org/1999/xlink" xml:space="preserve" overflow="hidden"><defs><clipPath id="clip0"><rect x="73" y="1603" width="3667" height="665"/></clipPath></defs><g clip-path="url(#clip0)" transform="translate(-73 -1603)"><path d="M1531.06 1623.49C1582.53 1602.06 1639.68 1600.59 1694.49 1605.03 1744.54 1609.84 1796.79 1625.92 1830.98 1664.84 1874.43 1709.31 1880.53 1783.04 1847.53 1835.24 1828.01 1871.97 1793.4 1896.43 1759.81 1919.14 1774.66 1933.47 1789.96 1947.3 1806.01 1960.36 1811.87 1945.34 1815.26 1920.7 1836.35 1921.43 1879.57 1928.48 1922.05 1940.07 1965 1948.91 1977.88 1950.65 1991.63 1960.91 1988.74 1975.42 1981.5 2010.27 1967.24 2043.34 1950.52 2074.66 1973.43 2090.73 1996.49 2106.67 2020.73 2120.73 2030.72 2125.81 2037.37 2137.08 2034.21 2148.34 2029.76 2158.97 2021.19 2166.98 2013.9 2175.59 1989.34 2203.07 1965.64 2231.32 1941.03 2258.71 1934.29 2267.14 1922.01 2270.75 1912.29 2265.35 1881.81 2249.96 1853.81 2230.23 1824.66 2212.59 1747.89 2260.5 1654.39 2271.76 1565.66 2267 1501.13 2263.11 1432.61 2244.42 1388.42 2194.32 1356.39 2160.48 1338.19 2113.4 1341.35 2066.74 1343.23 2012.7 1372.93 1962.32 1414.64 1929.03 1432.84 1913.78 1453.69 1902.2 1474.59 1891.16 1444.25 1851.55 1425.55 1801.13 1432.38 1750.89 1437.88 1694.15 1478.94 1644.69 1531.06 1623.49M1539.67 1669.7C1507.04 1686.41 1481.6 1718.33 1477.84 1755.42 1471.93 1796 1488.98 1836.07 1514.05 1867.21 1522.07 1878.84 1536.19 1890.01 1532.48 1905.81 1530.05 1917.58 1517.81 1922.3 1508.19 1926.79 1472.66 1941.63 1438.47 1962.69 1414.92 1993.69 1395.02 2019.61 1384.53 2052.68 1387.14 2085.38 1391.54 2153.98 1454.61 2204.3 1519.18 2214.65 1570.43 2224.96 1623.41 2224.18 1675.06 2217.13 1713.74 2211.91 1752.06 2201.05 1786.16 2181.68 1797.02 2175.87 1806.92 2168.26 1818.43 2163.64 1828.37 2160.34 1837.45 2166.98 1845.7 2171.61 1869.53 2186.4 1893.18 2201.42 1916.97 2216.3 1937.68 2194.18 1956.89 2170.74 1977.01 2148.07 1953.04 2131.67 1928.42 2116.1 1905.28 2098.61 1894.74 2090.32 1896.3 2075.07 1903.12 2065 1917.2 2041.18 1929.16 2016.13 1937.45 1989.71 1908.76 1983.21 1879.98 1976.98 1851.29 1970.48 1844.55 1985.22 1840.06 2001.53 1829.61 2014.16 1817.46 2025.2 1800.28 2017.55 1790.56 2007.2 1761.55 1983.07 1733.09 1958.16 1706.73 1931.14 1697.38 1922.3 1699.08 1905.63 1709.39 1898.3 1743.63 1872.2 1785.7 1852.55 1807.43 1813.45 1828.69 1780.02 1828.65 1733.3 1803.12 1702.16 1776.72 1667.27 1731.76 1654.22 1690 1650.55 1639.54 1646.8 1586.1 1647.21 1539.67 1669.7Z" fill="#FFFFFF" fill-rule="evenodd"/><path d="M1636.99 1694.68C1660.26 1690.52 1685.88 1693.86 1705.71 1707.34 1731 1722.06 1741.14 1755.75 1731.27 1782.68 1720.26 1813.17 1694.05 1835.07 1667.24 1851.8 1656.64 1858.98 1641.12 1866.34 1630.15 1855.55 1606.74 1831.09 1582.04 1803.34 1577.32 1768.6 1573.6 1733.12 1603.34 1701.44 1636.99 1694.68M1622.53 1764.53C1626.29 1781.95 1638.96 1795.57 1649.43 1809.42 1664.99 1797.35 1683.17 1784.74 1688.81 1764.85 1692.94 1749.4 1676.1 1739.2 1662.69 1738.84 1645.62 1735.41 1623.26 1745.19 1622.53 1764.53Z" fill="#FFFFFF" fill-rule="evenodd"/><path d="M1576.94 1963.89C1587.53 1958.64 1598.7 1965.22 1606.12 1972.62 1646.48 2010.13 1686.84 2047.78 1730.45 2081.55 1744.65 2089.54 1750.01 2111.52 1735.07 2121.62 1692.01 2151.13 1637.09 2169.96 1584.91 2156.66 1539.93 2145.28 1500.12 2101.56 1506.72 2053.31 1510.8 2012.83 1543.87 1983.4 1576.94 1963.89M1551.47 2062.77C1552.21 2088.12 1575.02 2108 1598.7 2113.07 1626.46 2119.93 1655 2111.75 1680.42 2100.46 1647.35 2072.59 1615.19 2043.62 1583.49 2014.15 1568.47 2026.58 1551.29 2041.52 1551.47 2062.77Z" fill="#FFFFFF" fill-rule="evenodd"/><path d="M79.263 1786.38C118.337 1732.15 185.432 1703.94 250.784 1698.96 309.579 1695.12 372.455 1701.93 422.214 1735.99 457.573 1758.17 481.834 1796.48 487.291 1837.72 490.96 1867.35 488.713 1897.8 480.642 1926.56 468.213 1969.99 437.761 2009.49 395.339 2027.14 348.974 2045.84 293.298 2042.82 250.784 2015.67 249.317 2075.88 243.447 2136.14 230.605 2195.08 227.808 2206.92 224.643 2219.99 214.462 2227.86 199.053 2240.34 171.032 2236.27 163.006 2217.16 155.255 2199.33 162.455 2180.12 164.29 2161.88 168.968 2116.48 168.096 2070.71 173.141 2025.31 176.902 1949.74 175.572 1873.93 172.086 1798.35 155.026 1812.62 140.947 1831.78 119.942 1840.56 90.5449 1850.48 59.4051 1812.07 79.263 1786.38M87.7015 1790.77C72.8883 1808.28 92.4252 1835.48 113.43 1832.6 141.038 1825.01 153.329 1792.32 179.791 1784.18 182.818 1801.97 182.634 1820.12 183.368 1838.09 184.561 1903.56 186.533 1969.21 181.901 2034.59 176.26 2085.03 179.195 2136.19 170.114 2186.25 168.738 2197.22 167.042 2210.3 175.251 2219.17 188.23 2231.52 213.499 2225.71 217.122 2207.24 236.705 2138.98 238.769 2067.42 242.896 1996.97 255.921 2005.52 267.845 2016.31 282.887 2021.2 313.89 2031.9 348.24 2032.13 379.655 2023.03 426.066 2008.85 460.829 1967.34 472.432 1921.07 482.751 1879.42 483.898 1833.06 463.627 1794.1 446.475 1760.27 413.409 1737.64 378.967 1723.78 338.242 1708.1 293.665 1705.72 250.509 1708.38 188.596 1713.27 125.216 1739.88 87.7015 1790.77Z" fill="#FFFFFF" fill-rule="evenodd"/><path d="M564.339 1707.66C585.191 1699.07 612.611 1705.7 623.129 1726.51 632.958 1746.14 630.845 1773.72 613.759 1788.85 591.713 1805.75 554.464 1801.52 540.41 1776.35 525.345 1752.23 538.251 1718.15 564.339 1707.66M568.197 1716.06C547.391 1723.92 536.919 1750.36 547.483 1769.9 556.485 1788.03 579.955 1793.89 598.189 1786.98 620.833 1779.72 624.002 1749.32 614.862 1730.78 606.548 1714.11 584.686 1709.38 568.197 1716.06Z" fill="#FFFFFF" fill-rule="evenodd"/><path d="M2246.03 1712.17C2314.96 1701.32 2391.09 1710.43 2447.7 1754.1 2503.48 1796.41 2532.5 1865.63 2538.45 1933.94 2547.35 2015.57 2534.56 2107.5 2474.42 2168.34 2422.86 2222.68 2343.7 2240.91 2271.05 2234.91 2221.18 2230.65 2173.74 2207.07 2139.41 2170.86 2123.14 2153.28 2105.77 2136.06 2094.36 2114.73 2068.32 2068.26 2062.46 2013.37 2065.89 1960.99 2068.09 1904.31 2081.84 1846.63 2113.7 1799.02 2142.39 1752.55 2192.54 1721.28 2246.03 1712.17M2262.89 1719.22C2228.38 1723.2 2194.42 1734.97 2166.46 1755.8 2123.87 1787.25 2098.76 1837.02 2085.37 1887.1 2071.3 1951.24 2067.86 2020.37 2090.14 2083.09 2103.11 2121.19 2131.67 2150.81 2160.45 2177.68 2201.93 2215.31 2259.87 2230.74 2315.01 2225.98 2375.56 2223.55 2437.07 2199.56 2476.39 2152.18 2526.72 2094.17 2536.62 2012.54 2529.56 1938.7 2524.57 1875.06 2499.91 1810.23 2450.18 1768.2 2399.39 1724.02 2328.12 1712.3 2262.89 1719.22Z" fill="#FFFFFF" fill-rule="evenodd"/><path d="M239 1768.53C289.461 1759.57 347.745 1761.49 388.37 1796.67 429.178 1830.99 429.59 1896.24 401.363 1938.46 386.449 1960.44 360.646 1975.8 333.517 1973.83 310.597 1973.65 291.199 1959.62 269.148 1955.87 259.816 1957.43 252.679 1964.1 244.947 1968.9 242.477 1945.23 244.81 1921.51 244.398 1897.8 243.895 1854.66 241.974 1811.53 239 1768.53M249.385 1775.47C251.764 1833.46 255.744 1891.54 252.816 1949.61 278.024 1940.25 299.938 1959.48 324.047 1963.14 350.078 1968.76 378.168 1956.51 392.671 1934.4 420.257 1894.78 419.571 1831.72 378.854 1800.97 342.804 1771.54 293.395 1771.36 249.385 1775.47Z" fill="#FFFFFF" fill-rule="evenodd"/><path d="M2965.92 1767.99C3004.94 1760.63 3046.8 1763.05 3083.62 1778.65 3110.21 1790.5 3135.75 1811 3143.87 1840.01 3147.35 1855.43 3147.86 1874.38 3135.84 1886.41 3124.56 1896.06 3107.09 1897.9 3093.89 1891.26 3075.55 1879.82 3076.74 1851.22 3055.05 1843.31 3016.22 1828.76 2964.31 1831.55 2936.71 1866.09 2907.18 1902.88 2903.88 1952.85 2905.99 1998.1 2907.59 2029.86 2918.83 2066.92 2950.69 2080.51 2988.98 2096.39 3035.8 2086.6 3066.79 2059.69 3082.84 2046.6 3089.17 2024.28 3107.64 2013.75 3131.99 2000.94 3163.86 2026.75 3157.07 2053.24 3150.84 2076.12 3132.4 2093.09 3114.2 2107.09 3093.48 2122.15 3073.49 2139.26 3048.86 2147.73 3007.6 2162.41 2960.64 2163.28 2919.65 2147.18 2873.62 2128.6 2843.77 2082.66 2834.78 2035.21 2825.29 1979.43 2829.56 1920.32 2850.92 1867.65 2870.41 1818.64 2912.87 1777.65 2965.92 1767.99M2982.33 1774.63C2936.44 1779.11 2894.16 1807.11 2871.88 1847.33 2841.52 1897.9 2836.11 1959.58 2841.39 2017.18 2846.2 2062.21 2868.39 2107.92 2908.65 2131.21 2947.62 2153.49 2995.95 2153.77 3038.23 2141.46 3065.55 2133.68 3087.56 2115.1 3109.98 2098.54 3125.3 2086.18 3141.12 2072.14 3147.49 2052.92 3154.37 2033.24 3129.88 2012.15 3111.63 2022.35 3097.33 2031.09 3091.46 2047.98 3080.27 2059.78 3047.3 2093.87 2993.52 2106.77 2948.95 2090.21 2919.19 2078.73 2903.28 2047.47 2898.79 2017.55 2893.7 1982.27 2895.58 1945.8 2904.02 1911.16 2913.1 1874.42 2938.87 1838.82 2977.29 1829.53 3006.22 1823.27 3038.55 1823.95 3065.14 1838.18 3079.45 1845.69 3083.25 1862.34 3091.05 1875.15 3099.76 1891.99 3130.3 1888.84 3134.93 1870.26 3141.44 1846.37 3129.33 1821.25 3110.58 1806.43 3075.59 1776.64 3026.67 1770.42 2982.33 1774.63Z" fill="#FFFFFF" fill-rule="evenodd"/><path d="M2265.12 1777.24C2316.37 1770.33 2374.02 1778.43 2412.98 1815.31 2452.3 1851 2467.43 1905.57 2470.13 1957.06 2474.61 2017.76 2462.26 2082.77 2422.58 2130.55 2393.09 2158.04 2352.03 2169.08 2312.62 2170.69 2270.06 2173.16 2225.25 2161.16 2194.07 2131.01 2154.47 2095.51 2137.19 2041.26 2136.09 1989.22 2135.23 1939.1 2139.98 1886.05 2166.45 1842.25 2187.16 1806.84 2224.7 1782.79 2265.12 1777.24M2259.17 1788.01C2224.52 1794.61 2192.74 1815.73 2174.82 1846.42 2147.71 1891.59 2143.5 1946.43 2145.83 1998.02 2148.16 2051.02 2170.89 2105.63 2215.42 2136.51 2259.36 2166.65 2317.1 2166.84 2366.57 2151.95 2389.34 2143.84 2413.11 2132.29 2425.73 2110.58 2461.67 2057.76 2466.47 1990.37 2457.88 1928.7 2451.43 1887.29 2435.06 1844.91 2401.68 1817.83 2362.69 1785.21 2307.77 1779.17 2259.17 1788.01Z" fill="#FFFFFF" fill-rule="evenodd"/><path d="M2690.93 1786.42C2730.05 1780.83 2773.43 1791.56 2800.12 1822.05 2813.47 1836.87 2819.43 1859.15 2811.31 1877.95 2803.47 1895.89 2778.61 1901.66 2762.15 1892.81 2748.94 1883.32 2743.4 1865.3 2727.44 1859.2 2710.52 1852.32 2685.8 1854.34 2676.76 1872.5 2667.96 1890.52 2669.7 1912.39 2677.41 1930.46 2691.62 1953.16 2714.69 1967.79 2737.07 1981.55 2768.57 2003.06 2787.6 2042.82 2781.23 2080.88 2777.33 2123.02 2744.45 2159.8 2703.59 2169.71 2654.29 2182.13 2591.7 2168.24 2567.39 2119.49 2559.28 2102.16 2557.35 2081.34 2564.09 2063.22 2573.22 2037.27 2615.41 2034.1 2628.48 2058.22 2634.85 2069.64 2631.41 2086.29 2643.84 2093.9 2661.63 2109.17 2695.47 2104.22 2703.04 2080.37 2709.64 2066.43 2700.93 2051.53 2689.97 2042.86 2663.42 2020.67 2632.92 2001.54 2614.21 1971.55 2590.74 1936.24 2587.75 1889.14 2604.13 1850.39 2619.12 1815.68 2653.33 1790.5 2690.93 1786.42M2680.8 1797.89C2654.2 1803.85 2630.31 1821.46 2617.1 1845.3 2599.91 1877.04 2598.76 1916.89 2613.07 1949.91 2625.31 1978.43 2649.52 1999.2 2673.55 2017.73 2686.07 2027.91 2700.61 2036.67 2709.19 2050.79 2721.48 2069.87 2711.25 2097.66 2691.16 2106.88 2669.61 2118.02 2641.73 2110.09 2627.74 2090.74 2622.84 2078.91 2625.04 2062.76 2613.16 2054.83 2598.94 2046.85 2576.2 2051.94 2571.7 2069.14 2564.55 2095.23 2574.82 2124.76 2596.33 2141.14 2633.11 2169.94 2688.69 2172.37 2728.58 2148.57 2770.54 2123.94 2785.58 2064.42 2761.6 2022.41 2748.67 1996.82 2722.44 1983.8 2699.74 1968.48 2686.3 1954.4 2667.55 1942.43 2664.24 1921.75 2659.52 1901.3 2659.93 1877.31 2673.6 1860.16 2689.6 1843.29 2717.58 1842.41 2737.11 1853.51 2750 1860.3 2755.73 1874.56 2765.96 1884.24 2774.17 1889.74 2785.45 1887.68 2794.02 1883.78 2805.3 1877.95 2806.91 1863.28 2804.98 1852 2801.91 1834.48 2788.2 1821.37 2773.89 1812.06 2746.83 1793.9 2712.03 1791.1 2680.8 1797.89Z" fill="#FFFFFF" fill-rule="evenodd"/><path d="M977.322 1830.93C980.21 1810.47 992.544 1787.35 1015.61 1785.61 1037.57 1781.17 1059.35 1801.77 1056.65 1823.88 1049.63 1895.11 1035.6 1966.7 1043.67 2038.53 1046.56 2057.29 1051.05 2077.16 1064.03 2091.72 1080.49 2109.48 1108.55 2106.73 1128.63 2097.3 1159.76 2081.46 1172.47 2044.93 1174.8 2012.16 1177.92 1963.22 1173.47 1913.87 1180.26 1865.12 1183.06 1849.01 1186.63 1831.48 1198.83 1819.53 1211.58 1806.44 1235.92 1806.44 1247.25 1821.45 1258.12 1836.83 1254.72 1856.88 1254.27 1874.51 1248.4 1952.14 1250.37 2030.24 1257.66 2107.69 1258.21 2122.07 1264.81 2135.02 1267.97 2148.85 1269.08 2173.16 1234.55 2189.86 1216.35 2173.43 1201.86 2160.11 1197.5 2139.92 1192.5 2121.7 1172.28 2146.1 1146.61 2167.66 1114.65 2173.84 1077.92 2181.49 1035.09 2175.26 1008.41 2146.88 978.651 2115.8 970.444 2071.35 966.271 2030.15 962.878 1963.63 966.18 1896.62 977.322 1830.93M993.508 1811.52C984.933 1829.83 984.154 1850.47 981.128 1870.16 974.937 1925.27 971.957 1981.08 976.313 2036.42 980.898 2076.02 990.344 2119.64 1022.07 2146.83 1058.52 2175.76 1113.73 2173.16 1151.42 2147.84 1169.35 2136.26 1181.77 2118.54 1195.03 2102.25 1204.79 2122.34 1205.34 2146.7 1220.38 2164.14 1232.21 2180.07 1264.08 2164.55 1257.11 2145.55 1252.29 2131.68 1248.53 2117.4 1247.62 2102.75 1241.84 2031.52 1238.9 1959.88 1243.95 1888.51 1244.64 1870.52 1247.85 1852.08 1243.49 1834.36 1239 1815.32 1210.25 1814.45 1201.49 1830.52 1185.49 1858.99 1187.41 1892.95 1185.76 1924.5 1183.79 1961.53 1188.19 1999.02 1180.99 2035.64 1174.9 2066.13 1156.74 2096.57 1126.75 2108.47 1105.11 2116.25 1077.32 2117.81 1059.67 2100.6 1038.76 2079.86 1034.82 2048.78 1032.53 2020.81 1029.32 1959.74 1038.21 1898.95 1045.96 1838.57 1047.02 1826.67 1049.72 1812.66 1040.6 1803.05 1027.67 1788.31 1000.98 1793.89 993.508 1811.52Z" fill="#FFFFFF" fill-rule="evenodd"/><path d="M783.967 1797.62C799.101 1786.84 823.085 1789.04 833.311 1805.6 843.858 1820.32 837.255 1838.84 831.614 1854.07 861.789 1856.77 895.265 1858.93 919.387 1879.43 936.721 1893.92 938.464 1924.55 919.02 1938.04 904.987 1949.04 887.47 1939.73 873.024 1934.83 852.755 1926.57 831.11 1922.4 809.281 1922.03 801.944 1960.51 796.441 2000.77 805.613 2039.39 809.969 2057 819.783 2076.21 838.172 2082.17 861.33 2090.93 882.792 2067.73 905.996 2075.16 928.604 2080.8 932.64 2111.71 922.001 2129.22 908.473 2149.04 882.517 2154.31 860.184 2156.37 816.664 2160.64 768.146 2143.21 746.868 2102.85 719.216 2051.13 719.216 1989.08 729.304 1932.63 707.292 1936.52 683.721 1944.23 661.847 1935.88 641.486 1928.27 637.726 1897.64 654.831 1884.7 680.557 1863.75 715.501 1861.86 747.006 1857.55 755.49 1835.73 764.065 1811.65 783.967 1797.62M793.644 1802.94C770.99 1815.78 763.056 1842.65 754.435 1865.49 724.031 1870.9 690.784 1871.45 664.232 1889.06 649.832 1896.9 649.328 1921.62 665.699 1927.35 690.463 1935.38 715.822 1924.1 740.448 1920.75 736.275 1948.81 731.23 1976.97 732.881 2005.5 734.441 2043.79 741.136 2084.97 767 2114.96 794.331 2145.69 839.869 2152.29 878.481 2144.36 893.752 2140.55 911.958 2134.08 917.14 2117.53 920.35 2104.78 917.094 2085.84 901.548 2083.55 880.362 2081.07 860.964 2098.68 839.456 2092.26 813.684 2086.53 799.605 2060.44 795.019 2036.4 787.407 1995.87 793.231 1954.36 800.935 1914.28 836.338 1908.14 868.989 1925.15 902.19 1933.82 924.523 1934.05 930.393 1901.76 915.397 1888.46 889.992 1864.62 852.571 1866.73 820.379 1862.19 816.389 1851.45 829.275 1840.22 829.367 1828.62 833.724 1809.17 810.657 1793.26 793.644 1802.94Z" fill="#FFFFFF" fill-rule="evenodd"/><path d="M3246.99 1814.9C3280.5 1796.34 3321.76 1796.84 3357.83 1806.99 3398.4 1818.51 3427.5 1854.4 3439.01 1893.8 3455.97 1950.48 3454 2011 3446.25 2069.06 3440.79 2102.7 3435.34 2136.85 3422.96 2168.75 3416.13 2187.27 3396.84 2203.26 3376.21 2196.36 3362.92 2193.99 3357.97 2180.77 3354.48 2169.53 3321.57 2183.06 3283.62 2182.15 3250.89 2168.71 3221.1 2156.46 3198.27 2129.35 3190.52 2098.27 3180.39 2058.91 3183.42 2014.25 3206.11 1979.64 3242.64 1924.84 3326.16 1911.53 3379.69 1948.7 3375.71 1929.13 3372.13 1908.2 3359.11 1892.24 3342.98 1872.63 3313.5 1866.01 3290.22 1875.61 3277.34 1880.22 3265.51 1887.72 3252.04 1890.42 3229.71 1892.88 3210.78 1868.66 3216.65 1847.54 3220.59 1832.36 3234.02 1822.35 3246.99 1814.9M3230.54 1839.81C3217.57 1854.58 3229.03 1880.08 3248.32 1881.5 3267.44 1878.44 3283.16 1864.82 3302.6 1862.62 3326.61 1858.97 3352.6 1868.15 3367.36 1887.81 3384.28 1910.53 3389.55 1939.97 3388.91 1967.76 3380.61 1966.34 3375.29 1959.49 3369.06 1954.64 3351.14 1939.24 3326.02 1936.49 3303.28 1937.54 3272.21 1938.55 3241.13 1951.76 3220.96 1975.67 3196.39 2003.96 3191.21 2044.14 3196.16 2080.07 3200.38 2113.21 3220.46 2145.49 3251.9 2158.92 3286.23 2173.41 3328.45 2175.52 3360.58 2154.44 3365.48 2166.42 3364.25 2186.08 3380.79 2187.95 3400.27 2192.52 3412.6 2173.05 3417.51 2157.23 3434.29 2101.37 3443.09 2042.95 3442.49 1984.63 3441.12 1940.01 3436.3 1892.34 3409.62 1854.9 3390.65 1827.7 3358.2 1812.34 3325.47 1810.42 3291.92 1806.54 3253.82 1813.71 3230.54 1839.81Z" fill="#FFFFFF" fill-rule="evenodd"/><path d="M3500.51 1852.15C3495.29 1824.75 3530.96 1801.83 3554.22 1816.67 3574.14 1829.31 3581.74 1853.33 3588.52 1874.61 3610.31 1831 3669.19 1816.8 3711.27 1838.22 3727.99 1846.94 3741.36 1864.48 3739.89 1884.02 3739.84 1900.14 3727.8 1916.99 3710.77 1917.67 3693.23 1918.72 3681.47 1902.1 3665.12 1899.04 3640.17 1898.95 3624 1923.33 3620.29 1945.62 3615.26 1977.9 3619.52 2010.73 3616.36 2043.2 3613.43 2074.34 3609.44 2107.68 3590.12 2133.48 3576.8 2152.52 3542.5 2151.6 3532.61 2129.78 3525.15 2114.48 3531.28 2097.68 3534.63 2082.24 3548.59 2028.72 3546.35 1971.33 3530.46 1918.54 3523.82 1894.93 3506.7 1875.85 3500.51 1852.15M3509.44 1847.44C3511.09 1860.23 3518.78 1871.14 3524.6 1882.38 3536.41 1902.88 3543.69 1925.66 3547.86 1948.91 3554.73 1991.01 3556.1 2034.62 3545.61 2076.26 3542.87 2092.38 3534.9 2109 3540.53 2125.3 3547.81 2141.97 3574.28 2141.69 3583.57 2126.85 3601.06 2101.37 3604.41 2069.36 3607.2 2039.41 3610.5 2005.16 3604.54 1970.14 3612.88 1936.44 3618.69 1914.11 3636.09 1892.1 3660.54 1889.96 3678.26 1888.31 3690.58 1903.97 3706.56 1908.54 3720.11 1909.77 3730.78 1896.76 3730.64 1883.88 3731.79 1863.61 3714.43 1847.63 3696.35 1841.92 3671.99 1834.7 3643.78 1836.99 3622.13 1850.82 3605.6 1861.14 3597.72 1879.5 3586.5 1894.48 3574.92 1872.24 3573.45 1843.79 3552.94 1826.89 3537.24 1813.15 3508.99 1827.12 3509.44 1847.44Z" fill="#FFFFFF" fill-rule="evenodd"/><path d="M568.529 1817.45C589.573 1808.99 616.118 1823.34 616.348 1846.98 618.365 1923.27 615.706 1999.89 608.37 2075.86 604.748 2102.74 603.923 2132.55 585.768 2154.44 571.051 2173.78 534.648 2167.79 528 2144.39 530.201 2129.16 529.834 2113.8 530.843 2098.49 545.147 2024.71 539.554 1949.28 540.425 1874.68 541.296 1853.33 545.605 1825.9 568.529 1817.45M572.426 1825.99C552.987 1832.9 551.245 1856.99 549.915 1874.54 548.906 1943.2 553.95 2012.46 543.084 2080.66 539.049 2101.69 539.829 2123.22 537.811 2144.48 545.468 2158.65 569.079 2161.67 578.891 2148.09 590.536 2134.01 593.699 2115.49 596.175 2097.99 606.445 2024.02 606.628 1949.24 608.049 1874.72 607.774 1862.34 608.875 1849.35 604.473 1837.51 599.613 1825.22 583.842 1822.75 572.426 1825.99Z" fill="#FFFFFF" fill-rule="evenodd"/><path d="M3305.31 1986.98C3326.74 1984.31 3351.48 1986.34 3367.65 2002.48 3385.19 2020.65 3386.98 2048.33 3383.59 2072.16 3380.25 2095.29 3362.61 2115.8 3339.57 2120.59 3309.02 2127.72 3268.48 2119.76 3255.93 2087.2 3246.85 2061.17 3246.9 2028.42 3265.27 2006.39 3275.26 1994.66 3290.42 1989.1 3305.31 1986.98M3290.69 2000.04C3273.88 2005.79 3262.43 2022.26 3260.64 2039.73 3257.25 2062.96 3260.46 2092.58 3283.09 2105.13 3304.66 2115.9 3332.61 2117.37 3353.59 2104.4 3371.77 2092.58 3376.77 2068.89 3375.48 2048.56 3374.66 2030.49 3368.29 2009.93 3350.84 2001.56 3332.01 1993.24 3310.02 1993.97 3290.69 2000.04Z" fill="#FFFFFF" fill-rule="evenodd"/></g></svg>